# This file uses centimeters as units for non-parametric coordinates.

mtllib ComputerWithDesk.mtl
g default
v 2.759775 -0.002882 3.783486
v -0.434861 -0.002882 3.759864
v 2.759775 1.154405 3.783486
v -0.434861 1.154405 3.759864
v 2.751187 1.154405 4.944802
v -0.443449 1.154405 4.921179
v 2.751187 -0.002882 4.944802
v -0.443449 -0.002882 4.921179
v 1.153870 1.154405 4.932990
v 1.162457 1.154405 3.771676
v -0.115398 -0.002882 3.762225
v -0.115398 1.154405 3.762225
v -0.123985 1.154405 4.923541
v -0.123985 -0.002882 4.923541
v 2.440312 -0.002882 3.781125
v 2.431725 -0.002882 4.942439
v 2.431725 1.154405 4.942439
v 2.440312 1.154405 3.781125
v 2.759776 0.954405 3.783488
v 2.440312 0.954405 3.781125
v 1.162457 0.954405 3.771676
v -0.115398 0.954405 3.762225
v -0.434861 0.954405 3.759864
v -0.443449 0.954405 4.921179
v -0.123985 0.954405 4.923541
v 1.153870 0.954405 4.932990
v 2.431725 0.954405 4.942439
v 2.751188 0.954405 4.944802
v 1.844188 1.136519 3.874255
v 0.686960 1.136519 3.874255
v 1.844188 1.224591 3.874255
v 0.686960 1.224591 3.874255
v 1.844188 1.224591 4.222804
v 0.686960 1.224591 4.222804
v 1.844188 1.136519 4.222804
v 0.686960 1.136519 4.222804
v 1.569544 1.136519 4.435292
v 0.961604 1.136519 4.435292
v 1.569544 1.224591 4.435292
v 0.961604 1.224591 4.435292
v 1.569544 1.224591 4.783841
v 0.961604 1.224591 4.783841
v 1.569544 1.136519 4.783841
v 0.961604 1.136519 4.783841
v 1.265573 1.136519 4.435292
v 1.265573 1.136519 4.783841
v 1.265573 1.224591 4.783841
v 1.265573 1.224591 4.435292
v 1.569544 1.224591 4.609566
v 0.961604 1.224591 4.609566
v 0.961604 1.136519 4.609566
v 1.265573 1.136519 4.609566
v 1.569544 1.136519 4.609566
v 1.569544 1.224591 4.522429
v 1.265573 1.224591 4.522429
v 0.961604 1.224591 4.522429
v 0.961604 1.136519 4.522429
v 1.265573 1.136519 4.522429
v 1.569544 1.136519 4.522429
v 1.569544 1.136519 4.696704
v 1.265573 1.136519 4.696704
v 0.961604 1.136519 4.696704
v 0.961604 1.224591 4.696704
v 1.265573 1.224591 4.696704
v 1.569544 1.224591 4.696704
v 1.417559 1.136519 4.435292
v 1.417559 1.136519 4.522429
v 1.417559 1.136519 4.609566
v 1.417559 1.136519 4.696704
v 1.417559 1.136519 4.783841
v 1.417559 1.224591 4.783841
v 1.417559 1.224591 4.696704
v 1.417559 1.224591 4.609566
v 1.417559 1.224591 4.522429
v 1.417559 1.224591 4.435292
v 1.113589 1.136519 4.435292
v 1.113589 1.136519 4.522429
v 1.113589 1.136519 4.609566
v 1.113589 1.136519 4.696704
v 1.113589 1.136519 4.783841
v 1.113589 1.224591 4.783841
v 1.113589 1.224591 4.696704
v 1.113589 1.224591 4.609566
v 1.113589 1.224591 4.522429
v 1.113589 1.224591 4.435292
v 1.417559 1.918040 4.696704
v 1.417559 1.918040 4.609566
v 1.265573 1.918040 4.609566
v 1.265573 1.918040 4.696704
v 1.417559 1.918040 4.522429
v 1.265573 1.918040 4.522429
v 1.113589 1.918040 4.696704
v 1.113589 1.918040 4.609566
v 1.113589 1.918040 4.522429
v 1.417559 1.738879 4.696704
v 1.417559 1.738879 4.609566
v 1.417559 1.738879 4.522429
v 1.265573 1.738879 4.522429
v 1.113589 1.738879 4.522429
v 1.113589 1.738879 4.609566
v 1.113589 1.738879 4.696704
v 1.265573 1.738879 4.696704
v 1.735545 1.617114 4.423190
v 1.265571 1.617114 4.423190
v 1.265571 2.039805 4.423190
v 1.735545 2.039805 4.423190
v 0.795603 1.617114 4.423190
v 0.795603 2.039805 4.423190
v 1.777724 1.583556 4.522429
v 1.265573 1.582285 4.522429
v 1.265573 1.582285 4.423190
v 1.777724 1.583556 4.423190
v 1.777724 2.073363 4.522429
v 1.265573 2.074634 4.522429
v 1.777724 2.073363 4.423190
v 1.265573 2.074634 4.423190
v 0.753424 1.583556 4.522429
v 0.753424 1.583556 4.423190
v 0.753424 2.073363 4.522429
v 0.753424 2.073363 4.423190
v 1.735545 1.617114 4.451005
v 1.265571 1.617114 4.451005
v 1.265571 2.039805 4.451005
v 1.735545 2.039805 4.451005
v 0.795603 1.617114 4.451005
v 0.795603 2.039805 4.451005
v 0.290073 1.136519 3.874255
v -0.137446 1.136519 3.874255
v 0.290073 2.136519 3.874255
v -0.137446 2.136519 3.874255
v 0.290073 2.136519 4.874255
v -0.137446 2.136519 4.874255
v 0.290073 1.136519 4.874255
v -0.137446 1.136519 4.874255
vt 0.500000 0.250000
vt 0.500000 0.200000
vt 0.600000 0.200000
vt 0.600000 0.250000
vt 0.500000 0.500000
vt 0.600000 0.500000
vt 0.600000 0.550000
vt 0.500000 0.550000
vt 0.625000 0.200000
vt 0.875000 0.200000
vt 0.875000 0.250000
vt 0.625000 0.250000
vt 0.125000 0.200000
vt 0.375000 0.200000
vt 0.375000 0.250000
vt 0.125000 0.250000
vt 0.400000 0.550000
vt 0.400000 0.500000
vt 0.400000 0.250000
vt 0.400000 0.200000
vt 0.625000 0.500000
vt 0.625000 0.550000
vt 0.600000 1.000000
vt 0.600000 0.750000
vt 0.625000 0.750000
vt 0.625000 1.000000
vt 0.375000 0.750000
vt 0.400000 0.750000
vt 0.400000 1.000000
vt 0.375000 1.000000
vt 0.375000 0.500000
vt 0.375000 0.550000
vt 0.375000 0.000000
vt 0.400000 0.000000
vt 0.600000 0.000000
vt 0.625000 0.000000
vt 0.875000 0.000000
vt 0.125000 0.000000
vt 0.375000 0.000000
vt 0.625000 0.000000
vt 0.625000 0.250000
vt 0.375000 0.250000
vt 0.625000 0.500000
vt 0.375000 0.500000
vt 0.625000 0.750000
vt 0.375000 0.750000
vt 0.625000 1.000000
vt 0.375000 1.000000
vt 0.875000 0.000000
vt 0.875000 0.250000
vt 0.125000 0.000000
vt 0.125000 0.250000
vt 0.562500 0.250000
vt 0.562500 0.000000
vt 0.625000 0.000000
vt 0.625000 0.250000
vt 0.625000 0.437500
vt 0.562500 0.437500
vt 0.562500 0.375000
vt 0.625000 0.375000
vt 0.562500 0.750000
vt 0.562500 0.500000
vt 0.625000 0.500000
vt 0.625000 0.750000
vt 0.625000 0.875000
vt 0.562500 0.875000
vt 0.562500 0.812500
vt 0.625000 0.812500
vt 0.750000 0.250000
vt 0.750000 0.000000
vt 0.812500 0.000000
vt 0.812500 0.250000
vt 0.187500 0.250000
vt 0.187500 0.000000
vt 0.250000 0.000000
vt 0.250000 0.250000
vt 0.437500 0.875000
vt 0.437500 0.812500
vt 0.500000 0.812500
vt 0.500000 0.875000
vt 0.437500 0.750000
vt 0.437500 0.500000
vt 0.500000 0.500000
vt 0.500000 0.750000
vt 0.437500 0.437500
vt 0.437500 0.375000
vt 0.500000 0.375000
vt 0.500000 0.437500
vt 0.437500 0.250000
vt 0.437500 0.000000
vt 0.500000 0.000000
vt 0.500000 0.250000
vt 0.437500 0.312500
vt 0.500000 0.312500
vt 0.562500 0.312500
vt 0.625000 0.312500
vt 0.687500 0.250000
vt 0.687500 0.000000
vt 0.625000 0.937500
vt 0.562500 0.937500
vt 0.437500 0.937500
vt 0.500000 0.937500
vt 0.312500 0.000000
vt 0.312500 0.250000
vt 0.437500 0.312500
vt 0.500000 0.312500
vt 0.562500 1.000000
vt 0.625000 1.000000
vt 0.437500 1.000000
vt 0.500000 1.000000
vt 0.375000 0.000000
vt 0.375000 0.250000
vt 0.875000 0.000000
vt 0.875000 0.250000
vt 0.437500 0.437500
vt 0.500000 0.437500
vt 0.125000 0.000000
vt 0.125000 0.250000
vt 0.375000 0.937500
vt 0.375000 1.000000
vt 0.375000 0.875000
vt 0.375000 0.812500
vt 0.375000 0.750000
vt 0.375000 0.500000
vt 0.375000 0.437500
vt 0.375000 0.375000
vt 0.437500 0.375000
vt 0.375000 0.312500
vt 0.562500 0.375000
vt 0.562500 0.437500
vt 0.562500 0.312500
vt 0.437500 0.437500
vt 0.437500 0.375000
vt 0.500000 0.437500
vt 0.437500 0.312500
vt 0.437500 0.312500
vt 0.500000 0.312500
vt 0.500000 0.312500
vt 0.437500 0.312500
vt 0.562500 0.375000
vt 0.562500 0.437500
vt 0.562500 0.312500
vt 0.562500 0.312500
vt 0.562500 0.312500
vt 0.500000 0.312500
vt 0.437500 0.312500
vt 0.500000 0.312500
vt 0.500000 0.312500
vt 0.437500 0.312500
vt 0.500000 0.312500
vt 0.437500 0.312500
vt 0.437500 0.312500
vt 0.500000 0.312500
vt 0.562500 0.312500
vt 0.562500 0.312500
vt 0.562500 0.312500
vt 0.562500 0.312500
vt 0.500000 0.312500
vt 0.437500 0.312500
vt 0.437500 0.312500
vt 0.500000 0.312500
vt 0.562500 0.312500
vt 0.562500 0.312500
vt 0.375000 0.000000
vt 0.625000 0.000000
vt 0.625000 0.250000
vt 0.375000 0.250000
vt 0.625000 0.500000
vt 0.375000 0.500000
vt 0.625000 0.750000
vt 0.375000 0.750000
vt 0.625000 1.000000
vt 0.375000 1.000000
vt 0.875000 0.000000
vt 0.875000 0.250000
vt 0.125000 0.000000
vt 0.125000 0.250000
vn 0.007395 0.000000 -0.999973
vn 0.007395 0.000000 -0.999973
vn 0.007396 0.000000 -0.999973
vn 0.007396 0.000000 -0.999973
vn -0.000000 1.000000 0.000000
vn -0.000000 1.000000 0.000000
vn -0.000000 1.000000 0.000000
vn -0.000000 1.000000 0.000000
vn -0.007392 0.000000 0.999973
vn -0.007394 0.000000 0.999973
vn -0.007394 0.000000 0.999973
vn -0.007393 0.000000 0.999973
vn -0.999973 0.000000 -0.007395
vn -0.999973 0.000000 -0.007395
vn -0.999973 0.000000 -0.007395
vn -0.999973 0.000000 -0.007395
vn 0.999973 0.000000 0.007395
vn 0.999973 0.000000 0.007395
vn 0.999973 0.000000 0.007395
vn 0.999973 0.000000 0.007395
vn -0.007396 -0.000000 0.999973
vn -0.007396 -0.000000 0.999973
vn -0.000000 1.000000 -0.000000
vn -0.000000 1.000000 -0.000000
vn 0.007394 -0.000001 -0.999973
vn 0.007395 0.000000 -0.999973
vn 0.007397 0.000000 -0.999973
vn 0.007396 0.000000 -0.999973
vn -0.000000 1.000000 0.000000
vn -0.000000 1.000000 0.000000
vn -0.007390 0.000000 0.999973
vn -0.007388 0.000000 0.999973
vn 0.000000 -1.000000 0.000000
vn 0.000000 -1.000000 0.000000
vn 0.000000 -1.000000 0.000000
vn 0.000000 -1.000000 0.000000
vn -0.000000 -1.000000 -0.000000
vn -0.000000 -1.000000 -0.000000
vn -0.000000 -1.000000 -0.000000
vn -0.000000 -1.000000 -0.000000
vn -0.007403 -0.000000 0.999973
vn -0.007398 0.000000 0.999973
vn -0.000000 1.000000 -0.000000
vn -0.000000 1.000000 -0.000000
vn 0.007397 0.000000 -0.999973
vn 0.007396 -0.000005 -0.999973
vn 0.007397 0.000001 -0.999973
vn 0.007397 0.000001 -0.999973
vn 0.007397 0.000000 -0.999973
vn 0.007397 0.000000 -0.999973
vn -0.999973 0.000000 -0.007395
vn -0.999973 0.000000 -0.007395
vn -0.007390 0.000000 0.999973
vn -0.007390 0.000000 0.999973
vn -0.007397 0.000000 0.999973
vn -0.007397 0.000000 0.999973
vn 0.999973 0.000000 0.007395
vn 0.999973 0.000000 0.007395
vn 0.000000 -1.000000 0.000000
vn 0.000000 -1.000000 0.000000
vn 0.000000 -1.000000 0.000000
vn 0.000000 -1.000000 0.000000
vn 0.000000 -1.000000 0.000000
vn 0.000000 -1.000000 0.000000
vn 0.000000 -1.000000 0.000000
vn 0.000000 -1.000000 0.000000
vn 0.999973 0.000000 0.007394
vn 0.999973 0.000000 0.007394
vn 0.999973 0.000000 0.007394
vn 0.999973 0.000000 0.007394
vn -0.999973 0.000000 -0.007394
vn -0.999973 0.000000 -0.007394
vn -0.999973 0.000000 -0.007394
vn -0.999973 0.000000 -0.007394
vn -0.000000 0.000000 -1.000000
vn -0.000000 0.000000 -1.000000
vn -0.000000 0.000000 -1.000000
vn -0.000000 0.000000 -1.000000
vn -0.000000 1.000000 0.000000
vn -0.000000 1.000000 0.000000
vn -0.000000 1.000000 0.000000
vn -0.000000 1.000000 0.000000
vn 0.000000 0.000000 1.000000
vn 0.000000 0.000000 1.000000
vn 0.000000 0.000000 1.000000
vn 0.000000 0.000000 1.000000
vn 0.000000 -1.000000 0.000000
vn 0.000000 -1.000000 0.000000
vn 0.000000 -1.000000 0.000000
vn 0.000000 -1.000000 0.000000
vn -1.000000 0.000000 0.000000
vn -1.000000 0.000000 0.000000
vn -1.000000 0.000000 0.000000
vn -1.000000 0.000000 0.000000
vn 1.000000 0.000000 -0.000000
vn 1.000000 0.000000 -0.000000
vn 1.000000 0.000000 -0.000000
vn 1.000000 0.000000 -0.000000
vn -0.000000 0.000000 -1.000000
vn -0.000000 0.000000 -1.000000
vn -0.000000 0.000000 -1.000000
vn -0.000000 0.000000 -1.000000
vn -0.000000 1.000000 0.000000
vn -0.000000 1.000000 0.000000
vn -0.000000 1.000000 0.000000
vn -0.000000 1.000000 0.000000
vn 0.000000 0.000000 1.000000
vn 0.000000 0.000000 1.000000
vn 0.000000 0.000000 1.000000
vn 0.000000 0.000000 1.000000
vn 0.000000 -1.000000 0.000000
vn 0.000000 -1.000000 0.000000
vn 0.000000 -1.000000 0.000000
vn 0.000000 -1.000000 0.000000
vn -1.000000 0.000000 0.000000
vn -1.000000 0.000000 0.000000
vn -1.000000 0.000000 0.000000
vn -1.000000 0.000000 0.000000
vn 1.000000 0.000000 -0.000000
vn 1.000000 0.000000 -0.000000
vn 1.000000 0.000000 -0.000000
vn 1.000000 0.000000 -0.000000
vn 0.000000 -1.000000 0.000000
vn 0.000000 -1.000000 0.000000
vn 0.000000 -1.000000 0.000000
vn 0.000000 -1.000000 0.000000
vn 0.000000 0.000000 1.000000
vn 0.000000 0.000000 1.000000
vn 0.000000 0.000000 1.000000
vn 0.000000 0.000000 1.000000
vn -0.000000 1.000000 0.000000
vn -0.000000 1.000000 0.000000
vn 0.000000 1.000000 -0.000000
vn 0.000000 1.000000 -0.000000
vn -0.000000 0.000000 -1.000000
vn -0.000000 0.000000 -1.000000
vn -0.000000 0.000000 -1.000000
vn -0.000000 0.000000 -1.000000
vn -0.000000 1.000000 0.000000
vn 0.000000 1.000000 -0.000000
vn -0.000000 1.000000 0.000000
vn -0.000000 1.000000 0.000000
vn -1.000000 0.000000 0.000000
vn -1.000000 0.000000 0.000000
vn 0.000000 -1.000000 0.000000
vn 0.000000 -1.000000 0.000000
vn 0.000000 -1.000000 0.000000
vn 0.000000 -1.000000 0.000000
vn 1.000000 0.000000 -0.000000
vn 1.000000 0.000000 -0.000000
vn -0.000000 1.000000 0.000000
vn -0.000000 1.000000 0.000000
vn -0.000000 1.000000 0.000000
vn -0.000000 1.000000 0.000000
vn -0.000000 1.000000 0.000000
vn -0.000000 1.000000 0.000000
vn -1.000000 0.000000 0.000000
vn -1.000000 0.000000 0.000000
vn 0.000000 -1.000000 0.000000
vn 0.000000 -1.000000 0.000000
vn 0.000000 -1.000000 0.000000
vn 0.000000 -1.000000 0.000000
vn 1.000000 0.000000 -0.000000
vn 1.000000 0.000000 -0.000000
vn 0.000000 -1.000000 0.000000
vn 0.000000 -1.000000 0.000000
vn 0.000000 -1.000000 0.000000
vn 0.000000 -1.000000 0.000000
vn -1.000000 0.000000 0.000000
vn -1.000000 0.000000 0.000000
vn -0.000000 1.000000 0.000000
vn -0.000000 1.000000 0.000000
vn -0.000000 1.000000 0.000000
vn -0.000000 1.000000 0.000000
vn -0.000000 1.000000 0.000000
vn -0.000000 1.000000 0.000000
vn 1.000000 0.000000 -0.000000
vn 1.000000 0.000000 -0.000000
vn 0.000000 -1.000000 0.000000
vn 0.000000 -1.000000 0.000000
vn 0.000000 -1.000000 0.000000
vn 0.000000 -1.000000 0.000000
vn 0.000000 -1.000000 0.000000
vn 0.000000 0.000000 1.000000
vn 0.000000 0.000000 1.000000
vn -0.000000 1.000000 0.000000
vn -0.000000 1.000000 0.000000
vn -0.000000 1.000000 0.000000
vn -0.000000 1.000000 0.000000
vn -0.000000 1.000000 0.000000
vn -0.000000 1.000000 0.000000
vn -0.000000 0.000000 -1.000000
vn -0.000000 0.000000 -1.000000
vn 0.000000 1.000000 -0.000000
vn 0.000000 1.000000 -0.000000
vn 0.000000 1.000000 -0.000000
vn 1.000000 0.000000 -0.000000
vn 1.000000 0.000000 -0.000000
vn 1.000000 0.000000 -0.000000
vn 1.000000 0.000000 -0.000000
vn 0.000000 0.000000 1.000000
vn 0.000000 0.000000 1.000000
vn 0.000000 0.000000 1.000000
vn 0.000000 0.000000 1.000000
vn 1.000000 0.000000 -0.000000
vn 1.000000 0.000000 -0.000000
vn -0.000000 0.000000 -1.000000
vn -0.000000 0.000000 -1.000000
vn -0.000000 0.000000 -1.000000
vn -0.000000 0.000000 -1.000000
vn -1.000000 0.000000 0.000000
vn -1.000000 0.000000 0.000000
vn -1.000000 0.000000 0.000000
vn -1.000000 0.000000 0.000000
vn 0.000000 0.000000 1.000000
vn 0.000000 0.000000 1.000000
vn -1.000000 0.000000 0.000000
vn -1.000000 0.000000 0.000000
vn -0.000000 0.000000 -1.000000
vn -0.000000 0.000000 -1.000000
vn 1.000000 0.000000 -0.000000
vn 1.000000 0.000000 -0.000000
vn 1.000000 0.000000 -0.000000
vn -0.000000 0.000000 -1.000000
vn -0.000000 0.000000 -1.000000
vn -0.000000 0.000000 -1.000000
vn -0.000000 0.000000 -1.000000
vn -0.000000 0.000000 -1.000000
vn -0.000000 0.000000 -1.000000
vn -1.000000 0.000000 0.000000
vn -1.000000 0.000000 0.000000
vn -1.000000 0.000000 0.000000
vn 0.000000 0.000000 1.000000
vn 0.000000 0.000000 1.000000
vn 0.000000 0.000000 1.000000
vn 0.002481 -0.999997 -0.000000
vn 0.000000 -1.000000 0.000000
vn 0.000000 -1.000000 0.000000
vn 0.002481 -0.999997 -0.000000
vn -0.000000 1.000000 0.000000
vn 0.002482 0.999997 -0.000000
vn 0.002482 0.999997 -0.000000
vn -0.000000 1.000000 0.000000
vn 1.000000 0.000000 -0.000000
vn 1.000000 0.000000 -0.000000
vn 1.000000 0.000000 -0.000000
vn 1.000000 0.000000 -0.000000
vn -0.002481 -0.999997 0.000000
vn -0.002481 -0.999997 0.000000
vn -1.000000 0.000000 0.000000
vn -1.000000 0.000000 0.000000
vn -1.000000 0.000000 0.000000
vn -1.000000 0.000000 0.000000
vn -0.002482 0.999997 0.000000
vn -0.002482 0.999997 0.000000
vn -0.000002 0.000000 1.000000
vn 0.000000 0.000000 1.000000
vn 0.000000 0.000000 1.000000
vn -0.000003 0.000000 1.000000
vn -0.000000 0.000000 -1.000000
vn -0.000008 0.000000 -1.000000
vn -0.000009 0.000000 -1.000000
vn -0.000000 0.000000 -1.000000
vn 0.000000 0.000000 1.000000
vn -0.000002 0.000000 1.000000
vn -0.000003 0.000000 1.000000
vn 0.000000 0.000000 1.000000
vn -0.000008 0.000000 -1.000000
vn -0.000000 0.000000 -1.000000
vn -0.000000 0.000000 -1.000000
vn -0.000009 0.000000 -1.000000
vn 0.000002 0.000000 1.000000
vn 0.000003 0.000000 1.000000
vn 0.000008 0.000000 -1.000000
vn 0.000009 0.000000 -1.000000
vn 0.000002 0.000000 1.000000
vn 0.000003 0.000000 1.000000
vn 0.000008 0.000000 -1.000000
vn 0.000009 0.000000 -1.000000
vn -0.000000 1.000000 0.000000
vn -0.000000 1.000000 0.000000
vn -0.000000 1.000000 0.000000
vn -0.000000 1.000000 0.000000
vn 0.000000 -1.000000 0.000000
vn 0.000000 -1.000000 0.000000
vn 0.000000 -1.000000 0.000000
vn 0.000000 -1.000000 0.000000
vn -1.000000 0.000000 0.000000
vn -1.000000 0.000000 0.000000
vn -1.000000 0.000000 0.000000
vn -1.000000 0.000000 0.000000
vn -0.000000 1.000000 0.000000
vn -0.000000 1.000000 0.000000
vn 1.000000 0.000000 -0.000000
vn 1.000000 0.000000 -0.000000
vn 1.000000 0.000000 -0.000000
vn 1.000000 0.000000 -0.000000
vn 0.000000 -1.000000 0.000000
vn 0.000000 -1.000000 0.000000
vn -0.000000 0.000000 -1.000000
vn -0.000000 0.000000 -1.000000
vn -0.000000 0.000000 -1.000000
vn -0.000000 0.000000 -1.000000
vn -0.000000 1.000000 0.000000
vn -0.000000 1.000000 0.000000
vn -0.000000 1.000000 0.000000
vn -0.000000 1.000000 0.000000
vn 0.000000 0.000000 1.000000
vn 0.000000 0.000000 1.000000
vn 0.000000 0.000000 1.000000
vn 0.000000 0.000000 1.000000
vn 0.000000 -1.000000 0.000000
vn 0.000000 -1.000000 0.000000
vn 0.000000 -1.000000 0.000000
vn 0.000000 -1.000000 0.000000
vn -1.000000 0.000000 0.000000
vn -1.000000 0.000000 0.000000
vn -1.000000 0.000000 0.000000
vn -1.000000 0.000000 0.000000
vn 1.000000 0.000000 -0.000000
vn 1.000000 0.000000 -0.000000
vn 1.000000 0.000000 -0.000000
vn 1.000000 0.000000 -0.000000
s 1
g polySurface39
usemtl initialShadingGroup
f 10/1/1 21/2/2 22/3/3 12/4/4
s 2
f 9/5/5 10/1/6 12/4/7 13/6/8
s 3
f 25/7/9 26/8/10 9/5/11 13/6/12
s 4
f 23/9/13 24/10/14 6/11/15 4/12/16
s 5
f 28/13/17 19/14/18 3/15/19 5/16/20
s 3
f 26/8/10 27/17/21 17/18/22 9/5/11
s 2
f 17/18/23 18/19/24 10/1/6 9/5/5
s 1
f 18/19/25 20/20/26 21/2/2 10/1/1
f 12/4/4 22/3/3 23/9/27 4/12/28
s 2
f 13/6/8 12/4/7 4/12/29 6/21/30
s 3
f 24/22/31 25/7/9 13/6/12 6/21/32
s off
f 11/23/33 14/24/34 8/25/35 2/26/36
f 7/27/37 16/28/38 15/29/39 1/30/40
s 3
f 5/31/41 17/18/22 27/17/21 28/32/42
s 2
f 3/15/43 18/19/24 17/18/23 5/31/44
s 1
f 19/14/45 20/20/26 18/19/25 3/15/46
f 1/33/47 15/34/48 20/20/26 19/14/45
f 23/9/27 22/3/3 11/35/49 2/36/50
s 4
f 2/36/51 8/37/52 24/10/14 23/9/13
s 3
f 14/24/53 25/7/9 24/22/31 8/25/54
f 28/32/42 27/17/21 16/28/55 7/27/56
s 5
f 7/38/57 1/33/58 19/14/18 28/13/17
s off
f 22/3/59 21/2/60 26/8/61 25/7/62
f 21/2/63 20/20/64 27/17/65 26/8/66
f 22/3/67 25/7/68 14/24/69 11/35/70
f 16/28/71 27/17/72 20/20/73 15/29/74
f 29/39/75 30/40/76 32/41/77 31/42/78
f 31/42/79 32/41/80 34/43/81 33/44/82
f 33/44/83 34/43/84 36/45/85 35/46/86
f 35/46/87 36/45/88 30/47/89 29/48/90
f 30/40/91 36/49/92 34/50/93 32/41/94
f 35/51/95 29/39/96 31/42/97 33/52/98
s 6
f 85/53/99 76/54/100 38/55/101 40/56/102
s 7
f 63/57/103 82/58/104 83/59/105 50/60/106
s 8
f 80/61/107 81/62/108 42/63/109 44/64/110
s 9
f 51/65/111 78/66/112 79/67/113 62/68/114
s 10
f 50/69/115 51/70/116 62/71/117 63/72/118
s 11
f 65/73/119 60/74/120 53/75/121 49/76/122
s 9
f 68/77/123 69/78/124 61/79/125 52/80/126
s 8
f 70/81/127 71/82/128 47/83/129 46/84/130
s 14
f 86/85/131 87/86/132 88/87/133 89/88/134
s 6
f 75/89/135 66/90/136 45/91/137 48/92/138
s 14
f 87/86/132 90/93/139 91/94/140 88/87/133
s 7
f 50/60/106 83/59/105 84/95/141 56/96/142
s 10
f 56/97/143 57/98/144 51/70/116 50/69/115
s 9
f 57/99/145 77/100/146 78/66/112 51/65/111
f 67/101/147 68/77/123 52/80/126 58/102/148
s 11
f 49/76/122 53/75/121 59/103/149 54/104/150
s 7
f 74/105/151 75/89/152 48/92/153 55/106/154
f 56/96/142 84/95/141 85/53/155 40/56/156
s 10
f 38/55/157 57/98/144 56/97/143 40/56/158
s 9
f 76/107/159 77/100/146 57/99/145 38/108/160
f 66/109/161 67/101/147 58/102/148 45/110/162
s 11
f 54/104/150 59/103/149 37/111/163 39/112/164
s 9
f 69/78/124 70/81/165 46/84/166 61/79/125
f 62/68/114 79/67/113 80/61/167 44/64/168
s 10
f 63/72/118 62/71/117 44/113/169 42/114/170
s 7
f 81/62/171 82/58/104 63/57/103 42/63/172
f 71/82/173 72/115/174 64/116/175 47/83/176
s 11
f 43/117/177 60/74/120 65/73/119 41/118/178
s 9
f 59/119/179 67/101/147 66/109/161 37/120/180
f 53/121/181 68/77/123 67/101/147 59/119/179
f 60/122/182 69/78/124 68/77/123 53/121/181
f 43/123/183 70/81/165 69/78/124 60/122/182
s 8
f 41/124/184 71/82/128 70/81/127 43/123/185
s 7
f 65/125/186 72/115/174 71/82/173 41/124/187
f 49/126/188 73/127/189 72/115/174 65/125/186
f 54/128/190 74/105/151 73/127/189 49/126/188
f 39/112/191 75/89/152 74/105/151 54/128/190
s 6
f 37/111/192 66/90/136 75/89/135 39/112/193
s 9
f 45/110/162 58/102/148 77/100/146 76/107/159
f 78/66/112 77/100/146 58/102/148 52/80/126
f 79/67/113 78/66/112 52/80/126 61/79/125
f 80/61/167 79/67/113 61/79/125 46/84/166
s 8
f 46/84/130 47/83/129 81/62/108 80/61/107
s 7
f 47/83/176 64/116/175 82/58/104 81/62/171
s 14
f 93/129/194 92/130/195 89/88/134 88/87/133
f 94/131/196 93/129/194 88/87/133 91/94/140
s 7
f 85/53/155 84/95/141 55/106/154 48/92/153
s 6
f 48/92/138 45/91/137 76/54/100 85/53/99
s 18
f 95/132/197 96/133/198 87/86/199 86/85/200
s 19
f 102/134/201 95/132/202 86/85/203 89/88/204
s 18
f 96/133/198 97/135/205 90/93/206 87/86/199
s 20
f 121/136/207 122/137/208 123/138/209 124/139/210
s 21
f 100/140/211 101/141/212 92/130/213 93/129/214
s 19
f 101/141/215 102/134/201 89/88/204 92/130/216
s 21
f 99/142/217 100/140/211 93/129/214 94/131/218
s 20
f 122/137/208 125/143/219 126/144/220 123/138/209
s 18
f 72/115/221 73/127/222 96/133/198 95/132/197
f 73/127/222 74/105/223 97/135/205 96/133/198
s 22
f 74/105/224 55/106/225 98/145/226 97/135/227
f 55/106/225 84/95/228 99/142/229 98/145/226
s 21
f 84/95/230 83/59/231 100/140/211 99/142/217
f 83/59/231 82/58/232 101/141/212 100/140/211
s 19
f 82/58/233 64/116/234 102/134/201 101/141/215
f 64/116/234 72/115/235 95/132/202 102/134/201
s 23
f 109/146/236 110/147/237 111/148/238 112/149/239
s 24
f 114/150/240 113/151/241 115/152/242 116/153/243
s off
f 113/151/244 109/146/245 112/149/246 115/152/247
s 23
f 110/147/237 117/154/248 118/155/249 111/148/238
s off
f 117/154/250 119/156/251 120/157/252 118/155/253
s 24
f 119/156/254 114/150/240 116/153/243 120/157/255
s 25
f 97/135/256 98/145/257 110/147/258 109/146/259
s 26
f 104/158/260 103/159/261 112/149/262 111/148/263
s 25
f 91/94/264 90/93/265 113/151/266 114/150/267
s 26
f 106/160/268 105/161/269 116/153/270 115/152/271
s 25
f 90/93/265 97/135/256 109/146/259 113/151/266
s 26
f 103/159/261 106/160/268 115/152/271 112/149/262
s 25
f 98/145/257 99/142/272 117/154/273 110/147/258
s 26
f 107/162/274 104/158/260 111/148/263 118/155/275
s 25
f 99/142/272 94/131/276 119/156/277 117/154/273
s 26
f 108/163/278 107/162/274 118/155/275 120/157/279
s 25
f 94/131/276 91/94/264 114/150/267 119/156/277
s 26
f 105/161/269 108/163/278 120/157/279 116/153/270
s 28
f 103/159/280 104/158/281 122/137/282 121/136/283
s 29
f 105/161/284 106/160/285 124/139/286 123/138/287
s off
f 106/160/288 103/159/289 121/136/290 124/139/291
s 28
f 104/158/281 107/162/292 125/143/293 122/137/282
s off
f 107/162/294 108/163/295 126/144/296 125/143/297
s 29
f 108/163/298 105/161/284 123/138/287 126/144/299
s off
f 127/164/300 128/165/301 130/166/302 129/167/303
f 129/167/304 130/166/305 132/168/306 131/169/307
f 131/169/308 132/168/309 134/170/310 133/171/311
f 133/171/312 134/170/313 128/172/314 127/173/315
f 128/165/316 134/174/317 132/175/318 130/166/319
f 133/176/320 127/164/321 129/167/322 131/177/323
