# This file uses centimeters as units for non-parametric coordinates.

mtllib Countertop.mtl
g default
v 0.773007 0.060303 -3.863769
v 0.773007 0.060303 -4.863769
v 0.773007 1.322644 -3.863769
v 0.773007 1.322644 -4.863769
v -2.791654 1.322644 -3.863769
v -2.791654 1.322644 -4.863769
v -2.791654 0.060303 -3.863769
v -2.791654 0.060303 -4.863769
v 0.773007 1.187393 -3.863769
v 0.773007 1.187393 -4.863769
v -2.791655 1.187393 -4.863769
v -2.791655 1.187393 -3.863769
v 0.773007 1.322644 -3.747715
v -2.791654 1.322644 -3.747715
v -2.791655 1.187393 -3.747715
v 0.773007 1.187393 -3.747715
vt 0.375000 0.000000
vt 0.625000 0.000000
vt 0.625000 0.250000
vt 0.375000 0.250000
vt 0.625000 0.500000
vt 0.375000 0.500000
vt 0.625000 0.750000
vt 0.375000 0.750000
vt 0.625000 1.000000
vt 0.375000 1.000000
vt 0.875000 0.000000
vt 0.875000 0.250000
vt 0.375000 0.223214
vt 0.625000 0.223214
vt 0.625000 0.526786
vt 0.875000 0.223214
vt 0.375000 0.526786
vt 0.375000 0.250000
vt 0.375000 0.500000
vt 0.375000 0.526786
vt 0.375000 0.223214
vn 1.000000 0.000000 0.000000
vn 1.000000 0.000000 0.000000
vn 1.000000 0.000000 0.000000
vn 1.000000 0.000000 0.000000
vn 0.000000 1.000000 0.000000
vn 0.000000 1.000000 0.000000
vn 0.000000 1.000000 0.000000
vn 0.000000 1.000000 0.000000
vn -1.000000 0.000007 -0.000000
vn -1.000000 0.000007 -0.000000
vn -1.000000 0.000000 -0.000000
vn -1.000000 0.000000 -0.000000
vn 0.000000 -1.000000 0.000000
vn 0.000000 -1.000000 0.000000
vn 0.000000 -1.000000 0.000000
vn 0.000000 -1.000000 0.000000
vn 0.000000 0.000000 -1.000000
vn 0.000000 0.000000 -1.000000
vn 0.000000 0.000000 -1.000000
vn 0.000000 0.000000 -1.000000
vn 0.000000 0.000000 1.000000
vn 0.000000 0.000000 1.000000
vn 0.000000 0.000000 1.000000
vn 0.000000 0.000000 1.000000
vn 1.000000 0.000000 0.000000
vn 1.000000 0.000000 0.000000
vn 0.000000 0.000000 -1.000000
vn 0.000000 0.000000 -1.000000
vn -1.000000 -0.000001 -0.000000
vn -1.000000 -0.000001 -0.000000
vn 0.000000 0.000000 1.000000
vn 0.000000 0.000000 1.000000
vn 0.000000 0.000000 1.000000
vn 0.000000 0.000000 1.000000
vn 0.000000 1.000000 0.000000
vn 0.000000 1.000000 0.000000
vn -1.000000 0.000007 -0.000000
vn -1.000000 0.000007 -0.000000
vn 0.000000 -1.000000 0.000000
vn 0.000000 -1.000000 0.000000
vn 0.000000 -1.000000 0.000000
vn 0.000000 -1.000000 0.000000
vn 1.000000 0.000000 0.000000
vn 1.000000 0.000000 0.000000
s 1
g polySurface58 ConceptHouse1:pPlane21
usemtl initialShadingGroup
f 9/13/1 10/14/2 4/3/3 3/4/4
s 2
f 4/3/5 6/5/6 5/6/7 3/4/8
s 3
f 5/6/9 6/5/10 11/15/11 12/17/12
s off
f 7/8/13 8/7/14 2/9/15 1/10/16
s 4
f 10/14/17 11/16/18 6/12/19 4/3/20
s off
f 13/18/21 14/19/22 15/20/23 16/21/24
s 1
f 1/1/25 2/2/26 10/14/2 9/13/1
s 4
f 8/11/27 11/16/18 10/14/17 2/2/28
s 3
f 12/17/12 11/15/11 8/7/29 7/8/30
s off
f 9/13/31 12/17/32 7/8/33 1/1/34
s 2
f 3/4/8 5/6/7 14/19/35 13/18/36
s 3
f 5/6/9 12/17/12 15/20/37 14/19/38
s off
f 12/17/39 9/13/40 16/21/41 15/20/42
s 1
f 9/13/1 3/4/4 13/18/43 16/21/44
