# This file uses centimeters as units for non-parametric coordinates.

mtllib Oven.mtl
g default
v 1.844607 0.020246 -3.856348
v 1.844607 0.020246 -4.856348
v 1.844607 1.020246 -3.856348
v 1.844607 1.244190 -4.856348
v 0.844607 1.020246 -3.856348
v 0.844607 1.244190 -4.856348
v 0.844607 0.020246 -3.856348
v 0.844607 0.020246 -4.856348
v 1.844607 0.020246 -4.556348
v 0.844607 0.020246 -4.556348
v 0.844607 1.020246 -4.556348
v 1.844607 1.020246 -4.556348
v 1.844607 0.020246 -4.676348
v 1.844607 1.244190 -4.676348
v 0.844607 1.244190 -4.676348
v 0.844607 0.020246 -4.676348
vt 0.550000 0.250000
vt 0.550000 0.000000
vt 0.580000 0.000000
vt 0.580000 0.250000
vt 0.550000 0.500000
vt 0.580000 0.500000
vt 0.550000 0.750000
vt 0.580000 0.750000
vt 0.550000 1.000000
vt 0.580000 1.000000
vt 0.625000 0.000000
vt 0.875000 0.000000
vt 0.875000 0.250000
vt 0.625000 0.250000
vt 0.125000 0.000000
vt 0.375000 0.000000
vt 0.375000 0.250000
vt 0.125000 0.250000
vt 0.375000 0.750000
vt 0.375000 1.000000
vt 0.375000 0.500000
vt 0.625000 0.500000
vt 0.625000 0.750000
vt 0.625000 1.000000
vn 1.000000 0.000000 -0.000000
vn 1.000000 0.000000 -0.000000
vn 1.000000 0.000000 -0.000001
vn 1.000000 0.000000 -0.000000
vn -0.000000 0.472314 0.881431
vn -0.000000 0.472314 0.881431
vn -0.000000 0.472314 0.881431
vn -0.000000 0.472314 0.881431
vn -1.000000 0.000000 0.000001
vn -1.000000 0.000000 0.000001
vn -1.000000 0.000000 0.000001
vn -1.000000 0.000000 0.000001
vn 0.000000 -1.000000 0.000000
vn 0.000000 -1.000000 0.000000
vn 0.000000 -1.000000 0.000000
vn 0.000000 -1.000000 0.000000
vn 0.000000 0.000000 -1.000000
vn 0.000000 0.000000 -1.000000
vn 0.000000 0.000000 -1.000000
vn 0.000000 0.000000 -1.000000
vn -0.000000 0.000000 1.000000
vn -0.000000 0.000000 1.000000
vn -0.000000 0.000000 1.000000
vn -0.000000 0.000000 1.000000
vn 0.000000 -1.000000 0.000000
vn 0.000000 -1.000000 0.000000
vn -1.000000 0.000000 -0.000000
vn -1.000000 0.000000 -0.000000
vn 0.000000 1.000000 0.000000
vn 0.000000 1.000000 0.000000
vn 0.000000 1.000000 0.000000
vn 0.000000 1.000000 0.000000
vn 1.000000 0.000000 0.000000
vn 1.000000 0.000000 0.000000
vn 1.000000 0.000000 0.000000
vn 1.000000 0.000000 0.000000
vn 0.000000 1.000000 0.000000
vn 0.000000 1.000000 0.000000
vn 0.000000 1.000000 0.000000
vn 0.000000 1.000000 0.000000
vn -1.000000 0.000000 -0.000000
vn -1.000000 0.000000 -0.000000
vn 0.000000 -1.000000 0.000000
vn 0.000000 -1.000000 0.000000
s 1
g polySurface59 ConceptHouse1:pPlane21
usemtl initialShadingGroup
f 12/1/1 9/2/2 13/3/3 14/4/4
s off
f 11/5/5 12/1/6 14/4/7 15/6/8
s 2
f 10/7/9 11/5/10 15/6/11 16/8/12
s 3
f 9/9/13 10/7/14 16/8/15 13/10/16
s off
f 2/11/17 8/12/18 6/13/19 4/14/20
f 7/15/21 1/16/22 3/17/23 5/18/24
s 3
f 7/19/25 10/7/14 9/9/13 1/20/26
s 2
f 5/21/27 11/5/10 10/7/9 7/19/28
s off
f 3/17/29 12/1/30 11/5/31 5/21/32
s 1
f 1/16/33 9/2/2 12/1/1 3/17/34
f 14/4/4 13/3/3 2/11/35 4/14/36
s off
f 15/6/37 14/4/38 4/14/39 6/22/40
s 2
f 16/8/12 15/6/11 6/22/41 8/23/42
s 3
f 13/10/16 16/8/15 8/23/43 2/24/44
g default
v -8.000000 0.000000 5.000000
v 8.000000 0.000000 5.000000
v -8.000000 0.067868 5.000000
v 8.000000 0.067868 5.000000
v -8.000000 0.067868 -5.000000
v 8.000000 0.067868 -5.000000
v -8.000000 0.000000 -5.000000
v 8.000000 0.000000 -5.000000
vt 0.375000 0.000000
vt 0.625000 0.000000
vt 0.375000 0.250000
vt 0.625000 0.250000
vt 0.375000 0.500000
vt 0.625000 0.500000
vt 0.375000 0.750000
vt 0.625000 0.750000
vt 0.375000 1.000000
vt 0.625000 1.000000
vt 0.875000 0.000000
vt 0.875000 0.250000
vt 0.125000 0.000000
vt 0.125000 0.250000
vn 0.000000 0.000000 1.000000
vn 0.000000 0.000000 1.000000
vn 0.000000 0.000000 1.000000
vn 0.000000 0.000000 1.000000
vn 0.000000 1.000000 0.000000
vn 0.000000 1.000000 0.000000
vn 0.000000 1.000000 0.000000
vn 0.000000 1.000000 0.000000
vn 0.000000 0.000000 -1.000000
vn 0.000000 0.000000 -1.000000
vn 0.000000 0.000000 -1.000000
vn 0.000000 0.000000 -1.000000
vn 0.000000 -1.000000 0.000000
vn 0.000000 -1.000000 0.000000
vn 0.000000 -1.000000 0.000000
vn 0.000000 -1.000000 0.000000
vn 1.000000 0.000000 0.000000
vn 1.000000 0.000000 0.000000
vn 1.000000 0.000000 0.000000
vn 1.000000 0.000000 0.000000
vn -1.000000 0.000000 0.000000
vn -1.000000 0.000000 0.000000
vn -1.000000 0.000000 0.000000
vn -1.000000 0.000000 0.000000
s off
g pCube1
usemtl initialShadingGroup
f 17/25/45 18/26/46 20/28/47 19/27/48
f 19/27/49 20/28/50 22/30/51 21/29/52
f 21/29/53 22/30/54 24/32/55 23/31/56
f 23/31/57 24/32/58 18/34/59 17/33/60
f 18/26/61 24/35/62 22/36/63 20/28/64
f 23/37/65 17/25/66 19/27/67 21/38/68
