# This file uses centimeters as units for non-parametric coordinates.

mtllib Table.mtl
g default
v -1.388461 0.729711 0.500000
v 1.388461 0.729711 0.500000
v -1.388461 0.941447 0.500000
v 1.388461 0.941447 0.500000
v -1.388461 0.941447 -0.500000
v 1.388461 0.941447 -0.500000
v -1.388461 0.729711 -0.500000
v 1.388461 0.729711 -0.500000
v -1.388461 0.941447 0.350000
v 1.388461 0.941447 0.350000
v 1.388461 0.729711 0.350000
v -1.388461 0.729711 0.350000
v -1.388461 0.729711 -0.350000
v 1.388461 0.729711 -0.350000
v 1.388461 0.941447 -0.350000
v -1.388461 0.941447 -0.350000
v 1.249615 0.729711 0.350000
v 1.249615 0.729711 0.500000
v 1.249615 0.941447 0.500000
v 1.249615 0.941447 0.350000
v 1.249615 0.941447 -0.350000
v 1.249615 0.941447 -0.500000
v 1.249615 0.729711 -0.500000
v 1.249615 0.729711 -0.350000
v -1.249615 0.729711 0.500000
v -1.249615 0.729711 0.350000
v -1.249615 0.729711 -0.350000
v -1.249615 0.729711 -0.500000
v -1.249615 0.941447 -0.500000
v -1.249615 0.941447 -0.350000
v -1.249615 0.941447 0.350000
v -1.249615 0.941447 0.500000
v 1.249615 -0.000000 0.350000
v 1.249615 -0.000000 0.500000
v 1.388461 -0.000000 0.350000
v 1.388461 -0.000000 0.500000
v 1.249615 -0.000000 -0.500000
v 1.249615 -0.000000 -0.350000
v 1.388461 -0.000000 -0.500000
v 1.388461 -0.000000 -0.350000
v -1.249615 -0.000000 0.350000
v -1.388461 -0.000000 0.350000
v -1.249615 -0.000000 0.500000
v -1.388461 -0.000000 0.500000
v -1.388461 -0.000000 -0.500000
v -1.249615 -0.000000 -0.500000
v -1.249615 -0.000000 -0.350000
v -1.388461 -0.000000 -0.350000
v -1.388461 0.835579 0.500000
v -1.249615 0.835579 0.500000
v 1.249615 0.835579 0.500000
v 1.388461 0.835579 0.500000
v 1.388461 0.835579 0.350000
v 1.388461 0.835579 -0.350000
v 1.388461 0.835579 -0.500000
v 1.249615 0.835579 -0.500000
v -1.249615 0.835579 -0.500000
v -1.388461 0.835579 -0.500000
v -1.388461 0.835579 -0.350000
v -1.388461 0.835579 0.350000
v -1.249615 0.835579 0.606952
v 1.249615 0.835579 0.606952
v 1.249615 0.941447 0.606952
v -1.249615 0.941447 0.606952
v 1.249615 0.941447 -0.606952
v 1.249615 0.835579 -0.606952
v -1.249615 0.835579 -0.606952
v -1.249615 0.941447 -0.606952
v 1.495414 0.835579 0.350000
v 1.495414 0.835579 -0.350000
v 1.495414 0.941447 -0.350000
v 1.495414 0.941447 0.350000
v -1.495414 0.941447 -0.350000
v -1.495414 0.835579 -0.350000
v -1.495414 0.835579 0.350000
v -1.495414 0.941447 0.350000
v 1.441938 0.835579 0.553476
v 1.441938 0.941447 0.553476
v -1.441938 0.835579 0.553476
v -1.441938 0.941447 0.553476
v 1.441938 0.835579 -0.553476
v 1.441938 0.941447 -0.553476
v -1.441938 0.835579 -0.553476
v -1.441938 0.941447 -0.553476
vt 0.861465 0.757455
vt 0.147529 0.766850
vt 0.148678 0.736854
vt 0.859467 0.727602
vt 0.147251 0.664201
vt 0.144230 0.464915
vt 0.856882 0.455763
vt 0.858940 0.654889
vt 0.143756 0.392262
vt 0.141775 0.362318
vt 0.856691 0.353250
vt 0.855764 0.383141
vt 0.742955 0.310253
vt 0.502618 0.310780
vt 0.984623 0.309945
vt 0.255773 0.310740
vt 0.049450 0.667567
vt 0.046320 0.464820
vt 0.075955 0.466118
vt 0.078772 0.665238
vt 0.925189 0.455330
vt 0.954788 0.453247
vt 0.956637 0.655681
vt 0.927282 0.654165
vt 0.147637 0.706702
vt 0.859684 0.697375
vt 0.090434 0.759813
vt 0.091240 0.726137
vt 0.081986 0.310740
vt 0.311751 0.977150
vt 0.918324 0.748897
vt 0.916614 0.715301
vt 0.703242 0.814631
vt 0.328783 0.310780
vt 0.084726 0.370896
vt 0.086251 0.404599
vt 0.143552 0.422478
vt 0.856604 0.413309
vt 0.914967 0.360448
vt 0.913029 0.394212
vt 0.081986 0.014231
vt 0.255773 0.014231
vt 0.199355 0.014231
vt 0.138404 0.014231
vt 0.107190 0.709407
vt 0.108483 0.665300
vt 0.105508 0.465129
vt 0.102711 0.420790
vt 0.984623 0.013317
vt 0.923647 0.013317
vt 0.867206 0.013317
vt 0.806231 0.013317
vt 0.806231 0.309945
vt 0.726300 0.947981
vt 0.564601 0.013687
vt 0.742955 0.013687
vt 0.681992 0.013687
vt 0.625563 0.013687
vt 0.564601 0.310253
vt 0.287308 0.843548
vt 0.385217 0.014190
vt 0.328783 0.014190
vt 0.502618 0.014190
vt 0.446184 0.014190
vt 0.895491 0.455078
vt 0.897126 0.410751
vt 0.897748 0.655004
vt 0.900192 0.699034
vt 0.138404 0.310740
vt 0.721052 0.818089
vt 0.625563 0.310253
vt 0.290656 0.822616
vt 0.865429 0.787418
vt 0.907955 0.770792
vt 0.144343 0.797160
vt 0.036860 0.717526
vt 0.020122 0.671981
vt 0.016177 0.461380
vt 0.095198 0.348973
vt 0.137845 0.332352
vt 0.859971 0.322950
vt 0.967633 0.403377
vt 0.984150 0.449101
vt 0.986754 0.659369
vt 0.273258 0.957637
vt 0.285064 0.984314
vt 0.270769 0.841469
vt 0.279720 0.814118
vt 0.306310 0.802848
vt 0.705635 0.797944
vt 0.730415 0.808796
vt 0.741414 0.834827
vt 0.742821 0.950127
vt 0.734049 0.977247
vt 0.707617 0.988603
vt 0.309609 0.993546
vt 0.946183 0.392720
vt 0.903653 0.338748
vt 0.053110 0.403984
vt 0.031917 0.415204
vt 0.949607 0.716280
vt 0.970807 0.705285
vt 0.058301 0.727967
vt 0.101387 0.781466
vt 0.309224 0.843057
vt 0.308931 0.819359
vt 0.681992 0.310253
vt 0.311868 0.953398
vt 0.289720 0.954348
vt 0.923647 0.309945
vt 0.702896 0.838335
vt 0.704390 0.948295
vt 0.704798 0.971952
vt 0.724928 0.837612
vt 0.867206 0.309945
vt 0.723048 0.968787
vt 0.446184 0.310780
vt 0.199355 0.310740
vt 0.293924 0.973182
vt 0.385217 0.310780
vt 0.267816 0.310780
vt 0.267816 0.014190
vt 0.508172 0.310253
vt 0.508172 0.013687
vt 0.749790 0.309945
vt 0.749790 0.013317
vt 0.021036 0.310740
vt 0.021036 0.014231
vn -0.019864 0.000000 0.999803
vn 0.019864 0.000000 0.999803
vn 0.019864 0.000000 0.999803
vn -0.019864 0.000000 0.999803
vn 0.000000 1.000000 0.000000
vn 0.000000 1.000000 0.000000
vn 0.000000 1.000000 0.000000
vn 0.000000 1.000000 0.000000
vn 0.019864 0.000000 -0.999803
vn 0.019864 0.000000 -0.999803
vn -0.019864 0.000000 -0.999803
vn -0.019864 0.000000 -0.999803
vn 0.000000 -1.000000 0.000000
vn 0.000000 -1.000000 0.000000
vn 0.000000 -1.000000 0.000000
vn 0.000000 -1.000000 0.000000
vn 0.998253 0.000000 0.059086
vn 0.998253 0.000000 -0.059086
vn 0.998253 0.000000 -0.059086
vn 0.998253 0.000000 0.059086
vn -0.998253 0.000000 -0.059086
vn -0.998253 0.000000 -0.059086
vn -0.998253 0.000000 0.059086
vn -0.998253 0.000000 0.059086
vn 0.000000 1.000000 0.000000
vn 0.000000 1.000000 0.000000
vn 0.967157 0.000000 0.254181
vn 0.967157 0.000000 0.254181
vn 0.000000 -1.000000 0.000000
vn 0.000000 -1.000000 0.000000
vn -0.967157 0.000000 0.254181
vn -0.967157 0.000000 0.254181
vn 0.000000 -1.000000 0.000000
vn 0.000000 -1.000000 0.000000
vn 0.967157 0.000000 -0.254181
vn 0.967157 0.000000 -0.254181
vn 0.000000 1.000000 0.000000
vn 0.000000 1.000000 0.000000
vn -0.967157 0.000000 -0.254181
vn -0.967157 0.000000 -0.254181
vn 0.267892 0.000000 0.963449
vn 0.267892 0.000000 0.963449
vn 0.000000 1.000000 0.000000
vn 0.000000 1.000000 0.000000
vn 0.000000 1.000000 0.000000
vn 0.000000 1.000000 0.000000
vn 0.267892 0.000000 -0.963449
vn 0.267892 0.000000 -0.963449
vn 0.000000 -1.000000 0.000000
vn 0.000000 -1.000000 0.000000
vn 0.000000 -1.000000 0.000000
vn 0.000000 -1.000000 0.000000
vn -0.267892 0.000000 -0.963449
vn -0.267892 0.000000 -0.963449
vn 0.000000 1.000000 0.000000
vn 0.000000 1.000000 0.000000
vn 0.000000 1.000000 0.000000
vn 0.000000 1.000000 0.000000
vn -0.267892 0.000000 0.963449
vn -0.267892 0.000000 0.963449
vn -1.000000 0.000000 0.000000
vn -1.000000 0.000000 0.000000
vn -1.000000 0.000000 0.000000
vn -1.000000 0.000000 0.000000
vn 0.000000 0.000000 -1.000000
vn 0.000000 0.000000 -1.000000
vn 0.000000 0.000000 -1.000000
vn 0.000000 0.000000 -1.000000
vn 1.000000 0.000000 0.000000
vn 1.000000 0.000000 0.000000
vn 1.000000 0.000000 0.000000
vn 1.000000 0.000000 0.000000
vn 0.000000 0.000000 1.000000
vn 0.000000 0.000000 1.000000
vn 0.000000 0.000000 1.000000
vn 0.000000 0.000000 1.000000
vn -1.000000 0.000000 0.000000
vn -1.000000 0.000000 0.000000
vn -1.000000 0.000000 0.000000
vn -1.000000 0.000000 0.000000
vn 0.000000 0.000000 -1.000000
vn 0.000000 0.000000 -1.000000
vn 0.000000 0.000000 -1.000000
vn 0.000000 0.000000 -1.000000
vn 1.000000 0.000000 0.000000
vn 1.000000 0.000000 0.000000
vn 1.000000 0.000000 0.000000
vn 1.000000 0.000000 0.000000
vn 0.000000 0.000000 1.000000
vn 0.000000 0.000000 1.000000
vn 0.000000 0.000000 1.000000
vn 0.000000 0.000000 1.000000
vn 0.000000 0.000000 -1.000000
vn 0.000000 0.000000 -1.000000
vn 0.000000 0.000000 -1.000000
vn 0.000000 0.000000 -1.000000
vn 1.000000 0.000000 0.000000
vn 1.000000 0.000000 0.000000
vn 1.000000 0.000000 0.000000
vn 1.000000 0.000000 0.000000
vn 0.000000 0.000000 1.000000
vn 0.000000 0.000000 1.000000
vn 0.000000 0.000000 1.000000
vn 0.000000 0.000000 1.000000
vn -1.000000 0.000000 0.000000
vn -1.000000 0.000000 0.000000
vn -1.000000 0.000000 0.000000
vn -1.000000 0.000000 0.000000
vn 0.000000 0.000000 -1.000000
vn 0.000000 0.000000 -1.000000
vn 0.000000 0.000000 -1.000000
vn 0.000000 0.000000 -1.000000
vn 1.000000 0.000000 0.000000
vn 1.000000 0.000000 0.000000
vn 1.000000 0.000000 0.000000
vn 1.000000 0.000000 0.000000
vn 0.000000 0.000000 1.000000
vn 0.000000 0.000000 1.000000
vn 0.000000 0.000000 1.000000
vn 0.000000 0.000000 1.000000
vn -1.000000 0.000000 0.000000
vn -1.000000 0.000000 0.000000
vn -1.000000 0.000000 0.000000
vn -1.000000 0.000000 0.000000
vn 0.000000 0.000000 1.000000
vn 0.000000 0.000000 1.000000
vn 0.000000 0.000000 1.000000
vn 0.000000 0.000000 1.000000
vn 1.000000 0.000000 0.000000
vn 1.000000 0.000000 0.000000
vn 1.000000 0.000000 0.000000
vn 1.000000 0.000000 0.000000
vn 0.000000 0.000000 -1.000000
vn 0.000000 0.000000 -1.000000
vn 0.000000 0.000000 -1.000000
vn 0.000000 0.000000 -1.000000
vn -1.000000 0.000000 0.000000
vn -1.000000 0.000000 0.000000
vn -1.000000 0.000000 0.000000
vn -1.000000 0.000000 0.000000
vn 0.000000 -1.000000 0.000000
vn 0.000000 -1.000000 0.000000
vn 0.000000 -1.000000 0.000000
vn 0.000000 -1.000000 0.000000
vn 0.000000 1.000000 0.000000
vn 0.000000 1.000000 0.000000
vn 0.000000 -1.000000 0.000000
vn 0.000000 -1.000000 0.000000
vn 0.000000 -1.000000 0.000000
vn 0.000000 -1.000000 0.000000
vn 0.000000 1.000000 0.000000
vn 0.000000 1.000000 0.000000
vn 0.000000 -1.000000 0.000000
vn 0.000000 -1.000000 0.000000
vn 0.000000 -1.000000 0.000000
vn 0.000000 -1.000000 0.000000
vn 0.000000 1.000000 0.000000
vn 0.000000 1.000000 0.000000
vn 0.000000 -1.000000 0.000000
vn 0.000000 -1.000000 0.000000
vn 0.000000 -1.000000 0.000000
vn 0.000000 -1.000000 0.000000
vn 0.000000 1.000000 0.000000
vn 0.000000 1.000000 0.000000
vn 0.000000 -1.000000 0.000000
vn 0.000000 -1.000000 0.000000
vn 0.000000 1.000000 0.000000
vn 0.000000 -1.000000 0.000000
vn 0.000000 -1.000000 0.000000
vn 0.000000 1.000000 0.000000
vn 0.000000 -1.000000 0.000000
vn 0.000000 -1.000000 0.000000
vn 0.000000 1.000000 0.000000
vn 0.000000 -1.000000 0.000000
vn 0.000000 -1.000000 0.000000
vn 0.000000 1.000000 0.000000
s 1
g pCube7
usemtl initialShadingGroup
f 61/1/1 62/2/2 63/3/3 64/4/4
s 2
f 20/5/5 21/6/6 30/7/7 31/8/8
s 3
f 65/9/9 66/10/10 67/11/11 68/12/12
s 4
f 26/108/13 27/105/14 24/111/15 17/112/16
s 5
f 69/17/17 70/18/18 71/19/19 72/20/20
s 6
f 73/21/21 74/22/22 75/23/23 76/24/24
s 2
f 19/25/25 20/5/5 31/8/8 32/26/26
s 5
f 77/103/27 69/17/17 72/20/20 78/28/28
s 4
f 26/108/13 17/112/16 18/113/29 25/30/30
s 6
f 76/24/24 75/23/23 79/101/31 80/32/32
s 4
f 23/33/33 24/111/15 27/105/14 28/106/34
s 5
f 71/19/19 70/18/18 81/99/35 82/36/36
s 2
f 30/7/7 21/6/6 22/37/37 29/38/38
s 6
f 83/97/39 74/22/22 73/21/21 84/40/40
s 1
f 63/3/3 62/2/2 77/27/41 78/28/42
s 2
f 20/5/5 19/25/25 4/45/43 10/46/44
f 15/47/45 21/6/6 20/5/5 10/46/44
f 22/37/37 21/6/6 15/47/45 6/48/46
s 3
f 81/35/47 66/10/10 65/9/9 82/36/48
s 4
f 17/112/16 24/111/15 14/114/49 11/54/50
f 12/109/51 13/60/52 27/105/14 26/108/13
s 3
f 84/40/53 68/12/12 67/11/11 83/39/54
s 2
f 16/65/55 30/7/7 29/38/38 5/66/56
f 30/7/7 16/65/55 9/67/57 31/8/8
f 3/68/58 32/26/26 31/8/8 9/67/57
s 1
f 79/31/59 61/1/1 64/4/4 80/32/60
s off
f 18/29/61 17/127/62 33/128/63 34/41/64
f 17/16/65 11/118/66 35/43/67 33/42/68
s 7
f 11/118/69 2/69/70 36/44/71 35/43/72
s 8
f 2/69/73 18/29/74 34/41/75 36/44/76
s off
f 24/15/77 23/110/78 37/50/79 38/49/80
s 9
f 23/110/81 8/115/82 39/51/83 37/50/84
s 7
f 8/115/85 14/53/86 40/52/87 39/51/88
s off
f 14/53/89 24/125/90 38/126/91 40/52/92
f 12/59/93 26/123/94 41/124/95 42/55/96
f 26/13/97 25/107/98 43/57/99 41/56/100
s 8
f 25/107/101 1/71/102 44/58/103 43/57/104
s 12
f 1/71/105 12/59/106 42/55/107 44/58/108
s 9
f 7/120/109 28/34/110 46/62/111 45/61/112
s off
f 28/34/113 27/121/114 47/122/115 46/62/116
f 27/14/117 13/117/118 48/64/119 47/63/120
s 12
f 13/117/121 7/120/122 45/61/123 48/64/124
s 8
f 1/119/102 25/30/101 50/96/125 49/86/126
f 18/113/74 51/95/127 50/96/125 25/30/101
f 52/94/128 51/95/127 18/113/74 2/116/73
s 7
f 2/116/70 11/54/69 53/93/129 52/94/130
f 11/54/69 14/114/86 54/92/131 53/93/129
f 55/91/132 54/92/131 14/114/86 8/70/85
s 9
f 23/33/81 56/90/133 55/91/134 8/70/82
f 57/89/135 56/90/133 23/33/81 28/106/110
f 58/88/136 57/89/135 28/106/110 7/72/109
s 12
f 7/72/122 13/60/121 59/87/137 58/88/138
f 60/85/139 59/87/137 13/60/121 12/109/106
f 49/86/140 60/85/139 12/109/106 1/119/105
s 15
f 50/73/141 51/75/142 62/2/143 61/1/144
s 2
f 19/25/25 32/26/26 64/4/145 63/3/146
s 15
f 56/80/147 57/81/148 67/11/149 66/10/150
s 2
f 29/38/38 22/37/37 65/9/151 68/12/152
s 15
f 53/77/153 54/78/154 70/18/155 69/17/156
s 2
f 15/47/45 10/46/44 72/20/157 71/19/158
s 15
f 59/83/159 60/84/160 75/23/161 74/22/162
s 2
f 9/67/57 16/65/55 73/21/163 76/24/164
s 15
f 52/76/165 53/77/153 69/17/156 77/103/166
s 2
f 10/46/44 4/45/43 78/28/167 72/20/157
s 15
f 60/84/160 49/102/168 79/101/169 75/23/161
s 2
f 3/68/58 9/67/57 76/24/164 80/32/170
s 15
f 54/78/154 55/100/171 81/99/172 70/18/155
s 2
f 6/48/46 15/47/45 71/19/158 82/36/173
s 15
f 58/82/174 59/83/159 74/22/162 83/97/175
s 2
f 16/65/55 5/66/56 84/40/176 73/21/163
s 15
f 51/75/142 52/104/165 77/27/166 62/2/143
s 2
f 4/45/43 19/25/25 63/3/146 78/28/167
s 15
f 55/79/171 56/80/147 66/10/150 81/35/172
s 2
f 22/37/37 6/48/46 82/36/173 65/9/151
f 5/66/56 29/38/38 68/12/152 84/40/176
s 15
f 57/81/148 58/98/174 83/39/175 67/11/149
f 49/74/168 50/73/141 61/1/144 79/31/169
s 2
f 32/26/26 3/68/58 80/32/170 64/4/145
