# This file uses centimeters as units for non-parametric coordinates.

mtllib ToiletBrush.mtl
g default
v 0.133625 0.002453 -0.133625
v 0.000000 0.002453 -0.188974
v -0.133625 0.002453 -0.133625
v -0.188974 0.002453 0.000000
v -0.133625 0.002453 0.133625
v 0.000000 0.002453 0.188974
v 0.133625 0.002453 0.133625
v 0.188974 0.002453 0.000000
v 0.069355 0.367137 -0.069355
v 0.000000 0.367137 -0.098082
v -0.069355 0.367137 -0.069355
v -0.098082 0.367137 0.000000
v -0.069355 0.367137 0.069355
v 0.000000 0.367137 0.098082
v 0.069355 0.367137 0.069355
v 0.098082 0.367137 0.000000
v 0.047260 0.367137 -0.047260
v 0.000000 0.367137 -0.066836
v -0.047260 0.367137 -0.047260
v -0.066836 0.367137 0.000000
v -0.047260 0.367137 0.047260
v 0.000000 0.367137 0.066836
v 0.047260 0.367137 0.047260
v 0.066836 0.367137 0.000000
v 0.047260 0.718236 -0.047260
v 0.000000 0.718236 -0.066836
v -0.047260 0.718236 -0.047260
v -0.066836 0.718236 0.000000
v -0.047260 0.718236 0.047260
v 0.000000 0.718236 0.066836
v 0.047260 0.718236 0.047260
v 0.066836 0.718236 0.000000
v 0.055974 0.986899 -0.055974
v 0.000000 0.986899 -0.079159
v 0.000000 0.986899 0.000000
v -0.055974 0.986899 -0.055974
v -0.079160 0.986899 0.000000
v -0.055974 0.986899 0.055974
v 0.000000 0.986899 0.079159
v 0.055974 0.986899 0.055974
v 0.079159 0.986899 0.000000
v 0.058322 0.717519 -0.058322
v 0.000000 0.717519 -0.082479
v 0.000000 0.986181 -0.094803
v 0.067036 0.986181 -0.067036
v -0.058322 0.717519 -0.058322
v -0.067036 0.986181 -0.067035
v -0.082479 0.717519 0.000000
v -0.094803 0.986181 0.000000
v -0.058322 0.717519 0.058321
v -0.067036 0.986181 0.067035
v 0.000000 0.717519 0.082479
v 0.000000 0.986181 0.094803
v 0.058322 0.717519 0.058322
v 0.067036 0.986181 0.067035
v 0.082479 0.717519 0.000000
v 0.094803 0.986181 0.000000
vt 0.038837 0.309753
vt 0.113559 0.203437
vt 0.353286 0.422257
vt 0.324280 0.482276
vt 0.213503 0.111702
vt 0.397591 0.377813
vt 0.335241 0.045828
vt 0.451081 0.348303
vt 0.470853 0.012114
vt 0.509779 0.334194
vt 0.610946 0.013435
vt 0.569924 0.336040
vt 0.745726 0.049560
vt 0.627564 0.354134
vt 0.865787 0.117066
vt 0.678217 0.388591
vt 0.963340 0.208810
vt 0.578602 0.476402
vt 0.674616 0.544217
vt 0.544749 0.626208
vt 0.694556 0.660061
vt 0.626742 0.756077
vt 0.510896 0.776015
vt 0.414883 0.708200
vt 0.394943 0.592355
vt 0.462758 0.496342
vt 0.986750 0.570918
vt 0.986720 0.533262
vt 0.986779 0.608574
vt 0.986809 0.646230
vt 0.986838 0.683886
vt 0.986868 0.721542
vt 0.986897 0.759198
vt 0.986927 0.796853
vt 0.344803 0.559426
vt 0.367233 0.517277
vt 0.331152 0.608030
vt 0.323507 0.658365
vt 0.321077 0.709299
vt 0.323609 0.760307
vt 0.331218 0.810922
vt 0.344691 0.860205
vt 0.358265 0.917212
vt 0.333336 0.553137
vt 0.700310 0.527993
vt 0.585299 0.446761
vt 0.318469 0.604396
vt 0.724195 0.666759
vt 0.310409 0.656432
vt 0.642964 0.781769
vt 0.307839 0.708787
vt 0.504202 0.805654
vt 0.310403 0.761241
vt 0.389189 0.724424
vt 0.318274 0.813652
vt 0.365304 0.585658
vt 0.332632 0.865914
vt 0.446534 0.470648
vt 0.355771 0.480672
vt 0.658279 0.405137
vt 0.614811 0.377130
vt 0.564326 0.361995
vt 0.511356 0.360760
vt 0.459760 0.373416
vt 0.413253 0.399131
vt 0.376034 0.436124
vt 0.685964 0.443357
vt 0.716143 0.439197
vt 0.728266 0.533465
vt 0.728473 0.797056
vt 0.728443 0.759400
vt 0.728413 0.721744
vt 0.728384 0.684089
vt 0.728354 0.646433
vt 0.728325 0.608777
vt 0.728296 0.571121
vt 0.114007 0.430453
vt 0.097300 0.922844
vt 0.080528 0.854280
vt 0.069669 0.783191
vt 0.065471 0.710846
vt 0.068095 0.638317
vt 0.077442 0.566631
vt 0.093119 0.496902
vt 0.728502 0.834712
vt 0.986956 0.834509
vt 0.358699 0.504277
vt 0.367291 0.904003
vt 0.116942 0.987113
vn 0.372924 0.224391 -0.900320
vn 0.372924 0.224391 -0.900320
vn 0.372924 0.224391 -0.900320
vn 0.372924 0.224391 -0.900320
vn -0.372924 0.224391 -0.900320
vn -0.372924 0.224391 -0.900320
vn -0.900320 0.224391 -0.372925
vn -0.900320 0.224391 -0.372925
vn -0.900320 0.224391 0.372925
vn -0.900320 0.224391 0.372925
vn -0.372925 0.224391 0.900320
vn -0.372925 0.224391 0.900320
vn 0.372924 0.224391 0.900320
vn 0.372924 0.224391 0.900320
vn 0.900320 0.224391 0.372925
vn 0.900320 0.224391 0.372925
vn 0.013615 0.999815 -0.013616
vn -0.000000 0.999815 -0.019255
vn 0.000000 1.000000 0.000000
vn -0.000000 0.999815 -0.019255
vn -0.013615 0.999815 -0.013615
vn 0.000000 1.000000 0.000000
vn -0.013615 0.999815 -0.013615
vn -0.019255 0.999815 -0.000001
vn 0.000000 1.000000 0.000000
vn -0.019255 0.999815 -0.000001
vn -0.013615 0.999815 0.013616
vn 0.000000 1.000000 0.000000
vn -0.013615 0.999815 0.013616
vn 0.000000 0.999815 0.019257
vn 0.000000 1.000000 0.000000
vn 0.000000 0.999815 0.019257
vn 0.013615 0.999815 0.013617
vn 0.000000 1.000000 0.000000
vn 0.013615 0.999815 0.013617
vn 0.019255 0.999815 0.000000
vn 0.000000 1.000000 0.000000
vn 0.019255 0.999815 0.000000
vn 0.013615 0.999815 -0.013616
vn 0.000000 1.000000 0.000000
vn 0.000000 1.000000 0.000000
vn 0.000000 1.000000 0.000000
vn 0.000000 1.000000 0.000000
vn 0.000000 1.000000 0.000000
vn 0.000000 1.000000 0.000000
vn 0.000000 1.000000 0.000000
vn 0.000000 1.000000 0.000000
vn 0.000000 1.000000 0.000000
vn 0.000000 1.000000 0.000000
vn 0.000001 1.000000 0.000000
vn 0.000001 1.000000 0.000000
vn 0.000000 1.000000 0.000000
vn 0.000001 1.000000 0.000000
vn 0.000000 1.000000 0.000000
vn 0.000000 1.000000 0.000000
vn 0.000001 1.000000 0.000000
vn 0.000000 1.000000 0.000000
vn 0.000000 1.000000 0.000000
vn 0.000000 1.000000 0.000000
vn 0.000000 1.000000 0.000000
vn 0.000000 1.000000 0.000000
vn 0.000000 1.000000 0.000000
vn 0.000000 1.000000 0.000000
vn 0.000000 1.000000 0.000000
vn 0.000000 1.000000 0.000000
vn 0.000000 1.000000 0.000000
vn 0.000000 1.000000 0.000000
vn 0.000000 1.000000 0.000000
vn 0.000000 1.000000 0.000000
vn 0.000000 1.000000 0.000000
vn 0.000000 1.000000 0.000000
vn 0.000000 1.000000 0.000000
vn 0.382683 0.000000 -0.923880
vn 0.382683 0.000000 -0.923880
vn 0.382683 0.000000 -0.923880
vn 0.382683 0.000000 -0.923880
vn -0.382682 0.000000 -0.923880
vn -0.382682 0.000000 -0.923880
vn -0.923879 -0.000001 -0.382684
vn -0.923879 -0.000001 -0.382684
vn -0.923879 0.000000 0.382684
vn -0.923879 0.000000 0.382684
vn -0.382684 0.000000 0.923879
vn -0.382684 0.000000 0.923879
vn 0.382684 0.000000 0.923879
vn 0.382684 0.000000 0.923879
vn 0.923880 0.000000 0.382683
vn 0.923880 0.000000 0.382683
vn 0.382339 -0.042341 -0.923052
vn 0.382339 -0.042341 -0.923052
vn 0.382339 -0.042341 -0.923052
vn 0.382339 -0.042341 -0.923052
vn -0.382341 -0.042339 -0.923051
vn -0.382341 -0.042339 -0.923051
vn -0.923050 -0.042340 -0.382342
vn -0.923050 -0.042340 -0.382342
vn -0.923050 -0.042340 0.382342
vn -0.923050 -0.042340 0.382342
vn -0.382341 -0.042340 0.923051
vn -0.382341 -0.042340 0.923051
vn 0.382342 -0.042340 0.923050
vn 0.382342 -0.042340 0.923050
vn 0.923051 -0.042340 0.382341
vn 0.923051 -0.042340 0.382341
vn -0.032402 -0.998950 0.032403
vn 0.000000 -0.998950 0.045824
vn 0.000000 -0.998950 0.045824
vn -0.032402 -0.998950 0.032403
vn -0.000000 0.999815 -0.019255
vn 0.013615 0.999815 -0.013616
vn 0.032402 0.998950 -0.032401
vn -0.000000 0.998950 -0.045823
vn 0.000000 -0.998950 0.045824
vn 0.032402 -0.998950 0.032404
vn 0.032402 -0.998950 0.032404
vn 0.000000 -0.998950 0.045824
vn -0.013615 0.999815 -0.013615
vn -0.000000 0.999815 -0.019255
vn -0.000000 0.998950 -0.045823
vn -0.032402 0.998950 -0.032402
vn 0.032402 -0.998950 0.032404
vn 0.045824 -0.998950 0.000001
vn 0.045824 -0.998950 0.000001
vn 0.032402 -0.998950 0.032404
vn -0.019255 0.999815 -0.000001
vn -0.013615 0.999815 -0.013615
vn -0.032402 0.998950 -0.032402
vn -0.045824 0.998950 -0.000000
vn 0.045824 -0.998950 0.000001
vn 0.032402 -0.998950 -0.032400
vn 0.032402 -0.998950 -0.032400
vn 0.045824 -0.998950 0.000001
vn -0.013615 0.999815 0.013616
vn -0.019255 0.999815 -0.000001
vn -0.045824 0.998950 -0.000000
vn -0.032402 0.998949 0.032404
vn 0.032402 -0.998950 -0.032400
vn 0.000000 -0.998950 -0.045823
vn 0.000000 -0.998950 -0.045823
vn 0.032402 -0.998950 -0.032400
vn 0.000000 0.999815 0.019257
vn -0.013615 0.999815 0.013616
vn -0.032402 0.998949 0.032404
vn 0.000000 0.998949 0.045826
vn 0.000000 -0.998950 -0.045823
vn -0.032402 -0.998950 -0.032403
vn -0.032402 -0.998950 -0.032403
vn 0.000000 -0.998950 -0.045823
vn 0.013615 0.999815 0.013617
vn 0.000000 0.999815 0.019257
vn 0.000000 0.998949 0.045826
vn 0.032402 0.998950 0.032403
vn -0.032402 -0.998950 -0.032403
vn -0.045824 -0.998950 0.000000
vn -0.045824 -0.998950 0.000000
vn -0.032402 -0.998950 -0.032403
vn 0.019255 0.999815 0.000000
vn 0.013615 0.999815 0.013617
vn 0.032402 0.998950 0.032403
vn 0.045824 0.998950 0.000001
vn -0.045824 -0.998950 0.000000
vn -0.032402 -0.998950 0.032403
vn -0.032402 -0.998950 0.032403
vn -0.045824 -0.998950 0.000000
vn 0.013615 0.999815 -0.013616
vn 0.019255 0.999815 0.000000
vn 0.045824 0.998950 0.000001
vn 0.032402 0.998950 -0.032401
s 1
g ToiletBrush:pCylinder9
usemtl initialShadingGroup
f 1/1/1 2/2/2 10/3/3 9/4/4
f 2/2/2 3/5/5 11/6/6 10/3/3
f 3/5/5 4/7/7 12/8/8 11/6/6
f 4/7/7 5/9/9 13/10/10 12/8/8
f 5/9/9 6/11/11 14/12/12 13/10/10
f 6/11/11 7/13/13 15/14/14 14/12/12
f 7/13/13 8/15/15 16/16/16 15/14/14
f 8/15/15 1/17/1 9/68/4 16/16/16
s off
f 33/18/17 34/19/18 35/20/19
f 34/19/20 36/21/21 35/20/22
f 36/21/23 37/22/24 35/20/25
f 37/22/26 38/23/27 35/20/28
f 38/23/29 39/24/30 35/20/31
f 39/24/32 40/25/33 35/20/34
f 40/25/35 41/26/36 35/20/37
f 41/26/38 33/18/39 35/20/40
f 9/4/41 10/3/42 18/66/43 17/59/44
f 10/3/45 11/6/46 19/65/47 18/66/48
f 11/6/49 12/8/50 20/64/51 19/65/52
f 12/8/53 13/10/54 21/63/55 20/64/56
f 13/10/57 14/12/58 22/62/59 21/63/60
f 14/12/61 15/14/62 23/61/63 22/62/64
f 15/14/65 16/16/66 24/60/67 23/61/68
f 16/16/69 9/68/70 17/67/71 24/60/72
s 2
f 17/28/73 18/27/74 26/76/75 25/69/76
f 18/27/74 19/29/77 27/75/78 26/76/75
f 19/29/77 20/30/79 28/74/80 27/75/78
f 20/30/79 21/31/81 29/73/82 28/74/80
f 21/31/81 22/32/83 30/72/84 29/73/82
f 22/32/83 23/33/85 31/71/86 30/72/84
f 23/33/85 24/34/87 32/70/88 31/71/86
f 24/34/87 17/86/73 25/85/76 32/70/88
s 3
f 42/87/89 43/44/90 44/84/91 45/77/92
f 43/44/90 46/47/93 47/83/94 44/84/91
f 46/47/93 48/49/95 49/82/96 47/83/94
f 48/49/95 50/51/97 51/81/98 49/82/96
f 50/51/97 52/53/99 53/80/100 51/81/98
f 52/53/99 54/55/101 55/79/102 53/80/100
f 54/55/101 56/57/103 57/78/104 55/79/102
f 56/57/103 42/43/89 45/89/92 57/78/104
s off
f 25/36/105 26/35/106 43/44/107 42/87/108
f 34/19/109 33/18/110 45/46/111 44/45/112
f 26/35/113 27/37/114 46/47/115 43/44/116
f 36/21/117 34/19/118 44/45/119 47/48/120
f 27/37/121 28/38/122 48/49/123 46/47/124
f 37/22/125 36/21/126 47/48/127 49/50/128
f 28/38/129 29/39/130 50/51/131 48/49/132
f 38/23/133 37/22/134 49/50/135 51/52/136
f 29/39/137 30/40/138 52/53/139 50/51/140
f 39/24/141 38/23/142 51/52/143 53/54/144
f 30/40/145 31/41/146 54/55/147 52/53/148
f 40/25/149 39/24/150 53/54/151 55/56/152
f 31/41/153 32/42/154 56/57/155 54/55/156
f 41/26/157 40/25/158 55/56/159 57/58/160
f 32/42/161 25/88/162 42/43/163 56/57/164
f 33/18/165 41/26/166 57/58/167 45/46/168
