# This file uses centimeters as units for non-parametric coordinates.

mtllib IronOld.mtl
g default
v -0.042422 0.337521 0.195264
v 0.042422 0.337521 0.195264
v -0.042422 0.397693 0.160747
v 0.042422 0.397693 0.160747
v -0.042422 0.397693 -0.320704
v 0.042422 0.397693 -0.320704
v -0.042422 0.337521 -0.320704
v 0.042422 0.337521 -0.320704
v -0.042422 0.397693 -0.230270
v 0.042422 0.397693 -0.230270
v 0.042422 0.337521 -0.230270
v -0.042422 0.337521 -0.230270
v -0.042422 0.397693 0.081148
v 0.042422 0.397693 0.081148
v 0.042422 0.337521 0.119972
v -0.042422 0.337521 0.119972
v 0.042422 0.282012 0.154489
v -0.042422 0.282012 0.154489
v 0.042422 0.282012 0.225733
v -0.042422 0.282012 0.225733
v -0.056071 0.142644 -0.320704
v 0.056071 0.142644 -0.320704
v -0.056071 -0.000000 -0.320704
v 0.056071 -0.000000 -0.320704
v 0.106164 -0.000000 -0.230270
v -0.106164 -0.000000 -0.230270
v -0.056071 -0.000000 0.237216
v 0.056071 -0.000000 0.237216
v 0.000000 0.337521 0.195264
v 0.000000 0.282012 0.225733
v 0.000000 0.282012 0.154489
v 0.000000 0.337521 0.119972
v 0.000000 0.337521 -0.230270
v 0.000000 0.186741 -0.230270
v 0.000000 -0.000000 0.287906
v 0.000000 -0.000000 -0.230270
v 0.000000 -0.000000 -0.320704
v 0.000000 0.142644 -0.320704
v 0.000000 0.337521 -0.320704
v 0.000000 0.397693 -0.320704
v 0.000000 0.397693 -0.230270
v 0.000000 0.397693 0.081148
v 0.000000 0.397693 0.160747
v 0.000000 0.178125 -0.005818
v -0.141883 -0.000000 -0.005818
v 0.000000 -0.000000 -0.005818
v 0.141883 -0.000000 -0.005818
v 0.000000 0.186631 -0.127334
v -0.141883 -0.000000 -0.127334
v 0.000000 -0.000000 -0.127334
v 0.141883 -0.000000 -0.127334
v 0.000000 -0.000000 0.115699
v -0.106164 -0.000000 0.115699
v 0.000000 0.169429 0.115699
v 0.106164 -0.000000 0.115699
v 0.044617 0.166495 -0.230270
v 0.056902 0.157874 -0.230270
v 0.064652 0.145105 -0.230270
v 0.056071 0.142644 -0.264735
v 0.056071 0.204206 -0.230270
v 0.029848 0.179415 -0.230270
v 0.050232 0.170359 -0.127334
v 0.064083 0.155578 -0.127334
v 0.075614 0.146466 -0.127334
v 0.083596 0.134122 -0.127334
v -0.029848 0.179415 -0.230270
v -0.056071 0.204206 -0.230270
v -0.056071 0.142644 -0.264735
v -0.064652 0.145105 -0.230270
v -0.056902 0.157874 -0.230270
v -0.044617 0.166495 -0.230270
v -0.050232 0.170359 -0.127334
v -0.064083 0.155578 -0.127334
v -0.075614 0.146466 -0.127334
v -0.083596 0.134122 -0.127334
v 0.011041 0.151261 0.170251
v 0.021110 0.144039 0.178727
v 0.028623 0.133596 0.186285
v 0.032965 0.120762 0.192315
v 0.000000 0.120998 0.223247
v 0.000000 0.133760 0.213488
v 0.000000 0.143947 0.199257
v 0.000000 0.151000 0.181736
v -0.032965 0.120762 0.192315
v -0.028623 0.133596 0.186285
v -0.021110 0.144039 0.178727
v -0.011041 0.151261 0.170251
v 0.060758 0.168734 -0.005818
v 0.074773 0.155220 -0.005818
v 0.086216 0.145831 -0.005818
v 0.093646 0.133050 -0.005818
v 0.047886 0.160901 0.115699
v 0.062221 0.155329 0.115699
v 0.073235 0.144788 0.115699
v 0.079199 0.130906 0.115699
v -0.093646 0.133050 -0.005818
v -0.086216 0.145831 -0.005818
v -0.074773 0.155220 -0.005818
v -0.060758 0.168734 -0.005818
v -0.079199 0.130906 0.115699
v -0.073235 0.144788 0.115699
v -0.062221 0.155329 0.115699
v -0.047886 0.160901 0.115699
v 0.012967 0.108151 -0.084022
v -0.033948 0.108151 -0.068779
v -0.033948 0.108151 -0.019450
v 0.012967 0.108151 -0.004206
v 0.041962 0.108151 -0.044114
v 0.012967 0.192075 -0.084022
v -0.033948 0.192075 -0.068779
v -0.033948 0.192075 -0.019450
v 0.012967 0.192075 -0.004206
v 0.041962 0.192075 -0.044114
v 0.000000 0.192075 -0.044114
vt 0.352171 0.808431
vt 0.073642 0.905207
vt 0.103342 0.882444
vt 0.138261 0.908784
vt 0.103097 0.563770
vt 0.153229 0.595927
vt 0.442008 0.932854
vt 0.488930 0.958695
vt 0.098198 0.523293
vt 0.516260 0.935728
vt 0.026869 0.298761
vt 0.741322 0.766153
vt 0.460736 0.882415
vt 0.130774 0.516968
vt 0.202163 0.527467
vt 0.175504 0.570335
vt 0.129426 0.550413
vt 0.313657 0.761420
vt 0.194880 0.906108
vt 0.163643 0.853688
vt 0.418876 0.708633
vt 0.231862 0.513409
vt 0.393977 0.731503
vt 0.337144 0.738389
vt 0.463460 0.811282
vt 0.464583 0.746691
vt 0.115483 0.834959
vt 0.074943 0.852874
vt 0.407220 0.792764
vt 0.367635 0.781951
vt 0.435506 0.756511
vt 0.445462 0.796883
vt 0.069120 0.391258
vt 0.644924 0.862209
vt 0.565575 0.817175
vt 0.625344 0.818154
vt 0.546023 0.777152
vt 0.569311 0.787024
vt 0.110945 0.379443
vt 0.154829 0.368557
vt 0.190202 0.412104
vt 0.612997 0.788991
vt 0.729912 0.481803
vt 0.745919 0.587291
vt 0.210339 0.392034
vt 0.255987 0.146290
vt 0.343224 0.097318
vt 0.126383 0.252661
vt 0.182812 0.201294
vt 0.747634 0.684942
vt 0.671584 0.318772
vt 0.440281 0.058775
vt 0.698674 0.374936
vt 0.183411 0.360789
vt 0.199459 0.380113
vt 0.255646 0.315309
vt 0.265198 0.327234
vt 0.192691 0.369280
vt 0.248957 0.306410
vt 0.242370 0.297570
vt 0.606118 0.428850
vt 0.595458 0.435256
vt 0.484813 0.164430
vt 0.487689 0.151915
vt 0.584423 0.441263
vt 0.479378 0.177349
vt 0.572999 0.446736
vt 0.567083 0.434779
vt 0.591819 0.597272
vt 0.367806 0.302154
vt 0.440011 0.236990
vt 0.587203 0.498331
vt 0.314950 0.236453
vt 0.392280 0.186423
vt 0.631461 0.596724
vt 0.622839 0.498943
vt 0.413289 0.212430
vt 0.337390 0.266082
vt 0.453785 0.158355
vt 0.587613 0.697913
vt 0.290724 0.357705
vt 0.627654 0.697787
vt 0.459661 0.193172
vt 0.600016 0.786011
vt 0.615903 0.697995
vt 0.586826 0.785792
vt 0.604023 0.698154
vt 0.611070 0.500114
vt 0.599157 0.499856
vt 0.457119 0.181564
vt 0.455197 0.169936
vt 0.405265 0.204467
vt 0.398202 0.195804
vt 0.619539 0.597091
vt 0.607575 0.597264
vt 0.328314 0.254429
vt 0.321548 0.245483
vt 0.964906 0.890392
vt 0.908959 0.813388
vt 0.818435 0.842800
vt 0.883938 0.887153
vt 0.818435 0.937983
vt 0.908959 0.967396
vt 0.948712 0.809912
vt 0.948712 0.615104
vt 0.922803 0.809912
vt 0.922803 0.615104
vt 0.896893 0.809912
vt 0.896893 0.615104
vt 0.870984 0.809912
vt 0.870984 0.615104
vt 0.819165 0.809912
vt 0.845074 0.809912
vt 0.845074 0.615104
vt 0.819165 0.615104
vt 0.471924 0.190647
vt 0.549040 0.491962
vt 0.589300 0.396136
vt 0.497457 0.046411
vt 0.573372 0.419798
vt 0.580667 0.406760
vt 0.545291 0.696603
vt 0.541533 0.595345
vt 0.126006 0.939085
vt 0.407358 0.827870
vt 0.190764 0.940929
vt 0.434956 0.968324
vt 0.494849 0.989602
vt 0.532209 0.967287
vt 0.662365 0.905138
vt 0.767754 0.880037
vt 0.231075 0.403592
vt 0.453222 0.848202
vt 0.166699 0.817781
vt 0.104812 0.804034
vt 0.051068 0.847078
vt 0.753064 0.837531
vt 0.066786 0.285141
vt 0.846497 0.110466
vt 0.846497 0.025081
vt 0.899438 0.025081
vt 0.946734 0.110466
vt 0.793555 0.025081
vt 0.746259 0.110466
vt 0.980459 0.207656
vt 0.846497 0.207656
vt 0.712534 0.207656
vt 0.980459 0.322389
vt 0.846497 0.322389
vt 0.712534 0.322389
vt 0.946734 0.437122
vt 0.846497 0.437122
vt 0.746259 0.437122
vt 0.846497 0.599717
vt 0.899438 0.551856
vt 0.793555 0.551856
vn 0.000000 0.497586 0.867415
vn 0.000000 0.489776 0.871848
vn 0.000000 0.489776 0.871848
vn 0.000000 0.497586 0.867415
vn 0.000000 1.000000 0.000000
vn 0.000000 1.000000 0.000000
vn 0.000000 1.000000 0.000000
vn 0.000000 1.000000 0.000000
vn 0.000000 0.000000 -1.000000
vn 0.000000 0.000000 -1.000000
vn 0.000000 0.000000 -1.000000
vn 0.000000 0.000000 -1.000000
vn 0.000000 -1.000000 0.000000
vn 0.000000 -1.000000 0.000000
vn 0.000000 -1.000000 0.000000
vn 0.000000 -1.000000 0.000000
vn 1.000000 0.000000 0.000000
vn 0.999516 0.029438 -0.010020
vn 0.998249 0.055999 -0.019061
vn 1.000000 0.000000 0.000000
vn -0.998249 0.055999 -0.019061
vn -0.999516 0.029438 -0.010020
vn -1.000000 0.000000 0.000000
vn -1.000000 0.000000 0.000000
vn 0.000000 1.000000 0.000000
vn 0.000000 1.000000 0.000000
vn 1.000000 -0.000000 0.000000
vn 1.000000 -0.000000 0.000000
vn 0.000000 -1.000000 0.000000
vn 0.000000 -1.000000 0.000000
vn 0.000000 -1.000000 0.000000
vn 0.000000 -1.000000 0.000000
vn -1.000000 -0.000000 0.000000
vn -1.000000 -0.000000 0.000000
vn 0.000000 1.000000 0.000000
vn 0.000000 1.000000 0.000000
vn 1.000000 -0.000000 0.000000
vn 1.000000 -0.000000 0.000000
vn 0.000000 -1.000000 0.000000
vn 0.000000 -1.000000 0.000000
vn 0.000000 -1.000000 0.000000
vn 0.000000 -1.000000 0.000000
vn -1.000000 -0.000000 0.000000
vn -1.000000 -0.000000 0.000000
vn 0.000000 -0.528052 -0.849212
vn 0.000000 -0.528052 -0.849212
vn 0.000000 -0.528052 -0.849212
vn 0.000000 -0.528052 -0.849212
vn 1.000000 -0.000000 0.000000
vn 1.000000 -0.000000 0.000000
vn 0.000000 0.481175 0.876625
vn 0.000000 0.481175 0.876625
vn -1.000000 -0.000000 0.000000
vn -1.000000 -0.000000 0.000000
vn 0.000000 0.000000 -1.000000
vn 0.000000 0.000000 -1.000000
vn 0.996775 0.075150 -0.028141
vn 0.976586 0.118365 -0.179635
vn 0.981564 0.111498 -0.155245
vn 0.000000 0.000000 1.000000
vn 0.000000 0.000000 1.000000
vn 0.000000 0.000000 1.000000
vn 0.000000 0.000000 1.000000
vn 0.000000 0.000000 1.000000
vn -0.981564 0.111498 -0.155245
vn -0.976586 0.118365 -0.179635
vn -0.996775 0.075150 -0.028141
vn 0.000000 0.000000 -1.000000
vn 0.000000 0.000000 -1.000000
vn 0.931448 0.256194 -0.258396
vn 0.930922 0.253703 -0.262714
vn 0.938890 0.153589 -0.308051
vn 0.000000 -1.000000 0.000000
vn 0.000000 -1.000000 0.000000
vn 0.000000 -1.000000 0.000000
vn 0.000000 -1.000000 0.000000
vn 0.000000 0.489776 0.871848
vn 0.000000 0.481175 0.876625
vn 0.000000 -1.000000 0.000000
vn 0.000000 -1.000000 0.000000
vn 0.000000 -0.528052 -0.849212
vn 0.000000 -0.528052 -0.849212
vn 0.000000 -1.000000 0.000000
vn 0.000000 -1.000000 0.000000
vn -0.000000 0.000000 1.000000
vn -0.000000 0.000000 1.000000
vn -0.000000 0.000000 1.000000
vn 0.000000 -1.000000 0.000000
vn 0.000000 -1.000000 0.000000
vn 0.000000 -1.000000 0.000000
vn 0.000000 -1.000000 0.000000
vn 0.000000 0.000000 -1.000000
vn 0.000000 0.000000 -1.000000
vn 0.000000 0.000000 -1.000000
vn 0.000000 0.000000 -1.000000
vn 0.000000 1.000000 0.000000
vn 0.000000 1.000000 0.000000
vn 0.000000 1.000000 0.000000
vn 0.000000 1.000000 0.000000
vn 0.000000 0.497586 0.867415
vn 0.000000 -1.000000 0.000000
vn 0.000000 -1.000000 0.000000
vn 0.000000 -1.000000 0.000000
vn 0.000000 -1.000000 0.000000
vn 0.000000 -1.000000 0.000000
vn 0.000000 -1.000000 0.000000
vn -0.931448 0.256194 -0.258396
vn -0.938890 0.153589 -0.308051
vn -0.930922 0.253703 -0.262714
vn -0.402439 0.915422 -0.006780
vn -0.660283 0.749349 -0.050023
vn -0.664384 0.745711 -0.050090
vn -0.391829 0.920038 0.000001
vn -0.717557 0.694184 -0.056760
vn -0.746849 0.661986 -0.063182
vn -0.921718 0.365916 -0.128612
vn 0.799485 0.300177 0.520305
vn 0.647928 0.543627 0.533535
vn 0.571930 0.558586 0.600731
vn 0.627219 0.375851 0.682153
vn 0.465413 0.766261 0.442984
vn 0.458832 0.749898 0.476577
vn 0.230912 0.923938 0.304990
vn -0.000000 0.950018 0.312196
vn 0.628285 0.370151 0.684285
vn 0.780888 0.304144 0.545628
vn 0.321719 0.945903 0.042007
vn 0.000000 0.998555 0.053735
vn -0.000000 0.992980 0.118282
vn 0.255884 0.957444 0.133510
vn -0.938189 0.338248 0.073415
vn -0.942936 0.324320 0.075424
vn -0.916396 0.262384 0.302278
vn -0.910850 0.278158 0.304928
vn 0.942936 0.324320 0.075424
vn 0.938189 0.338248 0.073415
vn 0.910850 0.278158 0.304928
vn 0.916397 0.262384 0.302278
vn -0.255884 0.957444 0.133510
vn -0.321719 0.945903 0.042007
vn -0.628285 0.370151 0.684285
vn -0.627219 0.375851 0.682153
vn -0.799485 0.300177 0.520305
vn -0.780888 0.304144 0.545628
vn 0.391829 0.920038 0.000001
vn -0.000000 0.999677 0.025416
vn -0.927657 0.352703 -0.122690
vn 0.927657 0.352703 -0.122690
vn 0.921718 0.365916 -0.128612
vn 0.402439 0.915422 -0.006780
vn -0.000000 0.999882 0.015346
vn -0.230912 0.923938 0.304990
vn 0.717557 0.694184 -0.056760
vn 0.746849 0.661986 -0.063182
vn 0.660283 0.749349 -0.050023
vn 0.664384 0.745711 -0.050090
vn 0.763897 0.592001 0.256898
vn 0.575047 0.790982 0.208970
vn -0.458832 0.749898 0.476577
vn -0.465413 0.766261 0.442984
vn -0.571930 0.558586 0.600731
vn -0.647928 0.543627 0.533535
vn -0.575047 0.790982 0.208971
vn -0.763897 0.592001 0.256899
vn 0.776536 0.629881 0.015575
vn 0.645231 0.763924 0.009855
vn -0.645231 0.763924 0.009855
vn -0.776536 0.629881 0.015575
vn 0.000000 0.000000 1.000000
vn 0.000000 0.000000 1.000000
vn 0.000000 0.000000 1.000000
vn 0.000000 0.000000 1.000000
vn -0.000001 0.000000 1.000000
vn -0.000001 0.000000 1.000000
vn -0.000001 0.000000 1.000000
vn 0.309017 0.000000 -0.951057
vn -0.809017 0.000000 -0.587785
vn -0.809017 0.000000 -0.587785
vn 0.309017 0.000000 -0.951057
vn -0.809017 0.000000 0.587785
vn -0.809017 0.000000 0.587785
vn 0.309017 0.000000 0.951057
vn 0.309017 0.000000 0.951057
vn 1.000000 0.000000 0.000000
vn 1.000000 0.000000 0.000000
vn 0.000000 1.000000 -0.000000
vn 0.000000 1.000000 0.000000
vn 0.000000 1.000000 0.000000
vn 0.000000 1.000000 0.000001
vn 0.000000 1.000000 0.000000
vn 0.000000 1.000000 0.000000
s 1
g pCube2
usemtl initialShadingGroup
f 43/124/1 29/2/2 2/3/3 4/4/4
s 2
f 40/128/5 41/127/6 10/7/7 6/8/8
s 3
f 39/129/9 40/128/10 6/8/11 8/10/12
s 4
f 36/139/13 37/140/14 24/141/15 25/142/16
s 5
f 10/7/17 11/13/18 8/10/19 6/8/20
f 7/14/21 12/15/22 9/16/23 5/17/24
s 2
f 41/127/6 42/126/25 14/19/26 10/7/7
s 5
f 14/19/27 15/20/28 11/13/18 10/7/17
s 7
f 32/134/29 33/133/30 11/13/31 15/20/32
s 5
f 9/16/23 12/15/22 16/23/33 13/24/34
s 2
f 42/126/25 43/124/35 4/4/36 14/19/26
s 5
f 2/3/37 15/20/28 14/19/27 4/4/38
s 8
f 30/136/39 31/135/40 17/27/41 19/28/42
s 5
f 13/24/34 16/23/33 1/29/43 3/30/44
s 9
f 31/135/45 32/134/46 15/20/47 17/27/48
s 5
f 15/20/28 2/3/37 19/28/49 17/27/50
s 1
f 2/3/3 29/2/2 30/136/51 19/28/52
s 5
f 1/29/43 16/23/33 18/31/53 20/32/54
s 3
f 38/130/55 39/129/9 8/10/12 22/34/56
s 5
f 8/10/19 11/13/18 60/35/57 59/36/58 22/34/59
s 10
f 11/13/60 33/133/61 34/37/62 61/38/63 60/35/64
s 5
f 12/15/22 7/14/21 21/39/65 68/40/66 67/41/67
s 3
f 37/131/68 38/130/55 22/34/56 24/137/69
s 5
f 22/34/59 59/36/58 58/42/70 25/12/71 24/137/72
s 4
f 55/151/73 52/152/74 46/149/75 47/148/76
s 1
f 30/25/51 29/125/2 1/29/77 20/32/78
s 8
f 18/31/79 31/26/40 30/25/39 20/32/80
s 9
f 16/23/81 32/21/46 31/26/45 18/31/82
s 7
f 12/15/83 33/22/30 32/21/29 16/23/84
s 10
f 34/132/62 33/22/61 12/15/85 67/41/86 66/45/87
s 4
f 45/150/88 46/149/75 52/152/74 53/153/89
f 23/143/90 37/140/14 36/139/13 26/144/91
s 3
f 21/39/92 38/33/55 37/11/68 23/138/93
f 7/14/94 39/9/9 38/33/55 21/39/92
f 5/17/95 40/5/10 39/9/9 7/14/94
s 2
f 9/16/96 41/6/6 40/5/5 5/17/97
f 13/24/98 42/18/25 41/6/6 9/16/96
f 3/30/99 43/1/35 42/18/25 13/24/98
s 1
f 1/29/77 29/125/2 43/1/1 3/30/100
s 4
f 49/147/101 50/146/102 46/149/75 45/150/88
f 47/148/76 46/149/75 50/146/102 51/145/103
f 26/144/91 36/139/13 50/146/102 49/147/101
f 51/145/103 50/146/102 36/139/13 25/142/16
f 53/153/89 52/152/74 35/154/104 27/156/105
f 35/154/104 52/152/74 55/151/73 28/155/106
s 5
f 69/54/107 68/40/66 21/39/65 23/138/108 26/48/109
f 66/45/110 71/55/111 73/56/112 72/57/113
f 71/55/111 70/58/114 74/59/115 73/56/112
f 70/58/114 69/54/107 75/60/116 74/59/115
f 79/61/117 78/62/118 81/121/119 80/118/120
f 78/62/118 77/65/121 82/120/122 81/121/119
f 77/65/121 76/67/123 83/68/124 82/120/122
f 79/61/117 80/118/120 35/51/125 28/53/126
f 88/69/127 44/123/128 54/117/129 92/72/130
f 96/73/131 45/46/132 53/47/133 100/74/134
f 47/44/135 91/75/136 95/76/137 55/43/138
f 103/77/139 54/71/129 44/70/128 99/78/140
f 35/119/141 80/64/142 84/79/143 27/52/144
f 62/80/145 48/122/146 44/123/128 88/69/127
f 99/78/140 44/70/128 48/81/146 72/57/113
f 75/60/116 49/49/147 45/46/132 96/73/131
f 51/50/148 65/82/149 91/75/136 47/44/135
f 62/80/145 61/38/150 34/37/151 48/122/146
f 72/57/113 48/81/146 34/132/151 66/45/110
f 75/60/116 69/54/107 26/48/109 49/49/147
f 25/12/71 58/42/70 65/82/149 51/50/148
f 100/74/134 53/47/133 27/52/144 84/79/143
f 83/116/124 54/71/129 103/77/139 87/83/152
f 92/72/130 54/117/129 83/68/124 76/67/123
f 55/43/138 95/76/137 79/61/117 28/53/126
f 58/42/70 57/84/153 64/85/154 65/82/149
f 57/84/153 56/86/155 63/87/156 64/85/154
f 56/86/155 61/38/150 62/80/145 63/87/156
f 78/62/118 79/61/117 95/76/137 94/88/157
f 76/67/123 77/65/121 93/89/158 92/72/130
f 77/65/121 78/62/118 94/88/157 93/89/158
f 82/66/159 83/116/124 87/83/152 86/90/160
f 80/64/142 81/63/161 85/91/162 84/79/143
f 81/63/161 82/66/159 86/90/160 85/91/162
f 86/90/160 87/83/152 103/77/139 102/92/163
f 84/79/143 85/91/162 101/93/164 100/74/134
f 85/91/162 86/90/160 102/92/163 101/93/164
f 65/82/149 64/85/154 90/94/165 91/75/136
f 64/85/154 63/87/156 89/95/166 90/94/165
f 63/87/156 62/80/145 88/69/127 89/95/166
f 91/75/136 90/94/165 94/88/157 95/76/137
f 90/94/165 89/95/166 93/89/158 94/88/157
f 89/95/166 88/69/127 92/72/130 93/89/158
f 72/57/113 73/56/112 98/96/167 99/78/140
f 73/56/112 74/59/115 97/97/168 98/96/167
f 74/59/115 75/60/116 96/73/131 97/97/168
f 99/78/140 98/96/167 102/92/163 103/77/139
f 98/96/167 97/97/168 101/93/164 102/92/163
f 97/97/168 96/73/131 100/74/134 101/93/164
f 58/42/70 59/36/58 60/35/57
f 68/40/66 69/54/107 67/41/67
s off
f 71/55/169 66/45/170 67/41/171 69/54/172
f 60/35/173 61/38/174 58/42/175
s 18
f 104/115/176 105/114/177 110/113/178 109/112/179
f 105/114/177 106/111/180 111/110/181 110/113/178
f 106/111/180 107/109/182 112/108/183 111/110/181
f 107/109/182 108/107/184 113/106/185 112/108/183
f 108/107/184 104/105/176 109/104/179 113/106/185
s 19
f 109/103/186 110/102/187 114/101/188
f 110/102/187 111/100/189 114/101/188
f 111/100/189 112/99/190 114/101/188
f 112/99/190 113/98/191 114/101/188
f 113/98/191 109/103/186 114/101/188
