# This file uses centimeters as units for non-parametric coordinates.

mtllib KeyboardAndMouse.mtl
g default
v -0.414936 0.000000 0.211206
v 0.723746 0.000000 0.211206
v -0.414936 0.066775 0.211206
v 0.723746 0.066775 0.211206
v -0.414936 0.066775 -0.211206
v 0.723746 0.066775 -0.211206
v -0.414936 0.000000 -0.211206
v 0.723746 0.000000 -0.211206
v 0.460021 0.000000 0.211206
v 0.460021 0.000000 -0.261409
v 0.460021 0.066775 -0.261409
v 0.460021 0.066775 0.211206
v 0.165274 0.000000 0.211206
v 0.165274 0.000000 -0.261409
v 0.165274 0.066775 -0.261409
v 0.165274 0.066775 0.211206
v -0.521635 0.083717 -0.118394
v -0.605352 0.118394 -0.118394
v -0.689069 0.083717 -0.118394
v -0.723746 0.000000 -0.118394
v -0.486958 0.000000 -0.118394
v -0.521635 0.083717 0.118394
v -0.605352 0.118394 0.118394
v -0.689069 0.083717 0.118394
v -0.723746 -0.000000 0.118394
v -0.486958 -0.000000 0.118394
v -0.605352 0.000000 -0.166326
v -0.605352 0.000000 0.229843
v -0.546155 0.000000 -0.154766
v -0.563493 0.041858 -0.154766
v -0.605352 0.059197 -0.154766
v -0.647210 0.041858 -0.154766
v -0.664549 0.000000 -0.154766
v -0.707752 -0.000000 0.187429
v -0.682194 0.053739 0.187429
v -0.605352 0.092860 0.187429
v -0.528510 0.053739 0.187429
v -0.502952 -0.000000 0.187429
v -0.673114 0.000000 0.220884
v -0.656201 0.028052 0.220884
v -0.605352 0.053939 0.220884
v -0.554503 0.028052 0.220884
v -0.537590 0.000000 0.220884
vt 0.276964 0.416447
vt 0.276744 0.466479
vt 0.078070 0.463052
vt 0.078633 0.412922
vt 0.279587 0.064818
vt 0.082124 0.094481
vt 0.276081 0.015091
vt 0.032104 0.093671
vt 0.933846 0.039426
vt 0.987338 0.405606
vt 0.937251 0.406770
vt 0.931153 0.089586
vt 0.498190 0.012202
vt 0.497079 0.062102
vt 0.500873 0.416651
vt 0.501415 0.466716
vt 0.551383 0.598954
vt 0.550499 0.708049
vt 0.261456 0.745265
vt 0.239497 0.624232
vt 0.574798 0.816900
vt 0.267565 0.865524
vt 0.628252 0.924971
vt 0.260109 0.982124
vt 0.581120 0.492101
vt 0.203953 0.501799
vt 0.634481 0.636192
vt 0.631005 0.701460
vt 0.651195 0.765120
vt 0.697095 0.810006
vt 0.664813 0.586124
vt 0.175303 0.753281
vt 0.142151 0.642710
vt 0.168470 0.867170
vt 0.144688 0.938454
vt 0.101454 0.577977
vt 0.709246 0.691282
vt 0.083943 0.881011
vt 0.105759 0.839625
vt 0.114157 0.760253
vt 0.087362 0.684978
vt 0.056218 0.650108
vt 0.043146 0.769176
vt 0.075688 0.044248
vt 0.981184 0.088447
vt 0.028523 0.412030
vt 0.938241 0.456845
vn 0.000000 0.000000 1.000000
vn 0.000000 0.000000 1.000000
vn 0.000000 0.000000 1.000000
vn 0.000000 0.000000 1.000000
vn 0.000000 1.000000 0.000000
vn 0.000000 1.000000 0.000000
vn 0.000000 1.000000 0.000000
vn 0.000000 1.000000 0.000000
vn 0.089531 0.000000 -0.995984
vn 0.089531 0.000000 -0.995984
vn 0.187001 0.000000 -0.982360
vn 0.187001 0.000000 -0.982360
vn 1.000000 0.000000 0.000000
vn 1.000000 0.000000 0.000000
vn 1.000000 0.000000 0.000000
vn 1.000000 0.000000 0.000000
vn -1.000000 0.000000 0.000000
vn -1.000000 0.000000 0.000000
vn -1.000000 0.000000 0.000000
vn -1.000000 0.000000 0.000000
vn -0.057283 0.000000 -0.998358
vn -0.057283 0.000000 -0.998358
vn 0.000000 1.000000 0.000000
vn 0.000000 1.000000 0.000000
vn 0.000000 0.000000 1.000000
vn 0.000000 0.000000 1.000000
vn -0.086202 0.000000 -0.996278
vn -0.086202 0.000000 -0.996278
vn 0.000000 1.000000 0.000000
vn 0.000000 1.000000 0.000000
vn 0.000000 0.000000 1.000000
vn 0.000000 0.000000 1.000000
vn 0.700700 0.700700 -0.134314
vn 0.000000 0.990939 -0.134314
vn 0.000000 0.996273 0.086256
vn 0.694913 0.715755 0.069213
vn -0.700699 0.700700 -0.134314
vn -0.694913 0.715755 0.069213
vn -0.916720 0.379718 -0.124254
vn -0.921522 0.385787 0.044326
vn 0.916720 0.379718 -0.124254
vn 0.921523 0.385787 0.044326
vn 0.337107 0.337107 -0.879044
vn 0.000000 0.476742 -0.879044
vn -0.337107 0.337107 -0.879044
vn -0.467709 0.193732 -0.862390
vn 0.467710 0.193732 -0.862390
vn 0.000000 0.863987 0.503514
vn 0.636349 0.631750 0.442666
vn -0.636349 0.631749 0.442666
vn -0.853022 0.386148 0.351061
vn 0.853022 0.386148 0.351061
vn 0.000000 0.136786 -0.990601
vn -0.554877 0.290284 0.779645
vn -0.379216 0.442187 0.812814
vn 0.000000 0.569225 0.822182
vn 0.379215 0.442188 0.812814
vn 0.554877 0.290284 0.779645
vn 0.000000 0.143215 0.989692
s 1
g pCube5
usemtl initialShadingGroup
f 12/1/1 9/2/2 2/3/3 4/4/4
s 2
f 11/5/5 12/1/6 4/4/7 6/6/8
s 3
f 10/7/9 11/5/10 6/6/11 8/44/12
s off
f 2/46/13 8/8/14 6/6/15 4/4/16
f 7/45/17 1/10/18 3/11/19 5/12/20
s 3
f 14/13/21 15/14/22 11/5/10 10/7/9
s 2
f 15/14/23 16/15/24 12/1/6 11/5/5
s 1
f 16/15/25 13/16/26 9/2/2 12/1/1
s 3
f 5/12/27 15/14/22 14/13/21 7/9/28
s 2
f 3/11/29 16/15/24 15/14/23 5/12/30
s 1
f 1/47/31 13/16/26 16/15/25 3/11/32
s 4
f 17/17/33 18/18/34 23/19/35 22/20/36
f 18/18/34 19/21/37 24/22/38 23/19/35
f 19/21/37 20/23/39 25/24/40 24/22/38
f 21/25/41 17/17/33 22/20/36 26/26/42
f 18/18/34 17/17/33 30/27/43 31/28/44
f 19/21/37 18/18/34 31/28/44 32/29/45
f 20/23/39 19/21/37 32/29/45 33/30/46
f 17/17/33 21/25/41 29/31/47 30/27/43
f 22/20/36 23/19/35 36/32/48 37/33/49
f 23/19/35 24/22/38 35/34/50 36/32/48
f 24/22/38 25/24/40 34/35/51 35/34/50
f 26/26/42 22/20/36 37/33/49 38/36/52
f 30/27/43 29/31/47 27/37/53
f 31/28/44 30/27/43 27/37/53
f 32/29/45 31/28/44 27/37/53
f 33/30/46 32/29/45 27/37/53
f 35/34/50 34/35/51 39/38/54 40/39/55
f 36/32/48 35/34/50 40/39/55 41/40/56
f 37/33/49 36/32/48 41/40/56 42/41/57
f 38/36/52 37/33/49 42/41/57 43/42/58
f 40/39/55 39/38/54 28/43/59
f 41/40/56 40/39/55 28/43/59
f 42/41/57 41/40/56 28/43/59
f 43/42/58 42/41/57 28/43/59
