# This file uses centimeters as units for non-parametric coordinates.

mtllib HeaterOld.mtl
g default
v 1.167372 0.241729 -0.244856
v 1.203303 0.243268 -0.236582
v 1.206558 0.243113 -0.199823
v 1.172638 0.241478 -0.185378
v 1.148420 0.240622 -0.213210
v 0.693476 0.254439 -0.195253
v 0.693476 0.216452 -0.182910
v 0.693476 0.216452 -0.142968
v 0.693476 0.254439 -0.130625
v 0.693476 0.277917 -0.162939
v 1.032063 0.098359 -0.194132
v 1.037496 0.070450 -0.181505
v 1.058862 0.073996 -0.159171
v 1.066635 0.104098 -0.157995
v 1.050072 0.119155 -0.179602
v 0.858808 0.125927 -0.154018
v 0.885848 0.133878 -0.129555
v 0.886788 0.106576 -0.104126
v 0.860329 0.081751 -0.112874
v 0.843036 0.132765 -0.143709
v 1.078128 0.185812 -0.244619
v 1.271359 0.185812 -0.244619
v 1.078128 0.379043 -0.244619
v 1.271359 0.379043 -0.244619
v 1.078128 0.379043 -0.265566
v 1.271359 0.379043 -0.265566
v 1.078128 0.185812 -0.265566
v 1.271359 0.185812 -0.265566
v 0.623291 0.417310 0.194941
v 0.554061 0.467608 0.194941
v 0.468489 0.467608 0.194941
v 0.399260 0.417310 0.194941
v 0.372817 0.335926 0.194941
v 0.399260 0.254542 0.194941
v 0.468489 0.204244 0.194941
v 0.554061 0.204244 0.194941
v 0.623291 0.254542 0.194941
v 0.649734 0.335926 0.194941
v 0.623291 0.417310 0.266180
v 0.554061 0.467608 0.266180
v 0.468489 0.467608 0.266180
v 0.399260 0.417310 0.266180
v 0.372817 0.335926 0.266180
v 0.399260 0.254542 0.266180
v 0.468489 0.204244 0.266180
v 0.554061 0.204244 0.266180
v 0.623291 0.254542 0.266180
v 0.649734 0.335926 0.266180
v 0.511275 0.335926 0.266180
v -0.712167 0.163225 0.208598
v 0.712167 0.163225 0.208598
v -0.712167 1.112781 -0.266180
v 0.712167 1.112781 -0.266180
v -0.712167 0.163225 -0.266180
v 0.712167 0.163225 -0.266180
v -0.712167 1.112781 -0.092334
v -0.712167 0.811849 0.208598
v -0.712167 0.962315 0.168281
v -0.712167 1.072464 0.058132
v 0.712167 1.112781 -0.092334
v 0.712167 1.072464 0.058132
v 0.712167 0.962315 0.168281
v 0.712167 0.811849 0.208598
v 1.124583 0.234165 -0.180486
v 1.230999 0.234165 -0.180486
v 1.124583 0.314453 -0.180486
v 1.230999 0.314453 -0.180486
v 1.124583 0.314453 -0.253674
v 1.230999 0.314453 -0.253674
v 1.124583 0.234165 -0.253674
v 1.230999 0.234165 -0.253674
v 1.177791 0.234165 -0.180486
v 1.177791 0.234165 -0.253674
v 1.177791 0.340581 -0.253674
v 1.177791 0.340581 -0.180486
v 1.140545 0.234165 -0.180486
v 1.140545 0.234165 -0.253674
v 1.140545 0.340581 -0.253674
v 1.140545 0.340581 -0.180486
v 1.215037 0.234165 -0.180486
v 1.215037 0.340581 -0.180486
v 1.215037 0.340581 -0.253674
v 1.215037 0.234165 -0.253674
vt 0.595311 0.301081
vt 0.613842 0.301081
vt 0.636759 0.301081
vt 0.654387 0.301081
vt 0.675942 0.301081
vt 0.696318 0.301081
vt 0.594737 0.635960
vt 0.614133 0.635960
vt 0.636960 0.635960
vt 0.655316 0.635960
vt 0.674560 0.635960
vt 0.696191 0.635960
vt 0.697645 0.419331
vt 0.595313 0.419331
vt 0.613878 0.419331
vt 0.636131 0.419331
vt 0.655283 0.419331
vt 0.676036 0.419331
vt 0.698337 0.510153
vt 0.595205 0.510153
vt 0.675450 0.510153
vt 0.655438 0.510153
vt 0.635618 0.510153
vt 0.614502 0.510153
vt 0.745512 0.324884
vt 0.964956 0.325498
vt 0.964341 0.544942
vt 0.744898 0.544327
vt 0.964275 0.568731
vt 0.744831 0.568116
vt 0.745579 0.301095
vt 0.965023 0.301709
vt 0.988745 0.325565
vt 0.988131 0.545008
vt 0.721723 0.324817
vt 0.721109 0.544260
vt 0.692569 0.035714
vt 0.692569 0.060714
vt 0.316629 0.060714
vt 0.316629 0.035714
vt 0.692569 0.085714
vt 0.316629 0.085714
vt 0.692569 0.110714
vt 0.316629 0.110714
vt 0.692569 0.135714
vt 0.316629 0.135714
vt 0.692569 0.160714
vt 0.316629 0.160714
vt 0.692569 0.185714
vt 0.316629 0.185714
vt 0.692569 0.210714
vt 0.316629 0.210714
vt 0.692569 0.235714
vt 0.316629 0.235714
vt 0.692569 0.260714
vt 0.316629 0.260714
vt 0.692569 0.285714
vt 0.316629 0.285714
vt 0.963551 0.245993
vt 0.893947 0.296563
vt 0.850930 0.158601
vt 0.807912 0.296563
vt 0.738309 0.245993
vt 0.711723 0.164169
vt 0.738309 0.082346
vt 0.807912 0.031776
vt 0.893947 0.031776
vt 0.963551 0.082346
vt 0.990137 0.164169
vt 0.013122 0.488416
vt 0.569186 0.487646
vt 0.569537 0.740871
vt 0.013473 0.741641
vt 0.013726 0.924085
vt 0.569790 0.923315
vt 0.569884 0.991185
vt 0.013820 0.991955
vt 0.012866 0.303062
vt 0.568930 0.302292
vt 0.013641 0.863270
vt 0.569705 0.862500
vt 0.013557 0.802456
vt 0.569621 0.801686
vt 0.066763 0.281538
vt 0.018576 0.281700
vt 0.017690 0.018499
vt 0.149291 0.018056
vt 0.149896 0.197844
vt 0.138861 0.239588
vt 0.108432 0.270222
vt 0.163863 0.021570
vt 0.299282 0.021560
vt 0.299301 0.292398
vt 0.249716 0.292401
vt 0.206798 0.280905
vt 0.175379 0.249490
vt 0.163876 0.206574
vt 0.785615 0.714148
vt 0.784093 0.877640
vt 0.726870 0.877107
vt 0.728393 0.713615
vt 0.786663 0.601706
vt 0.632986 0.654102
vt 0.783045 0.990083
vt 0.725823 0.989550
vt 0.702347 0.876879
vt 0.589904 0.875832
vt 0.591053 0.752482
vt 0.703495 0.753529
vt 0.978281 0.879449
vt 0.865839 0.878402
vt 0.866987 0.755052
vt 0.979430 0.756099
vt 0.841315 0.878173
vt 0.840267 0.990615
vt 0.843885 0.602239
vt 0.842837 0.714681
vt 0.864791 0.990844
vt 0.963486 0.697326
vt 0.608088 0.694016
vt 0.701299 0.989321
vt 0.729440 0.601173
vt 0.939336 0.656955
vn -0.114041 0.040916 -0.992633
vn 0.061706 -0.793160 -0.605879
vn -0.321393 -0.734732 -0.597391
vn 0.270622 0.314240 -0.909955
vn 0.487745 -0.860211 0.148800
vn -0.374551 -0.835296 0.402483
vn 0.137654 0.222721 0.965115
vn 0.151952 0.176884 0.972431
vn -0.395881 0.892088 0.217848
vn 0.375917 0.913133 0.157716
vn -0.088125 -0.254285 -0.963106
vn 0.554593 -0.667205 -0.497257
vn 0.734253 -0.678855 -0.005369
vn 0.003300 0.207848 0.978156
vn -0.730142 0.651605 0.205676
vn 0.500009 0.422531 -0.755949
vn 0.622804 0.780154 -0.058953
vn 0.227011 0.477692 0.848691
vn -0.527083 -0.636910 0.562609
vn -0.309601 -0.685630 -0.658831
vn 0.000000 0.000000 1.000000
vn 0.000000 0.000000 1.000000
vn 0.000000 0.000000 1.000000
vn 0.000000 0.000000 1.000000
vn 0.000000 1.000000 0.000000
vn 0.000000 1.000000 0.000000
vn 0.000000 1.000000 0.000000
vn 0.000000 1.000000 0.000000
vn 0.000000 -1.000000 0.000000
vn 0.000000 -1.000000 0.000000
vn 0.000000 -1.000000 0.000000
vn 0.000000 -1.000000 0.000000
vn 1.000000 0.000000 0.000000
vn 1.000000 0.000000 0.000000
vn 1.000000 0.000000 0.000000
vn 1.000000 0.000000 0.000000
vn -1.000000 0.000000 0.000000
vn -1.000000 0.000000 0.000000
vn -1.000000 0.000000 0.000000
vn -1.000000 0.000000 0.000000
vn 0.809017 0.587785 0.000000
vn 0.309017 0.951057 0.000000
vn 0.309017 0.951057 0.000000
vn 0.809017 0.587785 0.000000
vn -0.309017 0.951057 0.000000
vn -0.309017 0.951057 0.000000
vn -0.809017 0.587785 0.000000
vn -0.809017 0.587785 0.000000
vn -1.000000 -0.000000 0.000000
vn -1.000000 -0.000000 0.000000
vn -0.809017 -0.587785 0.000000
vn -0.809017 -0.587785 0.000000
vn -0.309017 -0.951057 0.000000
vn -0.309017 -0.951057 0.000000
vn 0.309017 -0.951056 0.000000
vn 0.309017 -0.951056 0.000000
vn 0.809017 -0.587785 0.000000
vn 0.809017 -0.587785 0.000000
vn 1.000000 0.000000 0.000000
vn 1.000000 0.000000 0.000000
vn 0.000000 0.000000 1.000000
vn 0.000000 0.000000 1.000000
vn 0.000000 0.000000 1.000000
vn 0.000000 0.000000 1.000000
vn 0.000000 0.000000 1.000000
vn 0.000000 0.000000 1.000000
vn 0.000000 0.000000 1.000000
vn 0.000000 0.000000 1.000000
vn 0.000000 0.000000 1.000000
vn 0.000000 0.000000 1.000000
vn 0.000000 0.000000 1.000000
vn 0.000000 0.000000 1.000000
vn 0.000000 0.000000 1.000000
vn 0.000000 0.050390 0.998730
vn 0.000000 0.050390 0.998730
vn 0.000000 0.992361 0.123367
vn 0.000000 0.992361 0.123367
vn 0.000000 1.000000 0.000000
vn 0.000000 1.000000 0.000000
vn 0.000000 -1.000000 0.000000
vn 0.000000 -1.000000 0.000000
vn 0.000000 -1.000000 0.000000
vn 0.000000 -1.000000 0.000000
vn 0.000000 0.866025 0.500000
vn 0.000000 0.866025 0.500000
vn 0.000000 0.500000 0.866025
vn 0.000000 0.500000 0.866025
vn -1.000000 0.000000 0.000000
vn -1.000000 0.000000 0.000000
vn -1.000000 0.000000 0.000000
vn -1.000000 0.000000 0.000000
vn -1.000000 0.000000 0.000000
vn -1.000000 0.000000 0.000000
vn -1.000000 0.000000 0.000000
vn 1.000000 0.000000 0.000000
vn 1.000000 0.000000 0.000000
vn 1.000000 0.000000 0.000000
vn 1.000000 0.000000 0.000000
vn 1.000000 0.000000 0.000000
vn 1.000000 0.000000 0.000000
vn 1.000000 0.000000 0.000000
vn 0.000000 0.000000 1.000000
vn 0.000000 0.000000 1.000000
vn 0.000000 0.000000 1.000000
vn 0.000000 0.000000 1.000000
vn 0.000000 1.000000 0.000000
vn 0.000000 1.000000 0.000000
vn 0.440783 0.897614 0.000000
vn 0.440783 0.897614 0.000000
vn 0.000000 -1.000000 0.000000
vn 0.000000 -1.000000 0.000000
vn 0.000000 -1.000000 0.000000
vn 0.000000 -1.000000 0.000000
vn 1.000000 0.000000 0.000000
vn 1.000000 0.000000 0.000000
vn 1.000000 0.000000 0.000000
vn 1.000000 0.000000 0.000000
vn -1.000000 0.000000 0.000000
vn -1.000000 0.000000 0.000000
vn -1.000000 0.000000 0.000000
vn -1.000000 0.000000 0.000000
vn 0.000000 -1.000000 0.000000
vn 0.000000 -1.000000 0.000000
vn -0.440783 0.897614 0.000000
vn -0.440783 0.897614 0.000000
vn 0.000000 0.000000 1.000000
vn 0.000000 0.000000 1.000000
vn 0.000000 -1.000000 0.000000
vn 0.000000 -1.000000 0.000000
vn -0.853354 0.521332 0.000000
vn -0.853354 0.521332 0.000000
vn 0.000000 0.000000 1.000000
vn 0.000000 0.000000 1.000000
vn 0.000000 0.000000 1.000000
vn 0.000000 0.000000 1.000000
vn 0.853354 0.521332 0.000000
vn 0.853354 0.521332 0.000000
vn 0.000000 -1.000000 0.000000
vn 0.000000 -1.000000 0.000000
s 1
g pCylinder2
usemtl initialShadingGroup
f 11/14/1 12/15/2 20/24/3 16/20/4
f 12/15/2 13/16/5 19/23/6 20/24/3
f 13/16/5 14/17/7 18/22/8 19/23/6
f 14/17/7 15/18/9 17/21/10 18/22/8
f 15/18/9 11/13/1 16/19/4 17/21/10
f 1/1/11 2/2/12 12/15/2 11/14/1
f 2/2/12 3/3/13 13/16/5 12/15/2
f 3/3/13 4/4/14 14/17/7 13/16/5
f 4/4/14 5/5/15 15/18/9 14/17/7
f 5/5/15 1/6/11 11/13/1 15/18/9
f 17/21/10 16/19/4 6/12/16 10/11/17
f 18/22/8 17/21/10 10/11/17 9/10/18
f 19/23/6 18/22/8 9/10/18 8/9/19
f 20/24/3 19/23/6 8/9/19 7/8/20
f 16/20/4 20/24/3 7/8/20 6/7/16
s off
f 21/25/21 22/26/22 24/27/23 23/28/24
f 23/28/25 24/27/26 26/29/27 25/30/28
f 27/31/29 28/32/30 22/26/31 21/25/32
f 22/26/33 28/33/34 26/34/35 24/27/36
f 27/35/37 21/25/38 23/28/39 25/36/40
s 2
f 29/37/41 30/38/42 40/39/43 39/40/44
f 30/38/42 31/41/45 41/42/46 40/39/43
f 31/41/45 32/43/47 42/44/48 41/42/46
f 32/43/47 33/45/49 43/46/50 42/44/48
f 33/45/49 34/47/51 44/48/52 43/46/50
f 34/47/51 35/49/53 45/50/54 44/48/52
f 35/49/53 36/51/55 46/52/56 45/50/54
f 36/51/55 37/53/57 47/54/58 46/52/56
f 37/53/57 38/55/59 48/56/60 47/54/58
f 38/55/59 29/57/41 39/58/44 48/56/60
s 3
f 39/59/61 40/60/62 49/61/63
f 40/60/62 41/62/64 49/61/63
f 41/62/64 42/63/65 49/61/63
f 42/63/65 43/64/66 49/61/63
f 43/64/66 44/65/67 49/61/63
f 44/65/67 45/66/68 49/61/63
f 45/66/68 46/67/69 49/61/63
f 46/67/69 47/68/70 49/61/63
f 47/68/70 48/69/71 49/61/63
f 48/69/71 39/59/61 49/61/63
s 4
f 50/70/72 51/71/73 63/72/74 57/73/75
f 56/74/76 60/75/77 53/76/78 52/77/79
s off
f 54/78/80 55/79/81 51/71/82 50/70/83
s 4
f 56/74/76 59/80/84 61/81/85 60/75/77
f 59/80/84 58/82/86 62/83/87 61/81/85
f 58/82/86 57/73/75 63/72/74 62/83/87
s off
f 56/84/88 52/85/89 54/86/90 50/87/91 57/88/92 58/89/93 59/90/94
f 51/91/95 55/92/96 53/93/97 60/94/98 61/95/99 62/96/100 63/97/101
s 6
f 75/98/102 72/99/103 80/100/104 81/101/105
s 7
f 74/102/106 75/98/107 81/101/108 82/122/109
s 8
f 72/99/110 73/104/111 83/105/112 80/100/113
s off
f 65/106/114 71/107/115 69/108/116 67/109/117
f 70/110/118 64/111/119 66/112/120 68/113/121
s 8
f 76/114/122 77/115/123 73/104/111 72/99/110
s 7
f 78/116/124 79/117/125 75/98/107 74/102/106
s 6
f 79/117/126 76/114/127 72/99/103 75/98/102
s 8
f 70/118/128 77/115/123 76/114/122 64/111/129
s 7
f 66/112/130 79/117/125 78/123/124 68/119/131
s 6
f 64/111/132 76/114/127 79/117/126 66/112/133
f 81/101/105 80/100/104 65/106/134 67/109/135
s 7
f 82/103/109 81/101/108 67/109/136 69/120/137
s 8
f 80/100/113 83/105/112 71/121/138 65/106/139
