# This file uses centimeters as units for non-parametric coordinates.

mtllib BedsideTable.mtl
g default
v -0.500000 0.067311 0.500000
v 0.500000 0.067311 0.500000
v -0.500000 1.067311 0.500000
v 0.500000 1.067311 0.500000
v -0.500000 1.067311 -0.500000
v 0.500000 1.067311 -0.500000
v -0.500000 0.067311 -0.500000
v 0.500000 0.067311 -0.500000
v -0.396782 0.067311 0.500000
v -0.396782 0.067311 -0.500000
v -0.396782 1.067311 -0.500000
v -0.396782 1.067311 0.500000
v -0.500000 1.067311 -0.390641
v -0.396782 1.067311 -0.390641
v 0.500000 1.067311 -0.390641
v 0.500000 0.067311 -0.390641
v -0.396782 0.067311 -0.390641
v -0.500000 0.067311 -0.390641
v -0.500000 1.067311 0.395937
v -0.396782 1.067311 0.395937
v 0.500000 1.067311 0.395937
v 0.500000 0.067311 0.395937
v -0.396782 0.067311 0.395937
v -0.500000 0.067311 0.395937
v 0.386461 0.067311 0.500000
v 0.386461 0.067311 0.395937
v 0.386461 0.067311 -0.390641
v 0.386461 0.067311 -0.500000
v 0.386461 1.067311 -0.500000
v 0.386461 1.067311 -0.390641
v 0.386461 1.067311 0.395937
v 0.386461 1.067311 0.500000
v -0.500000 0.927059 0.500000
v -0.396782 0.927059 0.500000
v 0.386461 0.927059 0.500000
v 0.500000 0.927059 0.500000
v 0.500000 0.927059 0.395937
v 0.500000 0.927059 -0.390641
v 0.500000 0.927059 -0.500000
v 0.386461 0.927059 -0.500000
v -0.396782 0.927059 -0.500000
v -0.500000 0.927059 -0.500000
v -0.500000 0.927059 -0.390641
v -0.500000 0.927059 0.395937
v 0.384380 0.927059 0.395937
v 0.384380 0.927059 -0.390641
v -0.395807 0.927059 0.395937
v -0.395807 0.927059 -0.390641
vt 0.375000 0.000000
vt 0.625000 0.000000
vt 0.375000 0.250000
vt 0.625000 0.250000
vt 0.375000 0.500000
vt 0.625000 0.500000
vt 0.375000 0.750000
vt 0.625000 0.750000
vt 0.375000 1.000000
vt 0.625000 1.000000
vt 0.875000 0.000000
vt 0.875000 0.250000
vt 0.125000 0.000000
vt 0.125000 0.250000
vt 0.400804 0.500000
vt 0.400804 0.750000
vt 0.400804 0.500000
vt 0.400804 0.250000
vt 0.152340 0.250000
vt 0.375000 0.472660
vt 0.400804 0.472660
vt 0.625000 0.472660
vt 0.847660 0.250000
vt 0.736330 0.388670
vt 0.400804 0.777340
vt 0.263670 0.388670
vt 0.348984 0.250000
vt 0.375000 0.276016
vt 0.400804 0.276016
vt 0.625000 0.276016
vt 0.651016 0.250000
vt 0.638008 0.486992
vt 0.400804 0.973984
vt 0.361992 0.486992
vt 0.596615 0.500000
vt 0.596615 0.973984
vt 0.596615 0.777340
vt 0.596615 0.750000
vt 0.596615 0.500000
vt 0.596615 0.472660
vt 0.596615 0.276016
vt 0.596615 0.250000
vt 0.375000 0.214937
vt 0.400804 0.214937
vt 0.596615 0.214937
vt 0.625000 0.214937
vt 0.651016 0.214937
vt 0.847660 0.214937
vt 0.625000 0.535063
vt 0.875000 0.214937
vt 0.596615 0.535063
vt 0.400804 0.535063
vt 0.125000 0.214937
vt 0.375000 0.535063
vt 0.152340 0.214937
vt 0.348984 0.214937
vt 0.616095 0.214937
vt 0.767267 0.214937
vt 0.380454 0.214937
vt 0.224787 0.214937
vn 0.000000 0.000000 1.000000
vn 0.000000 0.000000 1.000000
vn 0.000000 0.000000 1.000000
vn 0.000000 0.000000 1.000000
vn 0.000000 1.000000 0.000000
vn 0.000000 1.000000 0.000000
vn 0.000000 1.000000 0.000000
vn 0.000000 1.000000 0.000000
vn 0.000000 0.000000 -1.000000
vn 0.000000 0.000000 -1.000000
vn 0.000000 0.000000 -1.000000
vn 0.000000 0.000000 -1.000000
vn 0.000000 -1.000000 0.000000
vn 0.000000 -1.000000 0.000000
vn 0.000000 -1.000000 0.000000
vn 0.000000 -1.000000 0.000000
vn 1.000000 0.000000 0.000000
vn 1.000000 0.000000 0.000000
vn 1.000000 0.000000 0.000000
vn 1.000000 0.000000 0.000000
vn -1.000000 0.000000 0.000000
vn -1.000000 0.000000 0.000000
vn -1.000000 0.000000 0.000000
vn -1.000000 0.000000 0.000000
vn 0.000000 -1.000000 0.000000
vn 0.000000 -1.000000 0.000000
vn 0.000000 -1.000000 0.000000
vn 0.000000 -1.000000 0.000000
vn 0.000000 0.000000 -1.000000
vn 0.000000 0.000000 -1.000000
vn 0.000000 0.000000 -1.000000
vn 0.000000 0.000000 -1.000000
vn 0.000000 1.000000 0.000000
vn 0.000000 1.000000 0.000000
vn 0.000000 1.000000 0.000000
vn 0.000000 1.000000 0.000000
vn 0.000000 0.000000 1.000000
vn 0.000000 0.000000 1.000000
vn 0.000000 0.000000 1.000000
vn 0.000000 0.000000 1.000000
vn 0.000000 1.000000 0.000000
vn 0.000000 1.000000 0.000000
vn 0.000000 1.000000 0.000000
vn 0.000000 1.000000 0.000000
vn 1.000000 0.000000 0.000000
vn 1.000000 0.000000 0.000000
vn -1.000000 0.000000 0.000000
vn -1.000000 0.000000 0.000000
vn 0.000000 1.000000 0.000000
vn 0.000000 1.000000 0.000000
vn 0.000000 1.000000 0.000000
vn 0.000000 1.000000 0.000000
vn 1.000000 0.000000 0.000000
vn 1.000000 0.000000 0.000000
vn 0.000000 -1.000000 0.000000
vn 0.000000 -1.000000 0.000000
vn 0.000000 -1.000000 0.000000
vn 0.000000 -1.000000 0.000000
vn 0.000000 -1.000000 0.000000
vn 0.000000 -1.000000 0.000000
vn 0.000000 -1.000000 0.000000
vn 0.000000 -1.000000 0.000000
vn -1.000000 0.000000 0.000000
vn -1.000000 0.000000 0.000000
vn 0.000000 0.000000 1.000000
vn 0.000000 0.000000 1.000000
vn 0.000000 0.000000 1.000000
vn 0.000000 0.000000 1.000000
vn 1.000000 0.000000 0.000000
vn 1.000000 0.000000 0.000000
vn 1.000000 0.000000 0.000000
vn 1.000000 0.000000 0.000000
vn 0.000000 0.000000 -1.000000
vn 0.000000 0.000000 -1.000000
vn 0.000000 0.000000 -1.000000
vn 0.000000 0.000000 -1.000000
vn -1.000000 0.000000 0.000000
vn -1.000000 0.000000 0.000000
vn -1.000000 0.000000 0.000000
vn -1.000000 0.000000 0.000000
vn 0.000000 -1.000000 0.000000
vn 0.000000 -1.000000 0.000000
vn 0.000000 -1.000000 0.000000
vn 0.000000 -1.000000 0.000000
vn 0.000000 -1.000000 0.000000
vn 0.000000 -1.000000 0.000000
vn 0.000000 -1.000000 0.000000
vn 0.000000 -1.000000 0.000000
vn 0.000000 -1.000000 -0.000000
vn 0.000000 -1.000000 -0.000000
vn 0.000000 -1.000000 -0.000000
vn 0.000000 -1.000000 -0.000000
vn 0.000000 -1.000000 0.000000
vn 0.000000 -1.000000 0.000000
vn 0.000000 -1.000000 0.000000
vn 0.000000 -1.000000 0.000000
vn -0.999949 -0.001210 0.010000
vn -0.999949 -0.001210 0.010000
vn -0.999949 -0.001210 0.010000
vn -0.999949 -0.001210 0.010000
vn 0.000000 0.000000 -1.000000
vn 0.000000 0.000000 -1.000000
vn 0.000000 0.000000 -1.000000
vn 0.000000 0.000000 -1.000000
vn 0.999989 -0.000567 0.004685
vn 0.999989 -0.000567 0.004685
vn 0.999989 -0.000567 0.004685
vn 0.999989 -0.000567 0.004685
vn 0.000000 0.000000 -1.000000
vn 0.000000 0.000000 -1.000000
vn 0.000000 0.000000 -1.000000
vn 0.000000 0.000000 -1.000000
vn -0.999954 -0.001210 -0.009516
vn -0.999954 -0.001210 -0.009516
vn -0.999954 -0.001210 -0.009516
vn -0.999954 -0.001210 -0.009516
vn 0.000000 0.000000 1.000000
vn 0.000000 0.000000 1.000000
vn 0.000000 0.000000 1.000000
vn 0.000000 0.000000 1.000000
vn 0.000000 0.000000 1.000000
vn 0.000000 0.000000 1.000000
vn 0.000000 0.000000 1.000000
vn 0.000000 0.000000 1.000000
vn 0.999990 -0.000567 -0.004458
vn 0.999990 -0.000567 -0.004458
vn 0.999990 -0.000567 -0.004458
vn 0.999990 -0.000567 -0.004458
s 1
g pCube14
usemtl initialShadingGroup
f 32/42/1 35/45/2 36/46/3 4/4/4
s 2
f 29/39/5 30/40/6 15/22/7 6/6/8
s 3
f 39/49/9 40/51/10 29/39/11 6/6/12
s off
f 16/24/13 27/37/14 28/38/15 8/8/16
s 4
f 15/23/17 38/48/18 39/50/19 6/12/20
s 5
f 42/53/21 43/55/22 13/19/23 5/14/24
s off
f 7/7/25 10/16/26 17/25/27 18/26/28
s 3
f 5/5/29 11/17/30 41/52/31 42/54/32
s 2
f 13/20/33 14/21/34 11/17/35 5/5/36
s 1
f 33/43/37 34/44/38 12/18/39 3/3/40
s 2
f 19/28/41 20/29/42 14/21/34 13/20/33
f 15/22/7 30/40/6 31/41/43 21/30/44
s 4
f 21/31/45 37/47/46 38/48/18 15/23/17
s 5
f 13/19/23 43/55/22 44/56/47 19/27/48
s 2
f 3/3/49 12/18/50 20/29/42 19/28/41
f 21/30/44 31/41/43 32/42/51 4/4/52
s 4
f 36/46/53 37/47/46 21/31/45 4/4/54
s off
f 25/35/55 26/36/56 22/32/57 2/10/58
f 24/34/59 23/33/60 9/15/61 1/9/62
s 5
f 19/27/48 44/56/47 33/43/63 3/3/64
s 3
f 40/51/10 41/52/31 11/17/30 29/39/11
s 2
f 11/17/35 14/21/34 30/40/6 29/39/5
f 31/41/43 30/40/6 14/21/34 20/29/42
f 32/42/51 31/41/43 20/29/42 12/18/50
s 1
f 12/18/39 34/44/38 35/45/2 32/42/1
f 1/1/65 9/15/66 34/44/38 33/43/37
f 36/46/3 35/45/2 25/35/67 2/2/68
s 4
f 2/2/69 22/32/70 37/47/46 36/46/53
f 39/50/19 38/48/18 16/24/71 8/11/72
s 3
f 28/38/73 40/51/10 39/49/9 8/8/74
f 42/54/32 41/52/31 10/16/75 7/7/76
s 5
f 7/13/77 18/26/78 43/55/22 42/53/21
f 33/43/63 44/56/47 24/34/79 1/1/80
s 8
f 38/48/81 37/47/82 45/57/83 46/58/84
f 46/58/84 45/57/83 47/59/85 48/60/86
f 48/60/86 47/59/85 44/56/87 43/55/88
s off
f 41/52/89 40/51/90 46/58/91 48/60/92
f 35/45/93 34/44/94 47/59/95 45/57/96
f 26/36/97 25/35/98 35/45/99 45/57/100
f 22/32/101 26/36/102 45/57/103 37/47/104
f 9/15/105 23/33/106 47/59/107 34/44/108
f 23/33/109 24/34/110 44/56/111 47/59/112
f 28/38/113 27/37/114 46/58/115 40/51/116
f 27/37/117 16/24/118 38/48/119 46/58/120
f 18/26/121 17/25/122 48/60/123 43/55/124
f 17/25/125 10/16/126 41/52/127 48/60/128
