# This file uses centimeters as units for non-parametric coordinates.

mtllib OverheadCabinets.mtl
g default
v 1.940628 2.541779 -3.863769
v 1.940628 2.541779 -4.863769
v 1.940628 3.804120 -3.863769
v 1.940628 3.804120 -4.863769
v -2.791654 3.804120 -3.863769
v -2.791654 3.804120 -4.863769
v -2.791654 2.541779 -3.863769
v -2.791654 2.541779 -4.863769
vt 0.375000 0.000000
vt 0.625000 0.000000
vt 0.625000 0.250000
vt 0.375000 0.250000
vt 0.625000 0.500000
vt 0.375000 0.500000
vt 0.625000 0.750000
vt 0.375000 0.750000
vt 0.625000 1.000000
vt 0.375000 1.000000
vt 0.875000 0.000000
vt 0.875000 0.250000
vn 1.000000 0.000000 0.000000
vn 1.000000 0.000000 0.000000
vn 1.000000 0.000000 0.000000
vn 1.000000 0.000000 0.000000
vn 0.000000 1.000000 0.000000
vn 0.000000 1.000000 0.000000
vn 0.000000 1.000000 0.000000
vn 0.000000 1.000000 0.000000
vn -1.000000 0.000000 -0.000000
vn -1.000000 0.000000 -0.000000
vn -1.000000 0.000000 -0.000000
vn -1.000000 0.000000 -0.000000
vn 0.000000 -1.000000 0.000000
vn 0.000000 -1.000000 0.000000
vn 0.000000 -1.000000 0.000000
vn 0.000000 -1.000000 0.000000
vn 0.000000 0.000000 -1.000000
vn 0.000000 0.000000 -1.000000
vn 0.000000 0.000000 -1.000000
vn 0.000000 0.000000 -1.000000
vn 0.000000 0.000000 1.000000
vn 0.000000 0.000000 1.000000
vn 0.000000 0.000000 1.000000
vn 0.000000 0.000000 1.000000
s off
g polySurface65 ConceptHouse1:pPlane21
usemtl initialShadingGroup
f 1/1/1 2/2/2 4/3/3 3/4/4
f 4/3/5 6/5/6 5/6/7 3/4/8
f 5/6/9 6/5/10 8/7/11 7/8/12
f 7/8/13 8/7/14 2/9/15 1/10/16
f 8/11/17 6/12/18 4/3/19 2/2/20
f 3/4/21 5/6/22 7/8/23 1/1/24
