# This file uses centimeters as units for non-parametric coordinates.

mtllib TVTable.mtl
g default
v 0.500218 -0.002882 1.373293
v 0.499782 -0.002882 -1.373452
v 0.500218 0.997118 1.373293
v 0.499782 0.997118 -1.373452
v -0.499782 0.997118 1.373452
v -0.500218 0.997118 -1.373293
v -0.499782 -0.002882 1.373452
v -0.500218 -0.002882 -1.373293
v -0.500000 0.997118 0.000079
v 0.500000 0.997118 -0.000080
v 0.499825 -0.002882 -1.098778
v 0.499825 0.997118 -1.098778
v -0.500175 0.997118 -1.098619
v -0.500175 -0.002882 -1.098619
v 0.500174 -0.002882 1.098618
v -0.499826 -0.002882 1.098778
v -0.499826 0.997118 1.098778
v 0.500174 0.997118 1.098618
v 0.500218 0.797118 1.373293
v 0.500174 0.797118 1.098618
v 0.500000 0.797118 -0.000080
v 0.499825 0.797118 -1.098778
v 0.499782 0.797118 -1.373452
v -0.500218 0.797118 -1.373293
v -0.500175 0.797118 -1.098619
v -0.500000 0.797118 0.000079
v -0.499826 0.797118 1.098778
v -0.499782 0.797118 1.373452
vt 0.500000 0.250000
vt 0.500000 0.200000
vt 0.600000 0.200000
vt 0.600000 0.250000
vt 0.500000 0.500000
vt 0.600000 0.500000
vt 0.600000 0.550000
vt 0.500000 0.550000
vt 0.625000 0.200000
vt 0.875000 0.200000
vt 0.875000 0.250000
vt 0.625000 0.250000
vt 0.125000 0.200000
vt 0.375000 0.200000
vt 0.375000 0.250000
vt 0.125000 0.250000
vt 0.400000 0.550000
vt 0.400000 0.500000
vt 0.400000 0.250000
vt 0.400000 0.200000
vt 0.625000 0.500000
vt 0.625000 0.550000
vt 0.600000 1.000000
vt 0.600000 0.750000
vt 0.625000 0.750000
vt 0.625000 1.000000
vt 0.375000 0.750000
vt 0.400000 0.750000
vt 0.400000 1.000000
vt 0.375000 1.000000
vt 0.375000 0.500000
vt 0.375000 0.550000
vt 0.375000 0.000000
vt 0.400000 0.000000
vt 0.600000 0.000000
vt 0.625000 0.000000
vt 0.875000 0.000000
vt 0.125000 0.000000
vn 1.000000 0.000000 -0.000159
vn 1.000000 0.000000 -0.000159
vn 1.000000 -0.000000 -0.000159
vn 1.000000 0.000000 -0.000159
vn 0.000000 1.000000 0.000000
vn 0.000000 1.000000 0.000000
vn 0.000000 1.000000 0.000000
vn 0.000000 1.000000 0.000000
vn -1.000000 -0.000000 0.000159
vn -1.000000 0.000000 0.000159
vn -1.000000 0.000000 0.000159
vn -1.000000 -0.000000 0.000159
vn -0.000159 0.000000 -1.000000
vn -0.000159 0.000000 -1.000000
vn -0.000159 0.000003 -1.000000
vn -0.000159 0.000003 -1.000000
vn 0.000159 -0.000000 1.000000
vn 0.000159 0.000000 1.000000
vn 0.000159 0.000002 1.000000
vn 0.000159 0.000002 1.000000
vn -1.000000 0.000000 0.000159
vn -1.000000 0.000000 0.000159
vn 0.000000 1.000000 0.000000
vn 0.000000 1.000000 0.000000
vn 1.000000 -0.000000 -0.000159
vn 1.000000 -0.000000 -0.000159
vn 1.000000 -0.000000 -0.000159
vn 1.000000 0.000000 -0.000159
vn 0.000000 1.000000 0.000000
vn 0.000000 1.000000 0.000000
vn -1.000000 0.000000 0.000159
vn -1.000000 -0.000001 0.000159
vn 0.000000 -1.000000 0.000000
vn 0.000000 -1.000000 0.000000
vn 0.000000 -1.000000 0.000000
vn 0.000000 -1.000000 0.000000
vn 0.000000 -1.000000 0.000000
vn 0.000000 -1.000000 0.000000
vn 0.000000 -1.000000 0.000000
vn 0.000000 -1.000000 0.000000
vn -1.000000 0.000000 0.000159
vn -1.000000 0.000000 0.000159
vn 0.000000 1.000000 0.000000
vn 0.000000 1.000000 0.000000
vn 1.000000 0.000000 -0.000160
vn 1.000000 -0.000001 -0.000160
vn 1.000000 0.000000 -0.000160
vn 1.000000 0.000000 -0.000160
vn 1.000000 -0.000000 -0.000158
vn 1.000000 -0.000000 -0.000158
vn -0.000159 -0.000001 -1.000000
vn -0.000159 -0.000001 -1.000000
vn -1.000000 0.000000 0.000159
vn -1.000000 0.000000 0.000159
vn -1.000000 0.000000 0.000159
vn -1.000000 0.000000 0.000159
vn 0.000159 -0.000000 1.000000
vn 0.000159 -0.000000 1.000000
vn -0.000000 -1.000000 -0.000000
vn -0.000000 -1.000000 -0.000000
vn -0.000000 -1.000000 -0.000000
vn -0.000000 -1.000000 -0.000000
vn 0.000000 -1.000000 0.000000
vn 0.000000 -1.000000 0.000000
vn 0.000000 -1.000000 0.000000
vn 0.000000 -1.000000 0.000000
vn 0.000159 0.000000 1.000000
vn 0.000159 0.000000 1.000000
vn 0.000159 0.000000 1.000000
vn 0.000159 0.000000 1.000000
vn -0.000159 0.000000 -1.000000
vn -0.000159 0.000000 -1.000000
vn -0.000159 0.000000 -1.000000
vn -0.000159 0.000000 -1.000000
s 1
g polySurface8 ConceptHouse1:pPlane21
usemtl initialShadingGroup
f 10/1/1 21/2/2 22/3/3 12/4/4
s 2
f 9/5/5 10/1/6 12/4/7 13/6/8
s 3
f 25/7/9 26/8/10 9/5/11 13/6/12
s 4
f 23/9/13 24/10/14 6/11/15 4/12/16
s 5
f 28/13/17 19/14/18 3/15/19 5/16/20
s 3
f 26/8/10 27/17/21 17/18/22 9/5/11
s 2
f 17/18/23 18/19/24 10/1/6 9/5/5
s 1
f 18/19/25 20/20/26 21/2/2 10/1/1
f 12/4/4 22/3/3 23/9/27 4/12/28
s 2
f 13/6/8 12/4/7 4/12/29 6/21/30
s 3
f 24/22/31 25/7/9 13/6/12 6/21/32
s off
f 11/23/33 14/24/34 8/25/35 2/26/36
f 7/27/37 16/28/38 15/29/39 1/30/40
s 3
f 5/31/41 17/18/22 27/17/21 28/32/42
s 2
f 3/15/43 18/19/24 17/18/23 5/31/44
s 1
f 19/14/45 20/20/26 18/19/25 3/15/46
f 1/33/47 15/34/48 20/20/26 19/14/45
f 23/9/27 22/3/3 11/35/49 2/36/50
s 4
f 2/36/51 8/37/52 24/10/14 23/9/13
s 3
f 14/24/53 25/7/9 24/22/31 8/25/54
f 28/32/42 27/17/21 16/28/55 7/27/56
s 5
f 7/38/57 1/33/58 19/14/18 28/13/17
s off
f 22/3/59 21/2/60 26/8/61 25/7/62
f 21/2/63 20/20/64 27/17/65 26/8/66
f 22/3/67 25/7/68 14/24/69 11/35/70
f 16/28/71 27/17/72 20/20/73 15/29/74
