# This file uses centimeters as units for non-parametric coordinates.

mtllib Sofa.mtl
g default
v 6.899021 0.067940 -1.898815
v 3.283336 0.067940 -1.981885
v 6.899021 1.067940 -1.898815
v 3.283336 1.067940 -1.981885
v 6.876052 1.067940 -0.899078
v 3.260367 1.067940 -0.982149
v 6.876052 0.067940 -0.899078
v 3.260367 0.067940 -0.982149
v 5.091179 0.067940 -1.940350
v 5.068210 0.067940 -0.940614
v 5.068210 1.067940 -0.940614
v 5.091179 0.759051 -1.940350
v 6.537452 0.067940 -1.907122
v 6.514483 0.067940 -0.907385
v 6.514483 1.067940 -0.907385
v 6.537452 0.759051 -1.907122
v 3.644905 0.067940 -1.973578
v 3.644905 0.759051 -1.973578
v 3.621936 1.067940 -0.973842
v 3.621936 0.067940 -0.973842
v 6.880646 1.067940 -1.099026
v 6.519077 0.759051 -1.107333
v 5.072803 0.759051 -1.140561
v 3.626530 0.759051 -1.173789
v 3.264961 1.067940 -1.182096
v 3.264961 0.067940 -1.182096
v 3.626530 0.067940 -1.173789
v 5.072803 0.067940 -1.140561
v 6.519077 0.067940 -1.107333
v 6.880646 0.067940 -1.099026
v 5.068210 1.490556 -0.940614
v 5.072803 1.490556 -1.140561
v 3.626530 1.171587 -1.173789
v 3.621936 1.490556 -0.973842
v 6.514483 1.490556 -0.907385
v 6.519077 1.171587 -1.107333
v 6.880646 1.171587 -1.099026
v 6.876052 1.490556 -0.899078
v 3.264961 1.171587 -1.182096
v 3.260367 1.490556 -0.982149
v 6.899021 1.171587 -1.898815
v 6.537452 1.171587 -1.907122
v 3.644905 1.171587 -1.973578
v 3.283336 1.171587 -1.981885
v 5.068210 1.651790 -0.940614
v 5.072803 1.651790 -1.140561
v 3.626530 1.651790 -1.173789
v 3.621936 1.651790 -0.973842
v 6.514483 1.651790 -0.907385
v 6.519077 1.651790 -1.107333
v 6.880646 1.651790 -1.099026
v 6.876052 1.651790 -0.899078
v 3.264961 1.651790 -1.182096
v 3.260367 1.651790 -0.982149
vt 0.500000 0.250000
vt 0.500000 0.000000
vt 0.600000 0.000000
vt 0.600000 0.250000
vt 0.500000 0.500000
vt 0.500000 0.450000
vt 0.600000 0.450000
vt 0.600000 0.500000
vt 0.500000 0.750000
vt 0.500000 0.500000
vt 0.600000 0.500000
vt 0.600000 0.750000
vt 0.600000 0.800000
vt 0.500000 0.800000
vt 0.825000 0.250000
vt 0.825000 0.000000
vt 0.875000 0.000000
vt 0.875000 0.250000
vt 0.125000 0.000000
vt 0.175000 0.000000
vt 0.175000 0.250000
vt 0.125000 0.250000
vt 0.400000 0.800000
vt 0.400000 0.750000
vt 0.400000 0.500000
vt 0.400000 0.500000
vt 0.400000 0.450000
vt 0.400000 0.250000
vt 0.400000 0.000000
vt 0.375000 0.750000
vt 0.375000 0.800000
vt 0.375000 0.500000
vt 0.375000 0.450000
vt 0.375000 0.500000
vt 0.375000 0.000000
vt 0.375000 0.250000
vt 0.625000 0.000000
vt 0.625000 0.250000
vt 0.625000 0.450000
vt 0.625000 0.500000
vt 0.625000 0.500000
vt 0.625000 0.750000
vt 0.625000 0.800000
vt 0.375000 0.250000
vt 0.400000 0.250000
vt 0.400000 0.450000
vt 0.375000 0.450000
vt 0.500000 0.450000
vt 0.400000 0.450000
vt 0.600000 0.450000
vt 0.625000 0.450000
vt 0.600000 0.450000
vt 0.600000 0.250000
vt 0.625000 0.250000
vt 0.600000 1.000000
vt 0.625000 1.000000
vt 0.500000 1.000000
vt 0.400000 1.000000
vt 0.375000 1.000000
vt 0.500000 0.450000
vt 0.500000 0.500000
vt 0.600000 0.500000
vt 0.400000 0.500000
vt 0.375000 0.500000
vt 0.375000 0.450000
vt 0.625000 0.450000
vt 0.625000 0.500000
vn 0.022969 0.000000 -0.999736
vn 0.022969 0.000000 -0.999736
vn 0.022969 0.000000 -0.999736
vn 0.022969 0.000000 -0.999736
vn -0.000000 1.000000 0.000000
vn -0.000000 1.000000 0.000000
vn -0.000000 1.000000 0.000000
vn -0.000000 1.000000 0.000000
vn -0.022969 0.000000 0.999736
vn -0.022969 0.000000 0.999736
vn -0.022969 0.000000 0.999736
vn -0.022969 0.000000 0.999736
vn -0.000000 -1.000000 -0.000000
vn -0.000000 -1.000000 -0.000000
vn -0.000000 -1.000000 -0.000000
vn -0.000000 -1.000000 -0.000000
vn -0.999736 0.000000 -0.022969
vn -0.999736 0.000000 -0.022969
vn -0.999736 0.000000 -0.022970
vn -0.999736 0.000000 -0.022970
vn 0.999736 0.000000 0.022969
vn 0.999736 0.000000 0.022969
vn 0.999736 0.000000 0.022969
vn 0.999736 0.000000 0.022969
vn -0.000000 -1.000000 -0.000000
vn -0.000000 -1.000000 -0.000000
vn -0.022969 0.000000 0.999736
vn -0.022969 0.000000 0.999736
vn -0.000000 1.000000 -0.000000
vn -0.000000 1.000000 -0.000000
vn 0.022969 0.000000 -0.999736
vn 0.022969 0.000000 -0.999736
vn 0.000000 -1.000000 0.000000
vn 0.000000 -1.000000 0.000000
vn -0.022969 0.000000 0.999736
vn -0.022969 0.000000 0.999736
vn -0.000000 1.000000 -0.000000
vn -0.000000 1.000000 -0.000000
vn 0.022969 0.000000 -0.999736
vn 0.022969 0.000000 -0.999736
vn 0.022969 0.000000 -0.999736
vn 0.022969 0.000000 -0.999736
vn -0.000000 1.000000 0.000000
vn -0.000000 1.000000 0.000000
vn -0.022969 0.000000 0.999736
vn -0.022969 0.000000 0.999736
vn 0.000000 -1.000000 0.000000
vn 0.000000 -1.000000 0.000000
vn -0.000000 1.000000 -0.000000
vn -0.000000 1.000000 -0.000000
vn -0.000000 1.000000 -0.000000
vn -0.000000 1.000000 -0.000000
vn 0.000000 1.000000 0.000000
vn 0.000000 1.000000 0.000000
vn 0.000000 1.000000 0.000000
vn 0.000000 1.000000 0.000000
vn 0.000000 1.000000 0.000000
vn 0.000000 1.000000 0.000000
vn -0.000000 1.000000 0.000000
vn -0.000000 1.000000 0.000000
vn -0.000000 1.000000 0.000000
vn -0.000000 1.000000 0.000000
vn -0.999736 0.000000 -0.022969
vn -0.999736 0.000000 -0.022969
vn 0.000000 -1.000000 0.000000
vn 0.000000 -1.000000 0.000000
vn 0.000000 -1.000000 0.000000
vn 0.000000 -1.000000 0.000000
vn 0.000000 -1.000000 0.000000
vn 0.999736 0.000000 0.022969
vn 0.999736 0.000000 0.022969
vn 0.022969 0.000000 -0.999736
vn 0.022969 0.000000 -0.999736
vn 0.022969 0.000000 -0.999736
vn 0.022969 0.000000 -0.999736
vn -0.022969 0.000000 0.999736
vn -0.022969 0.000000 0.999736
vn 0.022969 0.000000 -0.999736
vn 0.022969 0.000000 -0.999736
vn -0.022969 0.000000 0.999736
vn -0.022969 0.000000 0.999736
vn 0.999736 0.000000 0.022969
vn 0.999736 0.000000 0.022969
vn -0.999736 0.000000 -0.022970
vn -0.999736 0.000000 -0.022969
vn -0.022969 0.000000 0.999736
vn 0.022969 0.000000 -0.999736
vn 0.022969 0.000000 -0.999736
vn -0.999736 0.000000 -0.022969
vn -0.999736 0.000000 -0.022969
vn -0.999736 0.000000 -0.022969
vn -0.999736 0.000000 -0.022969
vn 0.999736 0.000000 0.022969
vn 0.999736 0.000000 0.022969
vn 0.999736 0.000000 0.022969
vn 0.999736 0.000000 0.022969
vn 0.999736 0.000000 0.022969
vn 0.022969 0.000000 -0.999736
vn 0.022969 0.000000 -0.999736
vn -0.999736 0.000000 -0.022969
vn 0.022969 0.000000 -0.999736
vn 0.022969 0.000000 -0.999736
vn -0.022969 0.000000 0.999736
vn -0.022969 0.000000 0.999736
vn 0.022969 0.000000 -0.999736
vn -0.022969 0.000000 0.999736
vn 0.022969 0.000000 -0.999736
vn 0.022969 0.000000 -0.999736
vn -0.022969 0.000000 0.999736
vn 0.999736 0.000000 0.022969
vn 0.999736 0.000000 0.022969
vn 0.022969 0.000000 -0.999736
vn 0.022969 0.000000 -0.999736
vn -0.999736 0.000000 -0.022970
vn -0.999736 0.000000 -0.022970
vn -0.022969 0.000000 0.999736
s 1
g polySurface60 ConceptHouse1:pPlane21
usemtl initialShadingGroup
f 12/1/1 9/2/2 17/3/3 18/4/4
s 2
f 45/5/5 46/6/6 47/7/7 48/8/8
s 3
f 10/9/9 11/10/10 19/11/11 20/12/12
s 4
f 27/13/13 28/14/14 10/9/15 20/12/16
s 5
f 25/15/17 26/16/18 8/17/19 6/18/20
s 6
f 7/19/21 30/20/22 21/21/23 5/22/24
s 4
f 28/14/14 29/23/25 14/24/26 10/9/15
s 3
f 14/24/27 15/25/28 11/10/10 10/9/9
s 2
f 49/26/29 50/27/30 46/6/6 45/5/5
s 1
f 16/28/31 13/29/32 9/2/2 12/1/1
s 4
f 7/30/33 14/24/26 29/23/25 30/31/34
s 3
f 5/32/35 15/25/28 14/24/27 7/30/36
s 2
f 51/33/37 50/27/30 49/26/29 52/34/38
s 1
f 1/35/39 13/29/32 16/28/31 3/36/40
f 18/4/4 17/3/3 2/37/41 4/38/42
s 2
f 48/8/8 47/7/7 53/39/43 54/40/44
s 3
f 20/12/12 19/11/11 6/41/45 8/42/46
s 4
f 26/43/47 27/13/13 20/12/16 8/42/48
s off
f 41/44/49 42/45/50 36/46/51 37/47/52
s 7
f 23/48/53 22/49/54 16/28/55 12/1/56
f 24/50/57 23/48/53 12/1/56 18/4/58
s off
f 39/51/59 33/52/60 43/53/61 44/54/62
s 5
f 2/37/63 26/16/18 25/15/17 4/38/64
s 4
f 17/55/65 27/13/13 26/43/47 2/56/66
f 9/57/67 28/14/14 27/13/13 17/55/65
f 13/58/68 29/23/25 28/14/14 9/57/67
f 30/31/34 29/23/25 13/58/68 1/59/69
s 6
f 21/21/23 30/20/22 1/35/70 3/36/71
s 8
f 23/48/72 24/50/73 33/52/74 32/60/75
s 3
f 19/11/11 11/10/10 31/61/76 34/62/77
s 8
f 22/49/78 23/48/72 32/60/75 36/46/79
s 3
f 11/10/10 15/25/28 35/63/80 31/61/76
f 15/25/28 5/32/35 38/64/81 35/63/80
s 6
f 5/32/24 21/65/23 37/47/82 38/64/83
s 5
f 25/66/17 6/41/20 40/67/84 39/51/85
s 3
f 6/41/45 19/11/11 34/62/77 40/67/86
s 1
f 3/36/40 16/28/31 42/45/87 41/44/88
s off
f 16/28/89 22/49/90 36/46/91 42/45/92
s 6
f 21/65/23 3/36/71 41/44/93 37/47/82
s off
f 24/50/94 18/4/95 43/53/96 33/52/97
s 1
f 18/4/4 4/38/42 44/54/98 43/53/99
s 5
f 4/38/64 25/66/17 39/51/85 44/54/100
s 8
f 32/60/75 33/52/74 47/7/101 46/6/102
s 3
f 34/62/77 31/61/76 45/5/103 48/8/104
s 8
f 36/46/79 32/60/75 46/6/102 50/27/105
s 3
f 31/61/76 35/63/80 49/26/106 45/5/103
s 8
f 37/47/107 36/46/79 50/27/105 51/33/108
s 3
f 35/63/80 38/64/81 52/34/109 49/26/106
s 6
f 38/64/83 37/47/82 51/33/110 52/34/111
s 8
f 33/52/74 39/51/112 53/39/113 47/7/101
s 5
f 39/51/85 40/67/84 54/40/114 53/39/115
s 3
f 40/67/86 34/62/77 48/8/104 54/40/116
