# This file uses centimeters as units for non-parametric coordinates.

mtllib ToiletBrush.mtl
g default
v -6.480284 0.043284 4.401420
v -6.613909 0.043284 4.346071
v -6.747534 0.043284 4.401420
v -6.802883 0.043284 4.535045
v -6.747534 0.043284 4.668671
v -6.613909 0.043284 4.724020
v -6.480284 0.043284 4.668671
v -6.424935 0.043284 4.535045
v -6.544554 0.407968 4.465691
v -6.613909 0.407968 4.436963
v -6.683264 0.407968 4.465691
v -6.711991 0.407968 4.535045
v -6.683264 0.407968 4.604400
v -6.613909 0.407968 4.633128
v -6.544554 0.407968 4.604400
v -6.515827 0.407968 4.535045
v -6.613909 0.043284 4.535045
v -6.566649 0.407968 4.487785
v -6.613909 0.407968 4.468210
v -6.661169 0.407968 4.487785
v -6.680745 0.407968 4.535045
v -6.661169 0.407968 4.582306
v -6.613909 0.407968 4.601881
v -6.566649 0.407968 4.582306
v -6.547073 0.407968 4.535045
v -6.566649 0.759067 4.487785
v -6.613909 0.759067 4.468210
v -6.661169 0.759067 4.487785
v -6.680745 0.759067 4.535045
v -6.661169 0.759067 4.582306
v -6.613909 0.759067 4.601881
v -6.566649 0.759067 4.582306
v -6.547073 0.759067 4.535045
v -6.557935 1.027730 4.479071
v -6.613909 1.027730 4.455886
v -6.613909 1.027730 4.535045
v -6.669884 1.027730 4.479072
v -6.693069 1.027730 4.535045
v -6.669883 1.027730 4.591019
v -6.613909 1.027730 4.614205
v -6.557935 1.027730 4.591019
v -6.534750 1.027730 4.535045
v -6.555587 0.758350 4.476724
v -6.613909 0.758350 4.452566
v -6.613909 1.027012 4.440243
v -6.546873 1.027012 4.468010
v -6.672231 0.758350 4.476724
v -6.680945 1.027012 4.468010
v -6.696389 0.758350 4.535045
v -6.708712 1.027012 4.535045
v -6.672231 0.758350 4.593367
v -6.680945 1.027012 4.602081
v -6.613909 0.758350 4.617525
v -6.613909 1.027012 4.629848
v -6.555587 0.758350 4.593367
v -6.546873 1.027012 4.602081
v -6.531430 0.758350 4.535045
v -6.519106 1.027012 4.535045
vt 0.610485 0.045765
vt 0.500000 0.000000
vt 0.389515 0.045765
vt 0.343750 0.156250
vt 0.389515 0.266735
vt 0.500000 0.312500
vt 0.610485 0.266735
vt 0.656250 0.156250
vt 0.375000 0.312500
vt 0.406250 0.312500
vt 0.437500 0.312500
vt 0.468750 0.312500
vt 0.500000 0.312500
vt 0.531250 0.312500
vt 0.562500 0.312500
vt 0.593750 0.312500
vt 0.625000 0.312500
vt 0.375000 0.688440
vt 0.406250 0.688440
vt 0.437500 0.688440
vt 0.468750 0.688440
vt 0.500000 0.688440
vt 0.531250 0.688440
vt 0.562500 0.688440
vt 0.593750 0.688440
vt 0.625000 0.688440
vt 0.610485 0.733265
vt 0.500000 0.687500
vt 0.389515 0.733265
vt 0.343750 0.843750
vt 0.389515 0.954235
vt 0.500000 1.000000
vt 0.610485 0.954235
vt 0.656250 0.843750
vt 0.500000 0.150000
vt 0.500000 0.837500
vt 0.610485 0.954235
vt 0.500000 1.000000
vt 0.389515 0.954235
vt 0.343750 0.843750
vt 0.389515 0.733265
vt 0.500000 0.687500
vt 0.610485 0.733265
vt 0.656250 0.843750
vt 0.610485 0.954235
vt 0.500000 1.000000
vt 0.389515 0.954235
vt 0.343750 0.843750
vt 0.389515 0.733265
vt 0.500000 0.687500
vt 0.610485 0.733265
vt 0.656250 0.843750
vt 0.610485 0.954235
vt 0.500000 1.000000
vt 0.389515 0.954235
vt 0.343750 0.843750
vt 0.389515 0.733265
vt 0.500000 0.687500
vt 0.610485 0.733265
vt 0.656250 0.843750
vt 0.610485 0.954235
vt 0.500000 1.000000
vt 0.500000 1.000000
vt 0.610485 0.954235
vt 0.389515 0.954235
vt 0.389515 0.954235
vt 0.343750 0.843750
vt 0.343750 0.843750
vt 0.389515 0.733265
vt 0.389515 0.733265
vt 0.500000 0.687500
vt 0.500000 0.687500
vt 0.610485 0.733265
vt 0.610485 0.733265
vt 0.656250 0.843750
vt 0.656250 0.843750
vn 0.372924 0.224391 -0.900320
vn 0.372924 0.224391 -0.900320
vn 0.372924 0.224391 -0.900320
vn 0.372924 0.224391 -0.900320
vn -0.372924 0.224391 -0.900320
vn -0.372924 0.224391 -0.900320
vn -0.372924 0.224391 -0.900320
vn -0.372924 0.224391 -0.900320
vn -0.900320 0.224391 -0.372925
vn -0.900320 0.224391 -0.372925
vn -0.900320 0.224391 -0.372925
vn -0.900320 0.224391 -0.372925
vn -0.900320 0.224391 0.372925
vn -0.900320 0.224391 0.372925
vn -0.900320 0.224391 0.372925
vn -0.900320 0.224391 0.372925
vn -0.372925 0.224391 0.900320
vn -0.372925 0.224391 0.900320
vn -0.372925 0.224391 0.900320
vn -0.372925 0.224391 0.900320
vn 0.372924 0.224391 0.900320
vn 0.372924 0.224391 0.900320
vn 0.372924 0.224391 0.900320
vn 0.372924 0.224391 0.900320
vn 0.900320 0.224391 0.372924
vn 0.900320 0.224391 0.372925
vn 0.900320 0.224391 0.372925
vn 0.900320 0.224391 0.372925
vn 0.900320 0.224391 -0.372925
vn 0.900320 0.224391 -0.372925
vn 0.900320 0.224391 -0.372925
vn 0.900320 0.224391 -0.372925
vn 0.000000 -1.000000 -0.000000
vn 0.000000 -1.000000 -0.000000
vn 0.000000 -1.000000 -0.000000
vn 0.000000 -1.000000 0.000000
vn 0.000000 -1.000000 0.000000
vn 0.000000 -1.000000 -0.000000
vn 0.000000 -1.000000 -0.000000
vn 0.000000 -1.000000 0.000000
vn 0.000000 -1.000000 0.000000
vn 0.013615 0.999815 -0.013616
vn -0.000000 0.999815 -0.019255
vn 0.000000 1.000000 -0.000000
vn -0.013615 0.999815 -0.013615
vn -0.019255 0.999815 -0.000001
vn -0.013615 0.999815 0.013616
vn 0.000000 0.999815 0.019257
vn 0.013615 0.999815 0.013617
vn 0.019255 0.999815 0.000000
vn 0.000000 1.000000 0.000000
vn -0.000000 1.000000 0.000000
vn -0.000000 1.000000 0.000000
vn 0.000000 1.000000 -0.000000
vn 0.000000 1.000000 0.000000
vn 0.000000 1.000000 0.000000
vn 0.000001 1.000000 -0.000000
vn 0.000001 1.000000 -0.000000
vn 0.000000 1.000000 -0.000000
vn 0.000000 1.000000 -0.000000
vn 0.000000 1.000000 -0.000000
vn 0.000000 1.000000 -0.000000
vn 0.000000 1.000000 0.000000
vn 0.000000 1.000000 0.000000
vn 0.000000 1.000000 0.000000
vn 0.000000 1.000000 0.000000
vn 0.382683 0.000000 -0.923880
vn 0.382683 0.000000 -0.923880
vn 0.382683 0.000000 -0.923880
vn 0.382683 0.000000 -0.923880
vn -0.382682 -0.000000 -0.923880
vn -0.382682 -0.000000 -0.923880
vn -0.382682 -0.000000 -0.923880
vn -0.382682 -0.000000 -0.923880
vn -0.923879 -0.000001 -0.382684
vn -0.923879 -0.000001 -0.382684
vn -0.923879 -0.000001 -0.382684
vn -0.923879 -0.000001 -0.382684
vn -0.923879 -0.000000 0.382684
vn -0.923879 -0.000000 0.382684
vn -0.923879 -0.000000 0.382684
vn -0.923879 -0.000000 0.382684
vn -0.382684 0.000000 0.923879
vn -0.382684 0.000000 0.923879
vn -0.382684 0.000000 0.923879
vn -0.382684 0.000000 0.923879
vn 0.382684 0.000000 0.923879
vn 0.382684 0.000000 0.923879
vn 0.382684 0.000000 0.923879
vn 0.382684 0.000000 0.923879
vn 0.923880 0.000000 0.382683
vn 0.923880 0.000000 0.382683
vn 0.923880 0.000000 0.382683
vn 0.923880 0.000000 0.382683
vn 0.923879 0.000000 -0.382684
vn 0.923879 0.000000 -0.382684
vn 0.923879 0.000000 -0.382684
vn 0.923879 0.000000 -0.382684
vn 0.382339 -0.042341 -0.923052
vn 0.382339 -0.042341 -0.923052
vn 0.382339 -0.042341 -0.923052
vn 0.382339 -0.042341 -0.923052
vn -0.382341 -0.042339 -0.923051
vn -0.382341 -0.042339 -0.923051
vn -0.382341 -0.042339 -0.923051
vn -0.382341 -0.042339 -0.923051
vn -0.923050 -0.042340 -0.382342
vn -0.923051 -0.042340 -0.382342
vn -0.923050 -0.042340 -0.382342
vn -0.923050 -0.042340 -0.382342
vn -0.923050 -0.042340 0.382342
vn -0.923050 -0.042340 0.382342
vn -0.923050 -0.042340 0.382342
vn -0.923050 -0.042340 0.382342
vn -0.382341 -0.042340 0.923051
vn -0.382341 -0.042340 0.923051
vn -0.382341 -0.042340 0.923051
vn -0.382341 -0.042340 0.923051
vn 0.382342 -0.042340 0.923051
vn 0.382342 -0.042340 0.923051
vn 0.382342 -0.042340 0.923051
vn 0.382342 -0.042340 0.923051
vn 0.923051 -0.042340 0.382341
vn 0.923051 -0.042340 0.382341
vn 0.923051 -0.042340 0.382341
vn 0.923051 -0.042340 0.382341
vn 0.923051 -0.042340 -0.382340
vn 0.923051 -0.042340 -0.382340
vn 0.923051 -0.042340 -0.382340
vn 0.923051 -0.042340 -0.382340
vn -0.032402 -0.998950 0.032403
vn -0.000000 -0.998950 0.045824
vn -0.000000 -0.998949 0.045824
vn -0.032402 -0.998950 0.032403
vn 0.032402 0.998950 -0.032401
vn -0.000000 0.998950 -0.045823
vn 0.032402 -0.998950 0.032404
vn 0.032402 -0.998950 0.032404
vn -0.032402 0.998950 -0.032402
vn 0.045824 -0.998950 0.000001
vn 0.045824 -0.998950 0.000001
vn -0.045824 0.998950 -0.000000
vn 0.032402 -0.998950 -0.032400
vn 0.032402 -0.998950 -0.032400
vn -0.032402 0.998949 0.032404
vn 0.000000 -0.998950 -0.045823
vn 0.000000 -0.998950 -0.045823
vn 0.000000 0.998949 0.045826
vn -0.032402 -0.998949 -0.032403
vn -0.032402 -0.998950 -0.032403
vn 0.032402 0.998950 0.032403
vn -0.045824 -0.998950 0.000000
vn -0.045824 -0.998950 0.000000
vn 0.045824 0.998950 0.000001
s off
g pCylinder9
usemtl initialShadingGroup
f 1/9/1 2/10/2 10/19/3 9/18/4
f 2/10/5 3/11/6 11/20/7 10/19/8
f 3/11/9 4/12/10 12/21/11 11/20/12
f 4/12/13 5/13/14 13/22/15 12/21/16
f 5/13/17 6/14/18 14/23/19 13/22/20
f 6/14/21 7/15/22 15/24/23 14/23/24
f 7/15/25 8/16/26 16/25/27 15/24/28
f 8/16/29 1/17/30 9/26/31 16/25/32
s 1
f 2/2/33 1/1/34 17/35/35
f 3/3/36 2/2/33 17/35/35
f 4/4/37 3/3/36 17/35/35
f 5/5/38 4/4/37 17/35/35
f 6/6/39 5/5/38 17/35/35
f 7/7/40 6/6/39 17/35/35
f 8/8/41 7/7/40 17/35/35
f 1/1/34 8/8/41 17/35/35
s 2
f 34/53/42 35/54/43 36/36/44
f 35/54/43 37/55/45 36/36/44
f 37/55/45 38/56/46 36/36/44
f 38/56/46 39/57/47 36/36/44
f 39/57/47 40/58/48 36/36/44
f 40/58/48 41/59/49 36/36/44
f 41/59/49 42/60/50 36/36/44
f 42/60/50 34/53/42 36/36/44
s 3
f 9/33/51 10/32/52 19/38/53 18/37/54
f 10/32/52 11/31/55 20/39/56 19/38/53
f 11/31/55 12/30/57 21/40/58 20/39/56
f 12/30/57 13/29/59 22/41/60 21/40/58
f 13/29/59 14/28/61 23/42/62 22/41/60
f 14/28/61 15/27/63 24/43/64 23/42/62
f 15/27/63 16/34/65 25/44/66 24/43/64
f 16/34/65 9/33/51 18/37/54 25/44/66
s off
f 18/37/67 19/38/68 27/46/69 26/45/70
f 19/38/71 20/39/72 28/47/73 27/46/74
f 20/39/75 21/40/76 29/48/77 28/47/78
f 21/40/79 22/41/80 30/49/81 29/48/82
f 22/41/83 23/42/84 31/50/85 30/49/86
f 23/42/87 24/43/88 32/51/89 31/50/90
f 24/43/91 25/44/92 33/52/93 32/51/94
f 25/44/95 18/37/96 26/45/97 33/52/98
f 43/61/99 44/62/100 45/63/101 46/64/102
f 44/62/103 47/65/104 48/66/105 45/63/106
f 47/65/107 49/67/108 50/68/109 48/66/110
f 49/67/111 51/69/112 52/70/113 50/68/114
f 51/69/115 53/71/116 54/72/117 52/70/118
f 53/71/119 55/73/120 56/74/121 54/72/122
f 55/73/123 57/75/124 58/76/125 56/74/126
f 57/75/127 43/61/128 46/64/129 58/76/130
s 4
f 26/45/131 27/46/132 44/62/133 43/61/134
s 2
f 35/54/43 34/53/42 46/64/135 45/63/136
s 4
f 27/46/132 28/47/137 47/65/138 44/62/133
s 2
f 37/55/45 35/54/43 45/63/136 48/66/139
s 4
f 28/47/137 29/48/140 49/67/141 47/65/138
s 2
f 38/56/46 37/55/45 48/66/139 50/68/142
s 4
f 29/48/140 30/49/143 51/69/144 49/67/141
s 2
f 39/57/47 38/56/46 50/68/142 52/70/145
s 4
f 30/49/143 31/50/146 53/71/147 51/69/144
s 2
f 40/58/48 39/57/47 52/70/145 54/72/148
s 4
f 31/50/146 32/51/149 55/73/150 53/71/147
s 2
f 41/59/49 40/58/48 54/72/148 56/74/151
s 4
f 32/51/149 33/52/152 57/75/153 55/73/150
s 2
f 42/60/50 41/59/49 56/74/151 58/76/154
s 4
f 33/52/152 26/45/131 43/61/134 57/75/153
s 2
f 34/53/42 42/60/50 58/76/154 46/64/135
