# This file uses centimeters as units for non-parametric coordinates.

mtllib ERazor.mtl
g default
v -0.035122 0.067306 -0.120202
v 0.029442 0.067306 -0.120202
v -0.035122 0.093521 -0.169694
v 0.029442 0.093521 -0.169694
v -0.035122 0.044029 -0.120202
v 0.029442 0.044029 -0.120202
v -0.037837 0.003877 0.162114
v -0.032477 0.001657 0.162114
v -0.032477 0.003877 0.167474
v -0.032477 0.009237 0.169694
v -0.037837 0.009237 0.167474
v -0.040057 0.009237 0.162114
v 0.032300 0.003877 0.162114
v 0.034520 0.009237 0.162114
v 0.032300 0.009237 0.167474
v 0.026940 0.009237 0.169694
v 0.026940 0.003877 0.167474
v 0.026940 0.001657 0.162114
v 0.032300 0.044184 0.162114
v 0.026940 0.046404 0.162114
v 0.026940 0.044184 0.167474
v 0.026940 0.038824 0.169694
v 0.032300 0.038824 0.167474
v 0.034520 0.038824 0.162114
v -0.037837 0.044184 0.162114
v -0.040057 0.038824 0.162114
v -0.037837 0.038824 0.167474
v -0.032477 0.038824 0.169694
v -0.032477 0.044184 0.167474
v -0.032477 0.046404 0.162114
v 0.026957 0.076234 -0.070035
v 0.032305 0.073984 -0.070035
v 0.034520 0.068551 -0.070035
v 0.034520 0.046633 0.052270
v 0.032300 0.051930 0.053096
v 0.026940 0.054124 0.053438
v -0.040057 0.068551 -0.070035
v -0.037842 0.073984 -0.070035
v -0.032494 0.076234 -0.070035
v -0.032477 0.054124 0.053438
v -0.037837 0.051930 0.053096
v -0.040057 0.046633 0.052270
v 0.034520 0.009984 -0.070035
v 0.032191 0.004096 -0.070035
v 0.026567 0.001657 -0.070035
v 0.026940 0.001657 0.053438
v 0.032300 0.003877 0.053438
v 0.034520 0.009237 0.053438
v -0.032104 0.001657 -0.070035
v -0.037728 0.003986 -0.070035
v -0.040057 0.009610 -0.070035
v -0.040057 0.009237 0.053438
v -0.037837 0.003877 0.053438
v -0.032477 0.001657 0.053438
v 0.034520 0.038824 0.111065
v 0.032300 0.044184 0.111419
v 0.026940 0.046404 0.111566
v -0.032477 0.046404 0.111566
v -0.037837 0.044184 0.111419
v -0.040057 0.038824 0.111065
v 0.026940 0.001657 0.111566
v 0.032300 0.003877 0.111566
v 0.034520 0.009237 0.111566
v -0.040057 0.009237 0.111566
v -0.037837 0.003877 0.111566
v -0.032477 0.001657 0.111566
v 0.029730 0.067172 -0.116111
v 0.022573 0.066997 -0.110768
v 0.027900 0.064748 -0.110768
v 0.030106 0.059318 -0.110768
v -0.035347 0.067172 -0.116117
v -0.035642 0.059318 -0.110768
v -0.033436 0.064748 -0.110768
v -0.028109 0.066997 -0.110768
v 0.029785 0.041039 -0.115328
v 0.030106 0.048055 -0.110768
v 0.027955 0.041116 -0.110768
v 0.022762 0.038241 -0.110768
v -0.035390 0.041041 -0.115331
v -0.028298 0.038241 -0.110768
v -0.033491 0.041115 -0.110768
v -0.035642 0.048055 -0.110768
v -0.036852 0.004862 0.166489
v 0.031315 0.004862 0.166489
v 0.031315 0.043199 0.166489
v -0.036852 0.043199 0.166489
vt 0.552784 0.443565
vt 0.554864 0.514771
vt 0.472621 0.517447
vt 0.475273 0.606441
vt 0.096781 0.130929
vt 0.036335 0.168537
vt 0.913254 0.089383
vt 0.973592 0.154734
vt 0.553035 0.438341
vt 0.470150 0.446326
vt 0.907528 0.085236
vt 0.912065 0.118920
vt 0.475086 0.613736
vt 0.557898 0.603646
vt 0.101954 0.130382
vt 0.094722 0.101441
vt 0.486755 0.984145
vt 0.465059 0.030667
vt 0.555460 0.030223
vt 0.466793 0.067586
vt 0.540945 0.081472
vt 0.540960 0.029476
vt 0.540344 0.066955
vt 0.468605 0.221345
vt 0.547306 0.379220
vt 0.481774 0.688856
vt 0.559345 0.844541
vt 0.692969 0.083987
vt 0.850102 0.043825
vt 0.312644 0.041818
vt 0.161191 0.128024
vt 0.466655 0.146865
vt 0.544395 0.219439
vt 0.618691 0.070859
vt 0.693632 0.036325
vt 0.483554 0.846376
vt 0.560884 0.918477
vt 0.314765 0.089444
vt 0.386240 0.036221
vt 0.543076 0.144861
vt 0.619908 0.032953
vt 0.485098 0.920182
vt 0.388599 0.074056
vt 0.450614 0.031662
vt 0.452751 0.068996
vt 0.472636 0.380347
vt 0.847606 0.117910
vt 0.555068 0.688350
vt 0.156471 0.053585
vt 0.906867 0.118526
vt 0.469647 0.441153
vt 0.558672 0.610813
vt 0.100301 0.097127
vt 0.543980 0.431791
vt 0.900235 0.108371
vt 0.108292 0.120040
vt 0.478419 0.433998
vt 0.900980 0.093851
vt 0.550285 0.617932
vt 0.483862 0.620438
vt 0.107113 0.105540
vt 0.554381 0.067836
vt 0.466590 0.081985
vt 0.561736 0.982956
vt 0.479417 0.984612
vt 0.450851 0.024336
vt 0.464259 0.023316
vt 0.486683 0.991491
vt 0.457813 0.031292
vt 0.555005 0.022854
vt 0.569066 0.983141
vt 0.548207 0.029984
vt 0.562065 0.990321
vt 0.541531 0.022203
vt 0.548259 0.080330
vt 0.553249 0.075121
vt 0.540583 0.074191
vt 0.547342 0.067361
vt 0.454106 0.076233
vt 0.459242 0.081118
vt 0.459821 0.068250
vt 0.466747 0.074790
vt 0.847374 0.125376
vt 0.554644 0.378857
vt 0.551771 0.219304
vt 0.691548 0.091229
vt 0.465290 0.380319
vt 0.161649 0.135479
vt 0.316408 0.096639
vt 0.461229 0.221534
vt 0.562728 0.687491
vt 0.850744 0.035771
vt 0.693977 0.028952
vt 0.566720 0.844325
vt 0.155599 0.045860
vt 0.474144 0.688368
vt 0.476168 0.846466
vt 0.312077 0.034462
vt 0.550456 0.144504
vt 0.617783 0.078228
vt 0.389735 0.081392
vt 0.459269 0.146790
vt 0.620141 0.025576
vt 0.568269 0.918392
vt 0.477722 0.920398
vt 0.385787 0.028832
vt 0.551385 0.431395
vt 0.899878 0.115906
vt 0.108888 0.127562
vt 0.470999 0.433980
vt 0.901608 0.084401
vt 0.557567 0.616349
vt 0.476523 0.619186
vt 0.106216 0.096103
vt 0.480751 0.990480
vt 0.457569 0.025398
vt 0.548296 0.024090
vt 0.567955 0.989073
vt 0.546758 0.073639
vt 0.460560 0.074463
vn 0.000000 0.883688 0.468076
vn 0.000000 0.883688 0.468076
vn 0.000000 0.883688 0.468076
vn 0.000000 0.883688 0.468076
vn 0.000000 -0.707108 -0.707106
vn 0.000000 -0.707108 -0.707106
vn 0.000000 -0.707108 -0.707106
vn 0.000000 -0.707108 -0.707106
vn -1.000000 0.000000 0.000000
vn -1.000000 0.000000 0.000000
vn -1.000000 0.000000 0.000000
vn 1.000000 0.000000 0.000000
vn 1.000000 0.000000 0.000000
vn 1.000000 0.000000 0.000000
vn 0.997532 -0.000000 -0.070210
vn 0.993199 0.037252 -0.110306
vn 0.992452 -0.019969 -0.120995
vn 0.997532 -0.000000 -0.070210
vn 0.997536 0.000000 -0.070159
vn 0.997536 0.000000 -0.070159
vn 0.000000 0.999464 0.032736
vn -0.025484 0.986794 -0.159963
vn 0.025497 0.986778 -0.160058
vn 0.000000 0.999464 0.032736
vn 0.000000 0.999465 0.032717
vn 0.000000 0.999465 0.032717
vn 0.000000 -0.852365 -0.522947
vn 0.027735 -0.770161 -0.637246
vn -0.027151 -0.770201 -0.637223
vn 0.000000 -0.852365 -0.522947
vn 0.000000 -0.852350 -0.522972
vn 0.000000 -0.852350 -0.522972
vn -0.998484 0.000000 -0.055036
vn -0.992688 -0.019782 -0.119080
vn -0.993454 0.037113 -0.108041
vn -0.998484 0.000000 -0.055036
vn -0.998486 0.000000 -0.055010
vn -0.998486 0.000000 -0.055010
vn -0.032482 -0.061760 0.997562
vn -0.023423 -0.706913 0.706913
vn 0.023423 -0.706913 0.706913
vn 0.032482 -0.061760 0.997562
vn -0.033161 -0.998704 0.038602
vn 0.033161 -0.998704 0.038602
vn -0.997417 -0.061262 0.037507
vn -0.706414 -0.044247 0.706414
vn -0.706414 0.044247 0.706414
vn -0.997399 0.061573 0.037473
vn -0.032482 0.061760 0.997562
vn 0.706414 -0.044247 0.706414
vn 0.706414 0.044247 0.706414
vn 0.032482 0.061760 0.997562
vn 0.997417 -0.061262 0.037507
vn 0.997399 0.061573 0.037473
vn 0.023422 0.706913 0.706913
vn -0.023422 0.706913 0.706913
vn 0.033202 0.998703 0.038598
vn -0.033202 0.998703 0.038598
vn 0.998406 0.053769 -0.017140
vn 0.926036 0.377406 0.004617
vn 0.923909 0.377557 0.061998
vn 0.999085 0.042196 0.006929
vn 0.387159 0.919669 0.065711
vn 0.034664 0.995653 0.086445
vn 0.034384 0.986192 0.161996
vn 0.382755 0.911634 0.149744
vn -0.034664 0.995653 0.086446
vn -0.387159 0.919668 0.065709
vn -0.382755 0.911634 0.149744
vn -0.034384 0.986192 0.161996
vn -0.926036 0.377406 0.004611
vn -0.998416 0.053575 -0.017178
vn -0.999090 0.042079 0.006910
vn -0.923909 0.377557 0.061998
vn 0.035951 -0.999354 -0.000146
vn 0.390503 -0.920601 -0.001581
vn 0.388050 -0.921638 -0.001084
vn 0.035570 -0.999367 -0.000099
vn 0.927708 -0.365891 -0.074040
vn 0.998119 -0.052867 -0.031049
vn 0.998900 -0.046899 -0.000161
vn 0.926063 -0.377366 -0.001295
vn -0.998114 -0.052995 -0.030995
vn -0.924683 -0.373226 -0.075260
vn -0.923879 -0.382683 -0.000794
vn -0.998906 -0.046754 -0.000097
vn -0.382683 -0.923879 -0.001159
vn -0.035107 -0.999384 -0.000106
vn -0.034994 -0.999388 -0.000073
vn -0.382683 -0.923879 -0.000794
vn -0.034881 0.996879 0.070815
vn 0.034881 0.996879 0.070815
vn 0.998445 0.055597 0.003951
vn 0.998218 -0.059680 0.000000
vn 0.034251 -0.999413 0.000000
vn -0.034251 -0.999413 0.000000
vn -0.998218 -0.059680 0.000000
vn -0.998445 0.055597 0.003951
vn 0.030036 -0.742007 -0.669719
vn -0.029629 -0.741993 -0.669752
vn 0.340681 0.806808 0.482697
vn 0.340681 0.806808 0.482697
vn 0.340681 0.806808 0.482697
vn 0.832569 0.338291 0.438622
vn 0.832569 0.338291 0.438622
vn 0.832569 0.338291 0.438622
vn -0.828070 0.336465 0.448433
vn -0.828070 0.336465 0.448433
vn -0.828070 0.336465 0.448433
vn -0.339901 0.804957 0.486324
vn -0.339901 0.804957 0.486324
vn -0.339901 0.804957 0.486324
vn 0.890385 -0.275994 0.361998
vn 0.890385 -0.275994 0.361998
vn 0.890385 -0.275994 0.361998
vn 0.474025 -0.856394 0.204672
vn 0.474025 -0.856394 0.204672
vn 0.474025 -0.856394 0.204672
vn -0.473365 -0.855203 0.211076
vn -0.473365 -0.855203 0.211076
vn -0.473365 -0.855203 0.211076
vn -0.886092 -0.274664 0.373364
vn -0.886092 -0.274664 0.373364
vn -0.886092 -0.274664 0.373365
vn 0.376756 0.893785 -0.243318
vn 0.910642 0.370654 -0.182612
vn 0.924173 0.381014 0.027078
vn 0.383392 0.921264 0.065450
vn -0.910638 0.370653 -0.182634
vn -0.376755 0.893783 -0.243327
vn -0.383392 0.921264 0.065450
vn -0.924173 0.381014 0.027078
vn 0.875279 -0.305722 -0.374729
vn 0.335196 -0.682385 -0.649611
vn 0.335196 -0.682385 -0.649611
vn 0.382683 -0.923880 0.000000
vn 0.923880 -0.382683 0.000000
vn -0.328991 -0.683846 -0.651245
vn -0.328991 -0.683846 -0.651245
vn -0.870985 -0.310623 -0.380655
vn -0.923880 -0.382683 0.000000
vn -0.382683 -0.923880 0.000000
vn 0.379761 0.924744 0.025097
vn 0.924742 0.379774 0.024982
vn -0.924742 0.379775 0.024982
vn -0.379761 0.924744 0.025097
vn 0.924745 -0.379757 0.025131
vn 0.379757 -0.924745 0.025131
vn -0.379757 -0.924745 0.025131
vn -0.924745 -0.379757 0.025131
vn -0.577351 -0.577351 0.577350
vn 0.577351 -0.577350 0.577350
vn 0.577351 0.577350 0.577350
vn -0.577351 0.577350 0.577350
s off
g ERazor:pCube18
usemtl ERazor:initialShadingGroup
f 1/10/1 2/1/2 4/2/3 3/3/4
f 3/3/5 4/2/6 6/14/7 5/4/8
f 5/16/9 1/5/10 3/6/11
f 2/12/12 6/7/13 4/8/14
s 1
f 67/50/15 70/55/16 76/58/17 75/11/18 6/7/19 2/12/20
f 71/51/21 74/57/22 68/54/23 67/9/24 2/1/25 1/10/26
s 3
f 75/52/27 78/59/28 80/60/29 79/13/30 5/4/31 6/14/32
s 1
f 79/53/33 82/61/34 72/56/35 71/15/36 1/5/37 5/16/38
f 10/18/39 9/67/40 17/74/41 16/22/42
f 9/68/40 8/17/43 18/64/44 17/73/41
f 12/44/45 11/69/46 27/81/47 26/45/48
f 11/69/46 10/18/39 28/20/49 27/81/47
f 16/22/42 15/72/50 23/78/51 22/23/52
f 15/72/50 14/19/53 24/62/54 23/78/51
f 22/23/52 21/77/55 29/82/56 28/20/49
f 21/77/55 20/21/57 30/63/58 29/82/56
f 33/47/59 32/83/60 35/86/61 34/28/62
f 32/84/63 31/25/64 36/33/65 35/85/66
f 39/46/67 38/87/68 41/90/69 40/24/70
f 38/88/71 37/31/72 42/38/73 41/89/74
f 45/48/75 44/91/76 47/94/77 46/27/78
f 44/92/79 43/29/80 48/35/81 47/93/82
f 51/49/83 50/95/84 53/98/85 52/30/86
f 50/96/87 49/26/88 54/36/89 53/97/90
f 10/18/39 16/22/42 22/23/52 28/20/49
f 40/24/70 36/33/65 31/25/64 39/46/67
f 49/26/88 45/48/75 46/27/78 54/36/89
f 34/28/62 48/35/81 43/29/80 33/47/59
f 51/49/83 52/30/86 42/38/73 37/31/72
f 58/32/91 57/40/92 36/33/65 40/24/70
f 55/34/93 63/41/94 48/35/81 34/28/62
f 54/36/89 46/27/78 61/37/95 66/42/96
f 42/38/73 52/30/86 64/39/97 60/43/98
f 30/63/58 20/21/57 57/40/92 58/32/91
f 14/19/53 63/41/94 55/34/93 24/62/54
f 66/42/96 61/37/95 18/64/44 8/17/43
f 60/43/98 64/39/97 12/44/45 26/45/48
f 39/46/67 31/25/64 68/54/23 74/57/22
f 33/47/59 43/29/80 76/58/17 70/55/16
s 3
f 45/48/99 49/26/100 80/60/29 78/59/28
s 1
f 51/49/83 37/31/72 72/56/35 82/61/34
s off
f 67/9/101 68/54/102 69/107/103
f 67/50/104 69/108/105 70/55/106
f 71/15/107 72/56/108 73/109/109
f 71/51/110 73/110/111 74/57/112
f 75/11/113 76/58/114 77/111/115
f 75/52/116 77/112/117 78/59/118
f 79/13/119 80/60/120 81/113/121
f 79/53/122 81/114/123 82/61/124
s 1
f 31/25/64 32/84/63 69/107/125 68/54/23
f 32/83/60 33/47/59 70/55/16 69/108/126
f 34/28/62 35/86/61 56/100/127 55/34/93
f 35/85/66 36/33/65 57/40/92 56/99/128
f 37/31/72 38/88/71 73/109/129 72/56/35
f 38/87/68 39/46/67 74/57/22 73/110/130
f 40/24/70 41/90/69 59/102/131 58/32/91
f 41/89/74 42/38/73 60/43/98 59/101/132
f 43/29/80 44/92/79 77/111/133 76/58/17
s 3
f 44/91/134 45/48/99 78/59/28 77/112/135
s 1
f 46/27/78 47/94/77 62/104/136 61/37/95
f 47/93/82 48/35/81 63/41/94 62/103/137
s 3
f 49/26/100 50/96/138 81/113/139 80/60/29
s 1
f 50/95/84 51/49/83 82/61/34 81/114/140
f 52/30/86 53/98/85 65/106/141 64/39/97
f 53/97/90 54/36/89 66/42/96 65/105/142
f 20/21/57 19/75/143 56/99/128 57/40/92
f 19/76/144 24/62/54 55/34/93 56/100/127
f 26/45/48 25/79/145 59/101/132 60/43/98
f 25/80/146 30/63/58 58/32/91 59/102/131
f 14/19/53 13/70/147 62/103/137 63/41/94
f 13/71/148 18/64/44 61/37/95 62/104/136
f 8/17/43 7/65/149 65/105/142 66/42/96
f 7/66/150 12/44/45 64/39/97 65/106/141
f 11/69/46 12/44/45 7/66/150 83/116/151
f 7/65/149 8/17/43 9/68/40 83/115/151
f 9/67/40 10/18/39 11/69/46 83/116/151
f 17/73/41 18/64/44 13/71/148 84/118/152
f 13/70/147 14/19/53 15/72/50 84/117/152
f 15/72/50 16/22/42 17/74/41 84/117/152
f 23/78/51 24/62/54 19/76/144 85/119/153
f 19/75/143 20/21/57 21/77/55 85/119/153
f 21/77/55 22/23/52 23/78/51 85/119/153
f 29/82/56 30/63/58 25/80/146 86/120/154
f 25/79/145 26/45/48 27/81/47 86/120/154
f 27/81/47 28/20/49 29/82/56 86/120/154
