# This file uses centimeters as units for non-parametric coordinates.

mtllib Cooker.mtl
g default
v -0.501389 0.020246 0.498607
v 0.498607 0.020246 0.501389
v -0.501389 1.020246 0.498607
v 0.498607 1.244190 0.501389
v -0.498607 1.020246 -0.501389
v 0.501389 1.244190 -0.498607
v -0.498607 0.020246 -0.501389
v 0.501389 0.020246 -0.498607
v 0.198608 0.020246 0.500554
v 0.201390 0.020246 -0.499442
v 0.201390 1.020246 -0.499442
v 0.198608 1.020246 0.500554
v 0.318608 0.020246 0.500888
v 0.318608 1.244190 0.500888
v 0.321389 1.244190 -0.499108
v 0.321389 0.020246 -0.499108
vt 0.550000 0.250000
vt 0.550000 0.000000
vt 0.580000 0.000000
vt 0.580000 0.250000
vt 0.550000 0.500000
vt 0.580000 0.500000
vt 0.550000 0.750000
vt 0.580000 0.750000
vt 0.550000 1.000000
vt 0.580000 1.000000
vt 0.625000 0.000000
vt 0.875000 0.000000
vt 0.875000 0.250000
vt 0.625000 0.250000
vt 0.125000 0.000000
vt 0.375000 0.000000
vt 0.375000 0.250000
vt 0.125000 0.250000
vt 0.375000 0.750000
vt 0.375000 1.000000
vt 0.375000 0.500000
vt 0.625000 0.500000
vt 0.625000 0.750000
vt 0.625000 1.000000
vn -0.002781 0.000000 0.999996
vn -0.002781 0.000000 0.999996
vn -0.002781 0.000000 0.999996
vn -0.002781 0.000000 0.999996
vn -0.881427 0.472314 -0.002452
vn -0.881427 0.472314 -0.002452
vn -0.881427 0.472314 -0.002452
vn -0.881427 0.472314 -0.002452
vn 0.002781 0.000000 -0.999996
vn 0.002781 0.000000 -0.999996
vn 0.002781 0.000000 -0.999996
vn 0.002780 0.000000 -0.999996
vn 0.000000 -1.000000 0.000000
vn 0.000000 -1.000000 0.000000
vn 0.000000 -1.000000 0.000000
vn 0.000000 -1.000000 0.000000
vn 0.999996 0.000000 0.002782
vn 0.999996 0.000000 0.002782
vn 0.999996 0.000000 0.002782
vn 0.999996 0.000000 0.002782
vn -0.999996 0.000000 -0.002782
vn -0.999996 0.000000 -0.002782
vn -0.999996 0.000000 -0.002782
vn -0.999996 0.000000 -0.002782
vn 0.000000 -1.000000 0.000000
vn 0.000000 -1.000000 0.000000
vn 0.002782 0.000000 -0.999996
vn 0.002782 0.000000 -0.999996
vn 0.000000 1.000000 0.000000
vn 0.000000 1.000000 0.000000
vn 0.000000 1.000000 0.000000
vn 0.000000 1.000000 0.000000
vn -0.002782 0.000000 0.999996
vn -0.002782 0.000000 0.999996
vn -0.002782 0.000000 0.999996
vn -0.002782 0.000000 0.999996
vn 0.000000 1.000000 0.000000
vn 0.000000 1.000000 0.000000
vn 0.000000 1.000000 0.000000
vn 0.000000 1.000000 0.000000
vn 0.002782 0.000000 -0.999996
vn 0.002782 0.000000 -0.999996
vn 0.000000 -1.000000 0.000000
vn 0.000000 -1.000000 0.000000
s 1
g polySurface59 ConceptHouse1:pPlane21
usemtl initialShadingGroup
f 12/1/1 9/2/2 13/3/3 14/4/4
s off
f 11/5/5 12/1/6 14/4/7 15/6/8
s 2
f 10/7/9 11/5/10 15/6/11 16/8/12
s 3
f 9/9/13 10/7/14 16/8/15 13/10/16
s off
f 2/11/17 8/12/18 6/13/19 4/14/20
f 7/15/21 1/16/22 3/17/23 5/18/24
s 3
f 7/19/25 10/7/14 9/9/13 1/20/26
s 2
f 5/21/27 11/5/10 10/7/9 7/19/28
s off
f 3/17/29 12/1/30 11/5/31 5/21/32
s 1
f 1/16/33 9/2/2 12/1/1 3/17/34
f 14/4/4 13/3/3 2/11/35 4/14/36
s off
f 15/6/37 14/4/38 4/14/39 6/22/40
s 2
f 16/8/12 15/6/11 6/22/41 8/23/42
s 3
f 13/10/16 16/8/15 8/23/43 2/24/44
