# This file uses centimeters as units for non-parametric coordinates.

mtllib Desk.mtl
g default
v -1.616829 1.071000 0.827993
v 0.887254 1.071000 0.827993
v -1.616829 1.185962 0.827993
v 0.887254 1.185962 0.827993
v -1.616829 1.185962 -0.601235
v 0.887254 1.185962 -0.601235
v -1.616829 1.071000 -0.601235
v 0.887254 1.071000 -0.601235
v 0.700191 1.071000 0.827993
v 0.700191 1.071000 -0.601235
v 0.700191 1.185962 -0.601235
v 0.700191 1.185962 0.827993
v -1.456774 1.071000 0.827993
v -1.456774 1.071000 -0.601235
v -1.456774 1.185962 -0.601235
v -1.456774 1.185962 0.827993
v -1.616829 1.185962 -0.448569
v -1.456774 1.185962 -0.448569
v 0.700191 1.185962 -0.448569
v 0.887254 1.185962 -0.448569
v 0.887254 1.071000 -0.448569
v 0.700191 1.071000 -0.448569
v -1.456774 1.071000 -0.448569
v -1.616829 1.071000 -0.448569
v -1.616829 1.185962 0.680324
v -1.456774 1.185962 0.680324
v 0.700191 1.185962 0.680324
v 0.887254 1.185962 0.680324
v 0.887254 1.071000 0.680324
v 0.700191 1.071000 0.680324
v -1.456774 1.071000 0.680324
v -1.616829 1.071000 0.680324
v 0.887254 -0.000000 -0.448569
v 0.700191 -0.000000 -0.448569
v 0.700191 -0.000000 -0.601235
v 0.887254 -0.000000 -0.601235
v 0.887254 -0.000000 0.680324
v 0.700191 -0.000000 0.680324
v 0.700191 -0.000000 0.827993
v 0.887254 -0.000000 0.827993
v -1.616829 -0.000000 -0.601235
v -1.456774 -0.000000 -0.601235
v -1.456774 -0.000000 -0.448569
v -1.616829 -0.000000 -0.448569
v -1.456774 -0.000000 0.680324
v -1.616829 -0.000000 0.680324
v -1.456774 -0.000000 0.827993
v -1.616829 -0.000000 0.827993
v -1.616829 0.118214 -0.601235
v -1.456774 0.118214 -0.601235
v -1.456774 0.118214 -0.448569
v -1.616829 0.118214 -0.448569
v -1.456774 0.106354 0.680324
v -1.456774 0.106354 0.827993
v -1.616829 0.106354 0.827993
v -1.616829 0.106354 0.680324
vt 0.403216 0.345932
vt 0.213625 0.585206
vt 0.427854 0.345886
vt 0.964516 0.344883
vt 0.428427 0.652191
vt 0.965089 0.651187
vt 0.983494 0.865229
vt 0.384193 0.191398
vt 0.023295 0.848721
vt 0.989727 0.651141
vt 0.428472 0.676829
vt 0.015806 0.415425
vt 0.186375 0.021617
vt 0.924998 0.651262
vt 0.924426 0.344957
vt 0.462110 0.321184
vt 0.016956 0.896860
vt 0.972690 0.730250
vt 0.462729 0.652126
vt 0.462156 0.345822
vt 0.428365 0.619472
vt 0.462668 0.619408
vt 0.924937 0.618544
vt 0.965028 0.618469
vt 0.384097 0.215486
vt 0.989666 0.618423
vt 0.016616 0.214008
vt 0.974839 0.776359
vt 0.403727 0.619518
vt 0.978143 0.822064
vt 0.427913 0.377534
vt 0.462215 0.377469
vt 0.924485 0.376605
vt 0.964575 0.376530
vt 0.383381 0.393603
vt 0.989213 0.376484
vt 0.015900 0.392126
vt 0.035098 0.759835
vt 0.403275 0.377580
vt 0.029900 0.805111
vt 0.185599 0.214688
vt 0.185696 0.190600
vt 0.215211 0.190718
vt 0.215114 0.214806
vt 0.184883 0.392805
vt 0.214398 0.392923
vt 0.184789 0.416104
vt 0.214304 0.416223
vt 0.692208 0.908171
vt 0.688495 0.948559
vt 0.668780 0.768139
vt 0.667023 0.884925
vt 0.339960 0.870559
vt 0.344702 0.920924
vt 0.333109 0.722543
vt 0.319309 0.887122
vt 0.709271 0.894238
vt 0.695496 0.756759
vt 0.680982 0.801501
vt 0.682338 0.851547
vt 0.331282 0.787313
vt 0.292489 0.924762
vt 0.303151 0.877092
vt 0.328299 0.837343
vt 0.462051 0.289536
vt 0.427748 0.289600
vt 0.461598 0.047598
vt 0.427296 0.047662
vt 0.461537 0.014879
vt 0.658991 0.933349
vt 0.345482 0.757312
vt 0.315529 0.742801
vt 0.313148 0.929616
vt 0.718590 0.943401
vt 0.680254 0.738871
vt 0.037989 0.717516
vt 0.990236 0.913109
vt 0.924321 0.288672
vt 0.923868 0.046733
vt 0.925044 0.675900
vt 0.924380 0.320320
vt 0.965135 0.675825
vt 0.964470 0.320245
vt 0.383287 0.416902
vt 0.184110 0.585087
vt 0.215890 0.021736
vt 0.016713 0.189921
vt 0.403788 0.652237
vt 0.989154 0.344836
vt 0.427808 0.321248
vt 0.462775 0.676764
vt 0.923807 0.014015
vn 0.000000 0.000000 1.000000
vn 0.000000 0.000000 1.000000
vn 0.000000 0.000000 1.000000
vn 0.000000 0.000000 1.000000
vn 0.000000 1.000000 0.000000
vn 0.000000 1.000000 0.000000
vn 0.000000 1.000000 0.000000
vn 0.000000 1.000000 0.000000
vn 0.000000 0.000000 -1.000000
vn 0.000000 0.000000 -1.000000
vn 0.000000 0.000000 -1.000000
vn 0.000000 0.000000 -1.000000
vn 0.000000 -1.000000 0.000000
vn 0.000000 -1.000000 0.000000
vn 0.000000 -1.000000 0.000001
vn 0.000000 -1.000000 0.000001
vn 1.000000 0.000000 0.000000
vn 1.000000 0.000000 0.000000
vn 1.000000 0.000000 0.000000
vn 1.000000 0.000000 0.000000
vn -1.000000 0.000000 0.000001
vn -1.000000 0.000000 0.000000
vn -1.000000 0.000000 0.000000
vn -1.000000 0.000000 0.000000
vn 0.000000 -1.000000 0.000000
vn 0.000000 -1.000000 -0.000000
vn 0.000000 -1.000000 0.000000
vn 0.000000 -1.000000 0.000000
vn 0.000000 0.000000 -1.000000
vn 0.000000 0.000000 -1.000000
vn 0.000000 1.000000 0.000000
vn 0.000000 1.000000 0.000000
vn 0.000000 0.000000 1.000000
vn 0.000000 0.000000 1.000000
vn 0.000000 -1.000000 -0.000000
vn 0.000000 -1.000000 -0.000000
vn 0.000000 -1.000000 -0.000000
vn 0.000000 -1.000000 -0.000000
vn 0.000000 0.000000 -1.000000
vn 0.000000 0.000000 -1.000000
vn 0.000000 1.000000 0.000000
vn 0.000000 1.000000 0.000000
vn 0.000000 0.000000 1.000000
vn 0.000000 0.000000 1.000000
vn 0.000000 1.000000 0.000000
vn 0.000000 1.000000 0.000000
vn 0.000000 1.000000 0.000000
vn 0.000000 1.000000 0.000000
vn 1.000000 0.000000 0.000000
vn 1.000000 0.000000 0.000000
vn 0.000000 -1.000000 0.000000
vn 0.000000 -1.000000 0.000000
vn 0.000000 -1.000000 0.000000
vn 0.000000 -1.000000 -0.000000
vn 0.000000 -1.000000 -0.000000
vn 0.000000 -1.000000 -0.000000
vn -1.000000 0.000000 -0.000000
vn -1.000000 0.000000 -0.000000
vn 0.000000 1.000000 0.000000
vn 0.000000 1.000000 0.000000
vn 0.000000 1.000000 0.000000
vn 0.000000 1.000000 0.000000
vn 1.000000 0.000000 0.000000
vn 1.000000 0.000000 0.000000
vn 0.000000 -1.000000 0.000000
vn 0.000000 -1.000000 0.000000
vn 0.000000 -1.000000 0.000000
vn 0.000000 -1.000000 0.000000
vn 0.000000 -1.000000 0.000000
vn 0.000000 -1.000000 0.000000
vn 0.000000 -1.000000 0.000000
vn 0.000000 -1.000000 0.000000
vn -1.000000 0.000000 0.000000
vn -1.000000 0.000000 0.000000
vn -1.000000 0.000000 0.000000
vn -1.000000 0.000000 0.000000
vn -1.000000 0.000000 0.000000
vn -1.000000 0.000000 0.000000
vn 0.000000 0.000000 -1.000000
vn 0.000000 0.000000 -1.000000
vn 1.000000 0.000000 0.000000
vn 1.000000 0.000000 0.000000
vn -1.000000 0.000000 0.000000
vn -1.000000 0.000000 0.000000
vn 1.000000 0.000000 0.000000
vn -1.000000 0.000000 0.000000
vn -1.000000 0.000000 0.000000
vn 1.000000 0.000000 0.000000
vn 0.000000 0.000000 1.000000
vn 0.000000 0.000000 1.000000
vn 0.000000 0.000000 -1.000000
vn 0.000000 0.000000 -1.000000
vn 0.000000 0.000000 -1.000000
vn 0.000000 0.000000 -1.000000
vn 1.000000 0.000000 0.000000
vn 1.000000 0.000000 0.000000
vn 1.000000 0.000000 0.000000
vn 1.000000 0.000000 0.000000
vn -1.000000 -0.000000 0.000001
vn -1.000000 -0.000000 0.000001
vn -1.000000 -0.000001 0.000001
vn -1.000000 -0.000001 0.000001
vn 1.000000 0.000000 0.000000
vn 1.000000 0.000000 0.000000
vn 1.000000 0.000000 0.000000
vn 1.000000 0.000000 0.000000
vn 0.000000 0.000000 1.000000
vn 0.000000 0.000000 1.000000
vn 0.000000 0.000000 1.000000
vn 0.000000 0.000000 1.000000
vn -1.000000 0.000000 0.000000
vn -1.000000 0.000000 0.000000
vn -1.000000 0.000000 0.000000
vn -1.000000 0.000000 0.000000
vn 1.000000 0.000000 0.000000
vn 1.000000 0.000000 0.000000
vn 0.000000 -0.000000 1.000000
vn 0.000000 -0.000000 1.000000
vn 0.000000 -0.000000 1.000000
vn 0.000000 -0.000000 1.000000
vn 1.000000 0.000000 0.000000
vn 1.000000 0.000000 0.000000
vn 0.000000 0.000000 -1.000000
vn 0.000000 0.000000 -1.000000
vn 0.000000 0.000000 -1.000000
vn 0.000000 0.000000 -1.000000
vn 0.000000 -1.000000 0.000000
vn 0.000000 -1.000000 0.000000
vn 0.000000 -1.000000 0.000000
vn 0.000000 -1.000000 0.000000
vn 1.000000 -0.000002 0.000000
vn 1.000000 -0.000002 0.000000
vn 1.000000 -0.000002 0.000000
vn 1.000000 -0.000002 0.000000
vn 0.000000 0.999945 0.010506
vn 0.000000 0.999945 0.010506
vn 0.000000 0.999945 0.010506
vn 0.000000 0.999945 0.010506
vn -1.000000 0.000002 -0.000000
vn -1.000000 0.000002 -0.000000
vn -1.000000 0.000002 -0.000000
vn -1.000000 0.000002 -0.000000
s 1
g pCube6
usemtl initialShadingGroup
f 12/15/1 9/81/2 2/83/3 4/4/4
s 2
f 11/14/5 19/23/6 20/24/7 6/6/8
s 3
f 10/80/9 11/14/10 6/6/11 8/82/12
s 4
f 33/44/13 34/41/14 35/42/15 36/43/16
s 5
f 20/24/17 21/26/18 8/10/19 6/6/20
s 6
f 7/88/21 24/29/22 17/21/23 5/5/24
s 7
f 22/79/25 23/67/26 14/69/27 10/92/28
s 3
f 14/91/29 15/19/30 11/14/10 10/80/9
s 2
f 15/19/31 18/22/32 19/23/6 11/14/5
s 1
f 16/20/33 13/16/34 9/81/2 12/15/1
s off
f 41/49/35 42/50/36 43/70/37 44/52/38
s 3
f 5/5/39 15/19/30 14/91/29 7/11/40
s 2
f 17/21/41 18/22/32 15/19/31 5/5/42
s 1
f 1/90/43 13/16/34 16/20/33 3/3/44
s 2
f 25/31/45 26/32/46 18/22/32 17/21/41
f 19/23/6 18/22/32 26/32/46 27/33/47
f 20/24/7 19/23/6 27/33/47 28/34/48
s 5
f 28/34/49 29/36/50 21/26/18 20/24/17
s 4
f 37/46/51 38/45/52 34/41/14 33/44/13
s 7
f 30/78/53 31/65/54 23/67/26 22/79/25
f 24/68/55 23/67/26 31/65/54 32/66/56
s 6
f 17/21/23 24/29/22 32/39/57 25/31/58
s 2
f 3/3/59 16/20/60 26/32/46 25/31/45
f 27/33/47 26/32/46 16/20/60 12/15/61
f 28/34/48 27/33/47 12/15/61 4/4/62
s 5
f 2/89/63 29/36/50 28/34/49 4/4/64
s 4
f 39/47/65 38/45/52 37/46/51 40/48/66
s 7
f 13/16/67 31/65/54 30/78/53 9/81/68
s off
f 46/53/69 45/54/70 47/73/71 48/56/72
s 6
f 25/31/58 32/39/57 1/1/73 3/3/74
s 8
f 22/27/75 10/87/76 35/42/77 34/41/78
s 3
f 10/13/9 8/86/12 36/43/79 35/42/80
s 5
f 8/8/19 21/25/18 33/44/81 36/43/82
s 8
f 30/37/83 22/27/75 34/41/78 38/45/84
s 5
f 21/25/18 29/35/50 37/46/85 33/44/81
s 8
f 9/12/86 30/37/83 38/45/84 39/47/87
s 5
f 29/35/50 2/84/63 40/48/88 37/46/85
s 1
f 2/2/3 9/85/2 39/47/89 40/48/90
s 3
f 49/57/91 50/74/92 42/50/93 41/49/94
s 9
f 50/58/95 51/59/96 43/51/97 42/75/98
s 6
f 52/60/99 49/57/100 41/49/101 44/52/102
s 10
f 53/61/103 54/72/104 47/55/105 45/71/106
s 1
f 54/62/107 55/63/108 48/56/109 47/73/110
s 6
f 55/63/111 56/64/112 46/53/113 48/56/114
s 3
f 7/7/40 14/77/29 50/74/92 49/57/91
s 9
f 14/18/115 23/28/116 51/59/96 50/58/95
s off
f 23/28/117 24/30/118 52/60/119 51/59/120
s 6
f 24/30/22 7/7/21 49/57/100 52/60/99
s 10
f 31/38/121 13/76/122 54/72/104 53/61/103
s 1
f 13/17/34 1/9/43 55/63/108 54/62/107
s 6
f 1/9/73 32/40/57 56/64/112 55/63/111
s off
f 32/40/123 31/38/124 53/61/125 56/64/126
f 44/52/127 43/70/128 45/54/129 46/53/130
f 43/51/131 51/59/132 53/61/133 45/71/134
f 51/59/135 52/60/136 56/64/137 53/61/138
f 52/60/139 44/52/140 46/53/141 56/64/142
