# This file uses centimeters as units for non-parametric coordinates.

mtllib Walls and floor.mtl
g default
v -8.000000 0.000000 -5.033934
v 8.000000 0.000000 -5.033934
v -8.000000 0.000000 -4.966066
v 8.000000 0.000000 -4.966066
v -8.000000 4.000000 -4.966066
v 8.000000 4.000000 -4.966066
v -8.000000 4.000000 -5.033934
v 8.000000 4.000000 -5.033934
v -8.033934 0.000000 5.000000
v -8.033934 0.000000 -5.000000
v -7.966066 0.000000 5.000000
v -7.966066 0.000000 -5.000000
v -7.966066 4.000000 5.000000
v -7.966066 4.000000 -5.000000
v -8.033934 4.000000 5.000000
v -8.033934 4.000000 -5.000000
v -8.000000 0.000000 4.966066
v 8.000000 0.000000 4.966066
v -8.000000 0.000000 5.033934
v 8.000000 0.000000 5.033934
v -8.000000 4.000000 5.033934
v 8.000000 4.000000 5.033934
v -8.000000 4.000000 4.966066
v 8.000000 4.000000 4.966066
v 7.966066 0.000000 5.000000
v 7.966066 0.000000 -5.000000
v 8.033935 0.000000 5.000000
v 8.033935 0.000000 -5.000000
v 8.033935 4.000000 5.000000
v 8.033935 4.000000 -5.000000
v 7.966066 4.000000 5.000000
v 7.966066 4.000000 -5.000000
v 7.966066 0.000000 -4.408940
v 7.966066 4.000000 -4.408940
v 8.033935 4.000000 -4.408940
v 8.033935 0.000000 -4.408940
v 7.966066 0.000000 -1.002847
v 7.966066 4.000000 -1.002847
v 8.033935 4.000000 -1.002847
v 8.033935 0.000000 -1.002847
v 8.033935 3.739352 5.000000
v 8.033935 3.739351 -1.002847
v 8.033935 3.739351 -4.408940
v 8.033935 3.739352 -5.000000
v 7.966066 3.739351 -5.000000
v 7.966066 3.739352 -4.408940
v 7.966066 3.739352 -1.002847
v 7.966066 3.739351 5.000000
v 8.033935 1.146265 5.000000
v 8.033935 1.146265 -1.002847
v 8.033935 1.146265 -4.408940
v 8.033935 1.146265 -5.000000
v 7.966066 1.146265 -5.000000
v 7.966066 1.146265 -4.408940
v 7.966066 1.146265 -1.002847
v 7.966066 1.146265 5.000000
v -2.966066 0.000000 -0.037210
v -2.966066 0.000000 5.000000
v -3.033934 0.000000 -0.037210
v -3.033934 0.000000 5.000000
v -3.033934 4.000000 -0.037210
v -3.033934 4.000000 5.000000
v -2.966066 4.000000 -0.037210
v -2.966066 4.000000 5.000000
v -2.966066 0.000000 0.037210
v -2.966066 4.000000 0.037210
v -3.033934 4.000000 0.037210
v -3.033934 0.000000 0.037210
v -8.000000 0.000000 -0.037210
v -8.000000 0.000000 0.037210
v -8.000000 4.000000 0.037210
v -8.000000 4.000000 -0.037210
v -5.000000 0.000000 -0.037210
v -5.000000 0.000000 0.037210
v -5.000000 4.000000 0.037210
v -5.000000 4.000000 -0.037210
v -7.000000 0.000000 -0.037210
v -7.000000 4.000000 -0.037210
v -7.000000 4.000000 0.037210
v -7.000000 0.000000 0.037210
v -3.033934 3.482360 -0.037210
v -5.000000 3.482360 -0.037210
v -7.000000 3.482360 -0.037210
v -8.000000 3.482360 -0.037210
v -8.000000 3.482360 0.037210
v -7.000000 3.482360 0.037210
v -5.000000 3.482360 0.037210
v -3.033934 3.482360 0.037210
v -3.033934 3.482360 5.000000
v -2.966066 3.482360 5.000000
v -2.966066 3.482360 0.037210
v -2.966066 3.482360 -0.037210
v -8.000000 0.000000 5.000000
v 8.000000 0.000000 5.000000
v -8.000000 0.067868 5.000000
v 8.000000 0.067868 5.000000
v -8.000000 0.067870 -5.000000
v 8.000000 0.067870 -5.000000
v -8.000000 0.000000 -5.000000
v 8.000000 0.000000 -5.000000
vt 0.435758 0.013065
vt 0.834879 0.013065
vt 0.834879 0.014758
vt 0.435758 0.014758
vt 0.834879 0.114539
vt 0.435758 0.114539
vt 0.834879 0.116232
vt 0.435758 0.116232
vt 0.834879 0.216012
vt 0.435758 0.216012
vt 0.929854 0.234621
vt 0.929854 0.436398
vt 0.926430 0.436398
vt 0.926430 0.234621
vt 0.915669 0.233367
vt 0.915669 0.435142
vt 0.912245 0.435142
vt 0.912245 0.233367
vt 0.005456 0.735292
vt 0.324177 0.735292
vt 0.324177 0.737455
vt 0.005456 0.737455
vt 0.324177 0.864943
vt 0.005456 0.864943
vt 0.324177 0.867107
vt 0.005456 0.867107
vt 0.324177 0.994595
vt 0.005456 0.994595
vt 0.899398 0.435098
vt 0.899398 0.233707
vt 0.902814 0.233707
vt 0.902815 0.435098
vt 0.882325 0.435054
vt 0.882325 0.233751
vt 0.885742 0.233751
vt 0.885742 0.435054
vt 0.832425 0.235382
vt 0.435590 0.235382
vt 0.435590 0.233699
vt 0.832425 0.233699
vt 0.832425 0.435483
vt 0.435590 0.435483
vt 0.435590 0.336274
vt 0.832425 0.336274
vt 0.435590 0.334591
vt 0.832425 0.334591
vt 0.972718 0.236409
vt 0.972718 0.438724
vt 0.969286 0.438724
vt 0.969286 0.236409
vt 0.990468 0.236440
vt 0.990469 0.438693
vt 0.987037 0.438693
vt 0.987038 0.236440
vt 0.989220 0.510467
vt 0.985753 0.510467
vt 0.985753 0.480282
vt 0.989220 0.480282
vt 0.778007 0.510467
vt 0.764695 0.510467
vt 0.764695 0.480282
vt 0.778007 0.480282
vt 0.781473 0.510467
vt 0.781473 0.480282
vt 0.794784 0.480282
vt 0.794784 0.510467
vt 0.854671 0.421619
vt 0.858049 0.421619
vt 0.858049 0.434573
vt 0.854671 0.434573
vt 0.873109 0.235085
vt 0.873109 0.248078
vt 0.869731 0.248078
vt 0.869731 0.235085
vt 0.794784 0.684417
vt 0.781473 0.684417
vt 0.778007 0.684417
vt 0.764695 0.684417
vt 0.989220 0.684417
vt 0.985753 0.684417
vt 0.781473 0.990984
vt 0.794784 0.990984
vt 0.778007 0.990984
vt 0.764695 0.990984
vt 0.985753 0.990984
vt 0.989220 0.990984
vt 0.632266 0.990984
vt 0.632266 0.684417
vt 0.632266 0.510467
vt 0.632266 0.480282
vt 0.854671 0.292551
vt 0.858049 0.292551
vt 0.927213 0.480282
vt 0.927213 0.510467
vt 0.927213 0.684417
vt 0.927213 0.990984
vt 0.873109 0.377146
vt 0.869731 0.377146
vt 0.573726 0.990984
vt 0.573726 0.684417
vt 0.573726 0.510467
vt 0.573726 0.480282
vt 0.858049 0.235498
vt 0.854671 0.235498
vt 0.873109 0.434200
vt 0.869731 0.434200
vt 0.431617 0.456672
vt 0.591605 0.456672
vt 0.591605 0.459860
vt 0.431617 0.459860
vt 0.713406 0.456672
vt 0.713406 0.459860
vt 0.873395 0.456672
vt 0.873395 0.459860
vt 0.995196 0.456672
vt 0.995196 0.459860
vt 0.007062 0.729524
vt 0.007062 0.703721
vt 0.010445 0.703721
vt 0.010445 0.729524
vt 0.993439 0.220035
vt 0.989452 0.220035
vt 0.989452 0.192300
vt 0.993439 0.192300
vt 0.567062 0.495354
vt 0.559603 0.495354
vt 0.559603 0.488552
vt 0.567062 0.488552
vt 0.982749 0.192300
vt 0.986736 0.192300
vt 0.986736 0.220035
vt 0.982749 0.220035
vt 0.962641 0.005722
vt 0.966628 0.005722
vt 0.966628 0.009358
vt 0.962641 0.009358
vt 0.318224 0.702062
vt 0.416851 0.702062
vt 0.416851 0.727589
vt 0.318224 0.727589
vt 0.559603 0.692411
vt 0.567062 0.692411
vt 0.567062 0.892870
vt 0.559603 0.892870
vt 0.108445 0.729524
vt 0.108445 0.703721
vt 0.208137 0.703722
vt 0.208137 0.729524
vt 0.966628 0.114696
vt 0.962641 0.114696
vt 0.513805 0.702062
vt 0.513805 0.727589
vt 0.257983 0.703722
vt 0.257983 0.729524
vt 0.567062 0.993100
vt 0.559603 0.993100
vt 0.268911 0.702062
vt 0.268911 0.727589
vt 0.949235 0.005722
vt 0.953222 0.005722
vt 0.953222 0.059300
vt 0.949235 0.059300
vt 0.010445 0.530140
vt 0.108445 0.530139
vt 0.208137 0.530140
vt 0.257983 0.530140
vt 0.982749 0.005722
vt 0.986736 0.005722
vt 0.318224 0.530335
vt 0.268911 0.530335
vt 0.513805 0.530335
vt 0.416851 0.530335
vt 0.989452 0.005722
vt 0.993439 0.005722
vt 0.007062 0.530140
vt 0.980034 0.005722
vt 0.980034 0.192300
vt 0.976046 0.192300
vt 0.976046 0.005722
vt 0.973331 0.005722
vt 0.973331 0.192300
vt 0.969343 0.192300
vt 0.969343 0.005722
vt 0.955938 0.112878
vt 0.955938 0.005722
vt 0.959925 0.005722
vt 0.959925 0.112878
vt 0.426374 0.270558
vt 0.018225 0.270558
vt 0.018225 0.268826
vt 0.426374 0.268826
vt 0.018225 0.013733
vt 0.426374 0.013733
vt 0.018225 0.012001
vt 0.426374 0.012001
vt 0.426374 0.525652
vt 0.018225 0.525652
vt 0.943003 0.436570
vt 0.943003 0.235962
vt 0.944364 0.235962
vt 0.944364 0.436570
vt 0.954447 0.436572
vt 0.954447 0.235959
vt 0.955808 0.235959
vt 0.955808 0.436572
vt 0.522308 0.735015
vt 0.522305 0.751595
vt 0.363350 0.751574
vt 0.363352 0.734994
vt 0.522291 0.863133
vt 0.363336 0.863112
vt 0.363320 0.976823
vt 0.522276 0.976844
vt 0.522273 0.993424
vt 0.363318 0.993403
vt 0.522290 0.865307
vt 0.363335 0.865286
vt 0.522308 0.732841
vt 0.363353 0.732821
vt 0.361147 0.976823
vt 0.361145 0.993403
vt 0.361161 0.865285
vn 0.000000 -1.000000 0.000000
vn 0.000000 -1.000000 0.000000
vn 0.000000 -1.000000 0.000000
vn 0.000000 -1.000000 0.000000
vn 0.000000 0.000000 1.000000
vn 0.000000 0.000000 1.000000
vn 0.000000 0.000000 1.000000
vn 0.000000 0.000000 1.000000
vn 0.000000 1.000000 0.000000
vn 0.000000 1.000000 0.000000
vn 0.000000 1.000000 0.000000
vn 0.000000 1.000000 0.000000
vn 0.000000 0.000000 -1.000000
vn 0.000000 0.000000 -1.000000
vn 0.000000 0.000000 -1.000000
vn 0.000000 0.000000 -1.000000
vn 1.000000 0.000000 0.000000
vn 1.000000 0.000000 0.000000
vn 1.000000 0.000000 0.000000
vn 1.000000 0.000000 0.000000
vn -1.000000 0.000000 0.000000
vn -1.000000 0.000000 0.000000
vn -1.000000 0.000000 0.000000
vn -1.000000 0.000000 0.000000
vn 0.000000 -1.000000 0.000000
vn 0.000000 -1.000000 0.000000
vn 0.000000 -1.000000 0.000000
vn 0.000000 -1.000000 0.000000
vn 1.000000 0.000000 0.000000
vn 1.000000 0.000000 0.000000
vn 1.000000 0.000000 0.000000
vn 1.000000 0.000000 0.000000
vn 0.000000 1.000000 0.000000
vn 0.000000 1.000000 0.000000
vn 0.000000 1.000000 0.000000
vn 0.000000 1.000000 0.000000
vn -1.000000 0.000000 0.000000
vn -1.000000 0.000000 0.000000
vn -1.000000 0.000000 0.000000
vn -1.000000 0.000000 0.000000
vn 0.000000 0.000000 -1.000000
vn 0.000000 0.000000 -1.000000
vn 0.000000 0.000000 -1.000000
vn 0.000000 0.000000 -1.000000
vn 0.000000 0.000000 1.000000
vn 0.000000 0.000000 1.000000
vn 0.000000 0.000000 1.000000
vn 0.000000 0.000000 1.000000
vn 0.000000 -1.000000 0.000000
vn 0.000000 -1.000000 0.000000
vn 0.000000 -1.000000 0.000000
vn 0.000000 -1.000000 0.000000
vn 0.000000 0.000000 1.000000
vn 0.000000 0.000000 1.000000
vn 0.000000 0.000000 1.000000
vn 0.000000 0.000000 1.000000
vn 0.000000 1.000000 0.000000
vn 0.000000 1.000000 0.000000
vn 0.000000 1.000000 0.000000
vn 0.000000 1.000000 0.000000
vn 0.000000 0.000000 -1.000000
vn 0.000000 0.000000 -1.000000
vn 0.000000 0.000000 -1.000000
vn 0.000000 0.000000 -1.000000
vn 1.000000 0.000000 0.000000
vn 1.000000 0.000000 0.000000
vn 1.000000 0.000000 0.000000
vn 1.000000 0.000000 0.000000
vn -1.000000 0.000000 0.000000
vn -1.000000 0.000000 0.000000
vn -1.000000 0.000000 0.000000
vn -1.000000 0.000000 0.000000
vn 0.000000 -1.000000 0.000000
vn 0.000000 -1.000000 0.000000
vn 0.000000 -1.000000 0.000000
vn 0.000000 -1.000000 0.000000
vn 1.000000 0.000000 0.000000
vn 1.000000 0.000000 0.000000
vn 1.000000 0.000000 0.000000
vn 1.000000 0.000000 0.000000
vn 0.000000 1.000000 0.000000
vn 0.000000 1.000000 0.000000
vn 0.000000 1.000000 0.000000
vn 0.000000 1.000000 0.000000
vn -1.000000 0.000000 0.000000
vn -1.000000 0.000000 0.000000
vn -1.000000 0.000000 0.000000
vn -1.000000 0.000000 0.000000
vn 0.000000 0.000000 -1.000000
vn 0.000000 0.000000 -1.000000
vn 0.000000 0.000000 -1.000000
vn 0.000000 0.000000 -1.000000
vn 0.000000 0.000000 1.000000
vn 0.000000 0.000000 1.000000
vn 0.000000 0.000000 1.000000
vn 0.000000 0.000000 1.000000
vn -1.000000 0.000000 0.000000
vn -1.000000 0.000000 0.000000
vn -1.000000 0.000000 0.000000
vn -1.000000 0.000000 0.000000
vn 0.000000 1.000000 0.000000
vn 0.000000 1.000000 0.000000
vn 0.000000 1.000000 0.000000
vn 0.000000 1.000000 0.000000
vn 1.000000 0.000000 0.000000
vn 1.000000 0.000000 0.000000
vn 1.000000 0.000000 0.000000
vn 1.000000 0.000000 0.000000
vn 0.000000 -1.000000 0.000000
vn 0.000000 -1.000000 0.000000
vn 0.000000 -1.000000 0.000000
vn 0.000000 -1.000000 0.000000
vn -1.000000 0.000000 0.000000
vn -1.000000 0.000000 0.000000
vn -1.000000 0.000000 0.000000
vn -1.000000 0.000000 0.000000
vn 0.000000 1.000000 0.000000
vn 0.000000 1.000000 0.000000
vn 0.000000 1.000000 0.000000
vn 0.000000 1.000000 0.000000
vn 1.000000 0.000000 0.000000
vn 1.000000 0.000000 0.000000
vn 1.000000 0.000000 0.000000
vn 1.000000 0.000000 0.000000
vn 0.000000 -1.000000 0.000000
vn 0.000000 -1.000000 0.000000
vn 0.000000 -1.000000 0.000000
vn 0.000000 -1.000000 0.000000
vn 1.000000 0.000000 0.000000
vn 1.000000 0.000000 0.000000
vn 1.000000 0.000000 0.000000
vn 1.000000 0.000000 0.000000
vn 1.000000 0.000000 0.000000
vn 1.000000 0.000000 0.000000
vn 1.000000 0.000000 0.000000
vn 1.000000 0.000000 0.000000
vn 0.000000 0.000000 -1.000000
vn 0.000000 0.000000 -1.000000
vn 0.000000 0.000000 -1.000000
vn 0.000000 0.000000 -1.000000
vn -1.000000 0.000000 0.000000
vn -1.000000 0.000000 0.000000
vn -1.000000 0.000000 0.000000
vn -1.000000 0.000000 0.000000
vn -1.000000 0.000000 0.000000
vn -1.000000 0.000000 0.000000
vn -1.000000 0.000000 0.000000
vn -1.000000 0.000000 0.000000
vn 0.000000 0.000000 1.000000
vn 0.000000 0.000000 1.000000
vn 0.000000 0.000000 1.000000
vn 0.000000 0.000000 1.000000
vn 1.000000 0.000000 0.000000
vn 1.000000 0.000000 0.000000
vn 1.000000 0.000000 0.000000
vn 1.000000 0.000000 0.000000
vn 1.000000 0.000000 0.000000
vn 1.000000 0.000000 0.000000
vn 1.000000 0.000000 0.000000
vn 1.000000 0.000000 0.000000
vn 1.000000 0.000000 0.000000
vn 1.000000 0.000000 0.000000
vn 1.000000 0.000000 0.000000
vn 1.000000 0.000000 0.000000
vn 0.000000 0.000000 -1.000000
vn 0.000000 0.000000 -1.000000
vn 0.000000 0.000000 -1.000000
vn 0.000000 0.000000 -1.000000
vn -1.000000 0.000000 0.000000
vn -1.000000 0.000000 0.000000
vn -1.000000 0.000000 0.000000
vn -1.000000 0.000000 0.000000
vn -1.000000 0.000000 0.000000
vn -1.000000 0.000000 0.000000
vn -1.000000 0.000000 0.000000
vn -1.000000 0.000000 0.000000
vn -1.000000 0.000000 0.000000
vn -1.000000 0.000000 0.000000
vn -1.000000 0.000000 0.000000
vn -1.000000 0.000000 0.000000
vn 0.000000 0.000000 1.000000
vn 0.000000 0.000000 1.000000
vn 0.000000 0.000000 1.000000
vn 0.000000 0.000000 1.000000
vn 0.000000 1.000000 0.000000
vn 0.000000 1.000000 0.000000
vn 0.000000 1.000000 0.000000
vn 0.000000 1.000000 0.000000
vn 0.000000 0.000000 1.000000
vn 0.000000 0.000000 1.000000
vn 0.000000 0.000000 1.000000
vn 0.000000 0.000000 1.000000
vn -0.000011 -1.000000 0.000000
vn -0.000011 -1.000000 0.000000
vn -0.000011 -1.000000 0.000000
vn -0.000011 -1.000000 0.000000
vn -0.000000 0.000000 -1.000000
vn -0.000000 0.000000 -1.000000
vn -0.000000 0.000000 -1.000000
vn -0.000000 0.000000 -1.000000
vn 0.000000 -1.000000 0.000000
vn 0.000000 -1.000000 0.000000
vn 0.000000 -1.000000 0.000000
vn 0.000000 -1.000000 0.000000
vn -1.000000 0.000000 0.000000
vn -1.000000 0.000000 0.000000
vn -1.000000 0.000000 0.000000
vn -1.000000 0.000000 0.000000
vn 0.000000 1.000000 0.000000
vn 0.000000 1.000000 0.000000
vn 0.000000 1.000000 0.000000
vn 0.000000 1.000000 0.000000
vn 1.000000 0.000000 0.000000
vn 1.000000 0.000000 0.000000
vn 1.000000 0.000000 0.000000
vn 1.000000 0.000000 0.000000
vn 0.000000 0.000000 1.000000
vn 0.000000 0.000000 1.000000
vn 0.000000 0.000000 1.000000
vn 0.000000 0.000000 1.000000
vn 0.000000 0.000000 -1.000000
vn 0.000000 0.000000 -1.000000
vn 0.000000 0.000000 -1.000000
vn 0.000000 0.000000 -1.000000
vn 1.000000 0.000000 0.000000
vn 1.000000 0.000000 0.000000
vn 1.000000 0.000000 0.000000
vn 1.000000 0.000000 0.000000
vn 0.000000 1.000000 0.000000
vn 0.000000 1.000000 0.000000
vn 0.000000 1.000000 0.000000
vn 0.000000 1.000000 0.000000
vn -1.000000 0.000000 0.000000
vn -1.000000 0.000000 0.000000
vn -1.000000 0.000000 0.000000
vn -1.000000 0.000000 0.000000
vn 0.000000 -1.000000 0.000000
vn 0.000000 -1.000000 0.000000
vn 0.000000 -1.000000 0.000000
vn 0.000000 -1.000000 0.000000
vn 0.000000 0.000000 1.000000
vn 0.000000 0.000000 1.000000
vn 0.000000 0.000000 1.000000
vn 0.000000 0.000000 1.000000
vn 0.000000 1.000000 0.000000
vn 0.000000 1.000000 0.000000
vn 0.000000 1.000000 0.000000
vn 0.000000 1.000000 0.000000
vn 0.000000 0.000000 -1.000000
vn 0.000000 0.000000 -1.000000
vn 0.000000 0.000000 -1.000000
vn 0.000000 0.000000 -1.000000
vn 0.000000 -1.000000 0.000000
vn 0.000000 -1.000000 0.000000
vn 0.000000 -1.000000 0.000000
vn 0.000000 -1.000000 0.000000
vn 0.000000 0.000000 1.000000
vn 0.000000 0.000000 1.000000
vn 0.000000 0.000000 1.000000
vn 0.000000 0.000000 1.000000
vn 0.000000 1.000000 0.000000
vn 0.000000 1.000000 0.000000
vn 0.000000 1.000000 0.000000
vn 0.000000 1.000000 0.000000
vn 0.000000 0.000000 -1.000000
vn 0.000000 0.000000 -1.000000
vn 0.000000 0.000000 -1.000000
vn 0.000000 0.000000 -1.000000
vn 0.000000 0.000000 -1.000000
vn 0.000000 0.000000 -1.000000
vn 0.000000 0.000000 -1.000000
vn 0.000000 0.000000 -1.000000
vn 0.000000 1.000000 0.000000
vn 0.000000 1.000000 0.000000
vn 0.000000 1.000000 0.000000
vn 0.000000 1.000000 0.000000
vn 0.000000 0.000000 1.000000
vn 0.000000 0.000000 1.000000
vn 0.000000 0.000000 1.000000
vn 0.000000 0.000000 1.000000
vn 0.000000 -1.000000 0.000000
vn 0.000000 -1.000000 0.000000
vn 0.000000 -1.000000 0.000000
vn 0.000000 -1.000000 0.000000
vn 0.000000 0.000000 -1.000000
vn 0.000000 0.000000 -1.000000
vn 0.000000 0.000000 -1.000000
vn 0.000000 0.000000 -1.000000
vn 0.000000 0.000000 -1.000000
vn 0.000000 0.000000 -1.000000
vn 0.000000 0.000000 -1.000000
vn 0.000000 0.000000 -1.000000
vn -1.000000 0.000000 0.000000
vn -1.000000 0.000000 0.000000
vn -1.000000 0.000000 0.000000
vn -1.000000 0.000000 0.000000
vn 0.000000 0.000000 1.000000
vn 0.000000 0.000000 1.000000
vn 0.000000 0.000000 1.000000
vn 0.000000 0.000000 1.000000
vn 0.000000 0.000000 1.000000
vn 0.000000 0.000000 1.000000
vn 0.000000 0.000000 1.000000
vn 0.000000 0.000000 1.000000
vn -1.000000 0.000000 0.000000
vn -1.000000 0.000000 0.000000
vn -1.000000 0.000000 0.000000
vn -1.000000 0.000000 0.000000
vn 0.000000 0.000000 1.000000
vn 0.000000 0.000000 1.000000
vn 0.000000 0.000000 1.000000
vn 0.000000 0.000000 1.000000
vn 1.000000 0.000000 0.000000
vn 1.000000 0.000000 0.000000
vn 1.000000 0.000000 0.000000
vn 1.000000 0.000000 0.000000
vn 1.000000 0.000000 0.000000
vn 1.000000 0.000000 0.000000
vn 1.000000 0.000000 0.000000
vn 1.000000 0.000000 0.000000
vn 0.000000 0.000000 -1.000000
vn 0.000000 0.000000 -1.000000
vn 0.000000 0.000000 -1.000000
vn 0.000000 0.000000 -1.000000
vn 1.000000 0.000000 0.000000
vn 1.000000 0.000000 0.000000
vn 1.000000 0.000000 0.000000
vn 1.000000 0.000000 0.000000
vn -1.000000 0.000000 0.000000
vn -1.000000 0.000000 0.000000
vn -1.000000 0.000000 0.000000
vn -1.000000 0.000000 0.000000
vn 0.000000 -1.000000 0.000000
vn 0.000000 -1.000000 0.000000
vn 0.000000 -1.000000 0.000000
vn 0.000000 -1.000000 0.000000
vn 0.000000 0.000000 1.000000
vn 0.000000 0.000000 1.000000
vn 0.000000 0.000000 1.000000
vn 0.000000 0.000000 1.000000
vn 0.000000 1.000000 0.000000
vn 0.000000 1.000000 0.000000
vn 0.000000 1.000000 0.000000
vn 0.000000 1.000000 0.000000
vn 0.000000 0.000000 -1.000000
vn 0.000000 0.000000 -1.000000
vn 0.000000 0.000000 -1.000000
vn 0.000000 0.000000 -1.000000
vn 0.000000 -1.000000 0.000000
vn 0.000000 -1.000000 0.000000
vn 0.000000 -1.000000 0.000000
vn 0.000000 -1.000000 0.000000
vn 1.000000 0.000000 0.000000
vn 1.000000 0.000000 0.000000
vn 1.000000 0.000000 0.000000
vn 1.000000 0.000000 0.000000
vn -1.000000 0.000000 0.000000
vn -1.000000 0.000000 0.000000
vn -1.000000 0.000000 0.000000
vn -1.000000 0.000000 0.000000
s off
g Walls_and_floor:polySurface73
usemtl initialShadingGroup
f 1/1/1 2/2/2 4/3/3 3/4/4
f 3/4/5 4/3/6 6/5/7 5/6/8
f 5/6/9 6/5/10 8/7/11 7/8/12
f 7/8/13 8/7/14 2/9/15 1/10/16
f 2/11/17 8/12/18 6/13/19 4/14/20
f 7/15/21 1/16/22 3/17/23 5/18/24
f 9/19/25 10/20/26 12/21/27 11/22/28
f 11/22/29 12/21/30 14/23/31 13/24/32
f 13/24/33 14/23/34 16/25/35 15/26/36
f 15/26/37 16/25/38 10/27/39 9/28/40
f 10/29/41 16/30/42 14/31/43 12/32/44
f 15/33/45 9/34/46 11/35/47 13/36/48
f 17/37/49 18/38/50 20/39/51 19/40/52
f 19/41/53 20/42/54 22/43/55 21/44/56
f 21/44/57 22/43/58 24/45/59 23/46/60
f 23/46/61 24/45/62 18/38/63 17/37/64
f 18/47/65 24/48/66 22/49/67 20/50/68
f 23/51/69 17/52/70 19/53/71 21/54/72
f 36/55/73 33/56/74 26/57/75 28/58/76
f 35/59/77 43/60/78 44/61/79 30/62/80
f 34/63/81 35/59/82 30/62/83 32/64/84
f 45/65/85 46/66/86 34/63/87 32/64/88
f 44/67/89 45/68/90 32/69/91 30/70/92
f 31/71/93 48/72/94 41/73/95 29/74/96
f 46/66/97 47/75/98 38/76/99 34/63/100
f 38/76/101 39/77/102 35/59/103 34/63/104
f 39/77/105 42/78/106 43/60/107 35/59/108
f 40/79/109 37/80/110 33/56/111 36/55/112
f 31/81/113 38/76/114 47/75/115 48/82/116
f 29/83/117 39/77/118 38/76/119 31/81/120
f 41/84/121 42/78/122 39/77/123 29/83/124
f 25/85/125 37/80/126 40/79/127 27/86/128
f 49/87/129 50/88/130 42/78/131 41/84/132
f 44/61/133 43/60/134 51/89/135 52/90/136
f 52/91/137 53/92/138 45/68/139 44/67/140
f 53/93/141 54/94/142 46/66/143 45/65/144
f 48/82/145 47/75/146 55/95/147 56/96/148
f 41/73/149 48/72/150 56/97/151 49/98/152
f 27/99/153 40/100/154 50/88/155 49/87/156
f 51/89/157 50/88/158 40/100/159 36/101/160
f 52/90/161 51/89/162 36/101/163 28/102/164
f 26/103/165 53/92/166 52/91/167 28/104/168
f 33/56/169 54/94/170 53/93/171 26/57/172
f 37/80/173 55/95/174 54/94/175 33/56/176
f 56/96/177 55/95/178 37/80/179 25/85/180
f 49/98/181 56/97/182 25/105/183 27/106/184
f 50/107/185 51/108/186 54/109/187 55/110/188
f 51/108/189 43/111/190 46/112/191 54/109/192
f 43/111/193 42/113/194 47/114/195 46/112/196
f 42/113/197 50/115/198 55/116/199 47/114/200
f 68/210/201 65/216/202 58/217/203 60/211/204
f 67/206/205 88/207/206 89/208/207 62/209/208
f 66/218/209 67/206/210 62/209/211 64/219/212
f 90/212/213 91/213/214 66/214/215 64/215/216
f 89/220/217 90/212/218 64/215/219 62/221/220
f 63/117/221 92/118/222 81/119/223 61/120/224
f 63/121/225 66/122/226 91/123/227 92/124/228
f 61/125/229 67/126/230 66/127/231 63/128/232
f 84/129/233 85/130/234 71/131/235 72/132/236
f 57/133/237 65/134/238 68/135/239 59/136/240
f 86/137/241 87/138/242 75/139/243 79/140/244
f 75/141/245 76/142/246 78/143/247 79/144/248
f 76/145/249 82/146/250 83/147/251 78/148/252
f 59/136/253 68/135/254 74/149/255 73/150/256
f 87/138/257 88/151/258 67/152/259 75/139/260
f 67/126/261 61/125/262 76/142/263 75/141/264
f 61/120/265 81/119/266 82/146/267 76/145/268
f 78/148/269 83/147/270 84/153/271 72/154/272
f 79/144/273 78/143/274 72/155/275 71/156/276
f 85/157/277 86/137/278 79/140/279 71/158/280
f 77/159/281 80/160/282 70/161/283 69/162/284
f 82/146/285 81/119/286 59/163/287 73/164/288
f 84/153/289 83/147/290 77/165/291 69/166/292
f 69/167/293 70/168/294 85/130/295 84/129/296
f 80/169/297 86/137/298 85/157/299 70/170/300
f 68/171/301 88/151/302 87/138/303 74/172/304
f 89/208/305 88/207/306 68/210/307 60/211/308
f 58/217/309 90/212/310 89/220/311 60/222/312
f 65/216/313 91/213/314 90/212/315 58/217/316
f 92/124/317 91/123/318 65/173/319 57/174/320
f 81/119/321 92/118/322 57/175/323 59/163/324
f 77/176/325 83/177/326 86/178/327 80/179/328
f 74/180/329 87/181/330 82/182/331 73/183/332
f 83/184/333 82/185/334 87/186/335 86/187/336
f 93/188/337 94/189/338 96/190/339 95/191/340
f 95/191/341 96/190/342 98/192/343 97/193/344
f 97/193/345 98/192/346 100/194/347 99/195/348
f 99/196/349 100/197/350 94/189/351 93/188/352
f 94/198/353 100/199/354 98/200/355 96/201/356
f 99/202/357 93/203/358 95/204/359 97/205/360
