# This file uses centimeters as units for non-parametric coordinates.

mtllib Window.mtl
g default
v -0.135391 1.080961 1.763507
v 0.135391 1.080961 1.763507
v -0.135391 3.789535 1.763507
v 0.135391 3.789535 1.763507
v -0.135391 3.789535 -1.763507
v 0.135391 3.789535 -1.763507
v -0.135391 1.080961 -1.763507
v 0.135391 1.080961 -1.763507
v 0.135391 1.500322 -1.577901
v 0.135391 1.500322 1.577901
v 0.135391 3.622022 -1.577901
v 0.135391 3.622022 1.577901
v -0.135391 1.500322 -1.577901
v -0.135391 1.500322 1.577901
v -0.135391 3.622022 1.577901
v -0.135391 3.622022 -1.577901
v -0.135391 2.570686 -1.763507
v 0.135391 2.570686 -1.763507
v 0.135391 2.667257 -1.577901
v -0.135391 2.667257 -1.577901
v -0.135391 2.299831 -1.763507
v -0.135391 2.455087 -1.577901
v 0.135391 2.455087 -1.577901
v 0.135391 2.299831 -1.763507
v -0.135391 2.299831 1.763507
v 0.135391 2.299831 1.763507
v 0.135391 2.455087 1.577901
v -0.135391 2.455087 1.577901
v -0.135391 2.570686 1.763507
v -0.135391 2.667257 1.577901
v 0.135391 2.667257 1.577901
v 0.135391 2.570686 1.763507
v -0.135391 3.789535 -0.176351
v -0.135391 3.622022 -0.119978
v 0.135391 3.622022 -0.119978
v 0.135391 3.789535 -0.176351
v -0.135391 3.789535 0.176350
v 0.135391 3.789535 0.176350
v 0.135391 3.622022 0.119977
v -0.135391 3.622022 0.119977
v -0.135391 1.080961 -0.176351
v 0.135391 1.080961 -0.176351
v 0.135391 1.500322 -0.119978
v -0.135391 1.500322 -0.119978
v -0.135391 1.080961 0.176350
v -0.135391 1.500322 0.119977
v 0.135391 1.500322 0.119977
v 0.135391 1.080961 0.176350
v 0.000000 1.500322 1.577901
v 0.000000 1.500322 0.119977
v 0.000000 1.500322 -0.119978
v 0.000000 1.500322 -1.577901
v 0.000000 2.455087 -1.577901
v 0.000000 2.667257 -1.577901
v 0.000000 3.622022 -1.577901
v 0.000000 3.622022 -0.119978
v 0.000000 3.622022 0.119977
v 0.000000 3.622022 1.577901
v 0.000000 2.667257 1.577901
v 0.000000 2.455087 1.577901
v -0.040617 2.455087 -1.577901
v -0.040617 1.500322 -1.577901
v -0.040617 1.500322 -0.119978
v -0.040617 1.500322 0.119977
v -0.040617 1.500322 1.577901
v -0.040617 2.455087 1.577901
v -0.040617 2.667257 1.577901
v -0.040617 3.622022 1.577901
v -0.040617 3.622022 0.119977
v -0.040617 3.622022 -0.119978
v -0.040617 3.622022 -1.577901
v -0.040617 2.667257 -1.577901
v 0.040617 1.500322 1.577901
v 0.040617 1.500322 0.119977
v 0.040617 1.500322 -0.119978
v 0.040617 1.500322 -1.577901
v 0.040617 2.455087 -1.577901
v 0.040617 2.667257 -1.577901
v 0.040617 3.622022 -1.577901
v 0.040617 3.622022 -0.119978
v 0.040617 3.622022 0.119977
v 0.040617 3.622022 1.577901
v 0.040617 2.667257 1.577901
v 0.040617 2.455087 1.577901
v 0.040617 2.667257 0.119977
v 0.000000 2.667257 0.119977
v -0.040617 2.667257 0.119977
v -0.040617 2.667257 -0.119978
v 0.000000 2.667257 -0.119978
v 0.040617 2.667257 -0.119978
v 0.040617 2.455087 0.119977
v 0.040617 2.455087 -0.119978
v 0.000000 2.455087 -0.119978
v -0.040617 2.455087 -0.119978
v -0.040617 2.455087 0.119977
v 0.000000 2.455087 0.119977
vt 0.275798 0.565538
vt 0.268437 0.494231
vt 0.314492 0.494231
vt 0.307131 0.565538
vt 0.497508 0.727884
vt 0.521744 0.701484
vt 0.521744 0.747540
vt 0.497508 0.763960
vt 0.307131 0.926306
vt 0.314492 0.954790
vt 0.268437 0.954790
vt 0.275798 0.926306
vt 0.085422 0.763960
vt 0.061185 0.747540
vt 0.061185 0.701484
vt 0.085422 0.727884
vt 0.267489 0.011014
vt 0.275001 0.083783
vt 0.306977 0.083783
vt 0.314489 0.011014
vt 0.055990 0.269515
vt 0.080723 0.286272
vt 0.080723 0.249456
vt 0.055990 0.222515
vt 0.314489 0.481012
vt 0.306977 0.451945
vt 0.275001 0.451945
vt 0.267489 0.481012
vt 0.525988 0.222515
vt 0.501255 0.249456
vt 0.501255 0.286272
vt 0.525988 0.269515
vt 0.521744 0.954790
vt 0.497508 0.926306
vt 0.026633 0.206500
vt 0.026482 0.117701
vt 0.030259 0.117695
vt 0.030411 0.206493
vt 0.525988 0.481012
vt 0.501255 0.451945
vt 0.525988 0.011014
vt 0.501255 0.083783
vt 0.030074 0.009164
vt 0.030226 0.097962
vt 0.026448 0.097968
vt 0.026297 0.009170
vt 0.521744 0.494231
vt 0.497508 0.565538
vt 0.061185 0.494231
vt 0.085422 0.565538
vt 0.027470 0.697336
vt 0.027318 0.608538
vt 0.031096 0.608531
vt 0.031247 0.697330
vt 0.055990 0.011014
vt 0.080723 0.083783
vt 0.055990 0.481012
vt 0.080723 0.451945
vt 0.030911 0.500000
vt 0.031062 0.588798
vt 0.027285 0.588805
vt 0.027133 0.500006
vt 0.061185 0.954790
vt 0.085422 0.926306
vt 0.030642 0.342088
vt 0.026864 0.342094
vt 0.026902 0.364412
vt 0.030680 0.364405
vt 0.027970 0.990843
vt 0.027739 0.855248
vt 0.031516 0.855242
vt 0.031747 0.990837
vt 0.031478 0.832925
vt 0.027701 0.832931
vt 0.035025 0.697323
vt 0.035256 0.832918
vt 0.035294 0.855235
vt 0.035525 0.990830
vt 0.033852 0.009157
vt 0.034003 0.097955
vt 0.034037 0.117688
vt 0.034188 0.206487
vt 0.034419 0.342081
vt 0.034458 0.364399
vt 0.034689 0.499994
vt 0.034840 0.588792
vt 0.034873 0.608525
vt 0.017634 0.097983
vt 0.017482 0.009185
vt 0.018924 0.855263
vt 0.019155 0.990858
vt 0.018886 0.832946
vt 0.018655 0.697351
vt 0.018504 0.608553
vt 0.018470 0.588820
vt 0.018319 0.500021
vt 0.018088 0.364427
vt 0.018050 0.342109
vt 0.017819 0.206514
vt 0.017667 0.117716
vt 0.043839 0.697308
vt 0.044070 0.832903
vt 0.044108 0.855220
vt 0.044339 0.990815
vt 0.042667 0.009142
vt 0.042818 0.097940
vt 0.042851 0.117673
vt 0.043003 0.206472
vt 0.043234 0.342066
vt 0.043272 0.364384
vt 0.043503 0.499978
vt 0.043654 0.588777
vt 0.043688 0.608510
vt 0.276583 0.729552
vt 0.306726 0.764259
vt 0.304739 0.249553
vt 0.275139 0.283635
vt 0.275139 0.437000
vt 0.306726 0.920439
vt 0.276583 0.573371
vt 0.304739 0.096188
vt 0.489873 0.729552
vt 0.484585 0.283635
vt 0.093436 0.764259
vt 0.095294 0.249553
vt 0.847304 0.987326
vt 0.847304 0.967016
vt 0.873759 0.967016
vt 0.873759 0.987326
vt 0.728258 0.987326
vt 0.728258 0.967016
vt 0.992805 0.967016
vt 0.992805 0.987326
vt 0.379599 0.987326
vt 0.379599 0.967016
vt 0.406053 0.967016
vt 0.406053 0.987326
vt 0.260553 0.987326
vt 0.260553 0.967016
vt 0.525099 0.967016
vt 0.525099 0.987326
vt 0.616522 0.987326
vt 0.616522 0.967016
vt 0.636837 0.967016
vt 0.636837 0.987326
vt 0.169131 0.987326
vt 0.169131 0.967016
vt 0.148815 0.967016
vt 0.148815 0.987326
vt 0.057394 0.987326
vt 0.057394 0.967016
vt 0.095294 0.283635
vt 0.275139 0.249553
vt 0.484585 0.249553
vt 0.275139 0.096188
vt 0.276583 0.764259
vt 0.093436 0.729552
vt 0.306726 0.729552
vt 0.489873 0.764259
vt 0.306726 0.573371
vt 0.276583 0.920439
vt 0.304739 0.437000
vt 0.304739 0.283635
vt 0.578682 0.962433
vt 0.562625 0.962462
vt 0.561595 0.386107
vt 0.577652 0.386078
vt 0.546568 0.962491
vt 0.545538 0.386135
vt 0.689320 0.012070
vt 0.705261 0.012028
vt 0.706762 0.584235
vt 0.690821 0.584277
vt 0.721202 0.011986
vt 0.722703 0.584193
vt 0.628392 0.961660
vt 0.612370 0.961766
vt 0.608536 0.386683
vt 0.624558 0.386576
vt 0.596349 0.961873
vt 0.592515 0.386790
vt 0.640083 0.008484
vt 0.656118 0.008441
vt 0.657675 0.583998
vt 0.641640 0.584041
vt 0.672152 0.008398
vt 0.673710 0.583955
vt 0.674729 0.960875
vt 0.658695 0.960918
vt 0.642660 0.960962
vt 0.544863 0.008692
vt 0.560920 0.008663
vt 0.576977 0.008634
vt 0.723687 0.958921
vt 0.707745 0.958962
vt 0.691804 0.959004
vt 0.590004 0.010179
vt 0.606026 0.010073
vt 0.622047 0.009966
vn 0.000000 1.000000 0.000000
vn 0.000000 1.000000 0.000000
vn 0.000000 1.000000 0.000000
vn 0.000000 1.000000 0.000000
vn 0.000000 0.000000 -1.000000
vn 0.000000 0.000000 -1.000000
vn 0.000000 0.000000 -1.000000
vn 0.000000 0.000000 -1.000000
vn 0.000000 -1.000000 0.000000
vn 0.000000 -1.000000 0.000000
vn 0.000000 -1.000000 0.000000
vn 0.000000 -1.000000 0.000000
vn 1.000000 0.000000 0.000000
vn 1.000000 0.000000 0.000000
vn 1.000000 0.000000 0.000000
vn 1.000000 0.000000 0.000000
vn 1.000000 0.000000 0.000000
vn 1.000000 0.000000 0.000000
vn 1.000000 0.000000 0.000000
vn 1.000000 0.000000 0.000000
vn 1.000000 0.000000 0.000000
vn 1.000000 0.000000 0.000000
vn 1.000000 0.000000 0.000000
vn 1.000000 0.000000 0.000000
vn 1.000000 0.000000 0.000000
vn 1.000000 0.000000 0.000000
vn 1.000000 0.000000 0.000000
vn 1.000000 0.000000 0.000000
vn -1.000000 0.000000 0.000000
vn -1.000000 0.000000 0.000000
vn -1.000000 0.000000 0.000000
vn -1.000000 0.000000 0.000000
vn -1.000000 0.000000 0.000000
vn -1.000000 0.000000 0.000000
vn -1.000000 0.000000 0.000000
vn -1.000000 0.000000 0.000000
vn -1.000000 0.000000 0.000000
vn -1.000000 0.000000 0.000000
vn -1.000000 0.000000 0.000000
vn -1.000000 0.000000 0.000000
vn -1.000000 0.000000 0.000000
vn -1.000000 0.000000 0.000000
vn -1.000000 0.000000 0.000000
vn -1.000000 0.000000 0.000000
vn 0.000000 0.000000 -1.000000
vn 0.000000 0.000000 -1.000000
vn 0.000000 0.000000 -1.000000
vn 0.000000 0.000000 -1.000000
vn 1.000000 0.000000 0.000000
vn 1.000000 0.000000 0.000000
vn 1.000000 0.000000 0.000000
vn 1.000000 0.000000 0.000000
vn 0.000000 0.000000 1.000000
vn 0.000000 0.000000 1.000000
vn 0.000000 0.000000 1.000000
vn 0.000000 0.000000 1.000000
vn -1.000000 0.000000 0.000000
vn -1.000000 0.000000 0.000000
vn -1.000000 0.000000 0.000000
vn -1.000000 0.000000 0.000000
vn -1.000000 0.000000 0.000000
vn -1.000000 0.000000 0.000000
vn -1.000000 0.000000 0.000000
vn -1.000000 0.000000 0.000000
vn 0.000000 0.000000 1.000000
vn 0.000000 0.000000 1.000000
vn 0.000000 0.000000 1.000000
vn 0.000000 0.000000 1.000000
vn 1.000000 0.000000 0.000000
vn 1.000000 0.000000 0.000000
vn 1.000000 0.000000 0.000000
vn 1.000000 0.000000 0.000000
vn 0.000000 0.000000 -1.000000
vn 0.000000 0.000000 -1.000000
vn 0.000000 0.000000 -1.000000
vn 0.000000 0.000000 -1.000000
vn 0.000000 0.000000 1.000000
vn 0.000000 0.000000 1.000000
vn 0.000000 0.000000 1.000000
vn 0.000000 0.000000 1.000000
vn 1.000000 0.000000 0.000000
vn 1.000000 0.000000 0.000000
vn 1.000000 0.000000 0.000000
vn 1.000000 0.000000 0.000000
vn 0.000000 0.000000 -1.000000
vn 0.000000 0.000000 -1.000000
vn 0.000000 0.000000 -1.000000
vn 0.000000 0.000000 -1.000000
vn -1.000000 0.000000 0.000000
vn -1.000000 0.000000 0.000000
vn -1.000000 0.000000 0.000000
vn -1.000000 0.000000 0.000000
vn -1.000000 0.000000 0.000000
vn -1.000000 0.000000 0.000000
vn -1.000000 0.000000 0.000000
vn -1.000000 0.000000 0.000000
vn 0.000000 0.000000 -1.000000
vn 0.000000 0.000000 -1.000000
vn 0.000000 0.000000 -1.000000
vn 0.000000 0.000000 -1.000000
vn 1.000000 0.000000 0.000000
vn 1.000000 0.000000 0.000000
vn 1.000000 0.000000 0.000000
vn 1.000000 0.000000 0.000000
vn 0.000000 0.000000 1.000000
vn 0.000000 0.000000 1.000000
vn 0.000000 0.000000 1.000000
vn 0.000000 0.000000 1.000000
vn -1.000000 0.000000 0.000000
vn -1.000000 0.000000 0.000000
vn -1.000000 0.000000 0.000000
vn -1.000000 0.000000 0.000000
vn 0.000000 -1.000000 0.000000
vn 0.000000 -1.000000 0.000000
vn 0.000000 -1.000000 0.000000
vn 0.000000 -1.000000 0.000000
vn 1.000000 0.000000 0.000000
vn 1.000000 0.000000 0.000000
vn 1.000000 0.000000 0.000000
vn 1.000000 0.000000 0.000000
vn 0.000000 1.000000 0.000000
vn 0.000000 1.000000 0.000000
vn 0.000000 1.000000 0.000000
vn 0.000000 1.000000 0.000000
vn 0.000000 1.000000 0.000000
vn 0.000000 1.000000 0.000000
vn 0.000000 1.000000 0.000000
vn 0.000000 1.000000 0.000000
vn 1.000000 0.000000 0.000000
vn 1.000000 0.000000 0.000000
vn 1.000000 0.000000 0.000000
vn 1.000000 0.000000 0.000000
vn 0.000000 -1.000000 0.000000
vn 0.000000 -1.000000 0.000000
vn 0.000000 -1.000000 0.000000
vn 0.000000 -1.000000 0.000000
vn -1.000000 0.000000 0.000000
vn -1.000000 0.000000 0.000000
vn -1.000000 0.000000 0.000000
vn -1.000000 0.000000 0.000000
vn 0.000000 -1.000000 0.000000
vn 0.000000 -1.000000 0.000000
vn 0.000000 -1.000000 0.000000
vn 0.000000 -1.000000 0.000000
vn 1.000000 0.000000 0.000000
vn 1.000000 0.000000 0.000000
vn 1.000000 0.000000 0.000000
vn 1.000000 0.000000 0.000000
vn 0.000000 1.000000 0.000000
vn 0.000000 1.000000 0.000000
vn 0.000000 1.000000 0.000000
vn 0.000000 1.000000 0.000000
vn -1.000000 0.000000 0.000000
vn -1.000000 0.000000 0.000000
vn -1.000000 0.000000 0.000000
vn -1.000000 0.000000 0.000000
vn -1.000000 0.000000 0.000000
vn -1.000000 0.000000 0.000000
vn -1.000000 0.000000 0.000000
vn -1.000000 0.000000 0.000000
vn 0.000000 1.000000 0.000000
vn 0.000000 1.000000 0.000000
vn 0.000000 1.000000 0.000000
vn 0.000000 1.000000 0.000000
vn 1.000000 0.000000 0.000000
vn 1.000000 0.000000 0.000000
vn 1.000000 0.000000 0.000000
vn 1.000000 0.000000 0.000000
vn 0.000000 -1.000000 0.000000
vn 0.000000 -1.000000 0.000000
vn 0.000000 -1.000000 0.000000
vn 0.000000 -1.000000 0.000000
vn 0.000000 1.000000 0.000000
vn 0.000000 1.000000 0.000000
vn 0.000000 1.000000 0.000000
vn 0.000000 1.000000 0.000000
vn 0.000000 1.000000 0.000000
vn 0.000000 1.000000 0.000000
vn 0.000000 1.000000 0.000000
vn 0.000000 1.000000 0.000000
vn 0.000000 0.000000 1.000000
vn 0.000000 0.000000 1.000000
vn 0.000000 0.000000 1.000000
vn 0.000000 0.000000 1.000000
vn 0.000000 0.000000 1.000000
vn 0.000000 0.000000 1.000000
vn 0.000000 0.000000 1.000000
vn 0.000000 0.000000 1.000000
vn 0.000000 -1.000000 0.000000
vn 0.000000 -1.000000 0.000000
vn 0.000000 -1.000000 0.000000
vn 0.000000 -1.000000 0.000000
vn 0.000000 -1.000000 0.000000
vn 0.000000 -1.000000 0.000000
vn 0.000000 -1.000000 0.000000
vn 0.000000 -1.000000 0.000000
vn 0.000000 0.000000 -1.000000
vn 0.000000 0.000000 -1.000000
vn 0.000000 0.000000 -1.000000
vn 0.000000 0.000000 -1.000000
vn 0.000000 0.000000 -1.000000
vn 0.000000 0.000000 -1.000000
vn 0.000000 0.000000 -1.000000
vn 0.000000 0.000000 -1.000000
vn 0.000000 0.000000 1.000000
vn 0.000000 0.000000 1.000000
vn 0.000000 0.000000 1.000000
vn 0.000000 0.000000 1.000000
vn 0.000000 1.000000 0.000000
vn 0.000000 1.000000 0.000000
vn 0.000000 1.000000 0.000000
vn 0.000000 1.000000 0.000000
vn 0.000000 1.000000 0.000000
vn 0.000000 1.000000 0.000000
vn 0.000000 1.000000 0.000000
vn 0.000000 1.000000 0.000000
vn 0.000000 1.000000 0.000000
vn 0.000000 1.000000 0.000000
vn 0.000000 1.000000 0.000000
vn 0.000000 1.000000 0.000000
vn 0.000000 0.000000 -1.000000
vn 0.000000 0.000000 -1.000000
vn 0.000000 0.000000 -1.000000
vn 0.000000 0.000000 -1.000000
vn 0.000000 0.000000 -1.000000
vn 0.000000 0.000000 -1.000000
vn 0.000000 0.000000 -1.000000
vn 0.000000 0.000000 -1.000000
vn 0.000000 0.000000 -1.000000
vn 0.000000 0.000000 -1.000000
vn 0.000000 0.000000 -1.000000
vn 0.000000 0.000000 -1.000000
vn 0.000000 -1.000000 0.000000
vn 0.000000 -1.000000 0.000000
vn 0.000000 -1.000000 0.000000
vn 0.000000 -1.000000 0.000000
vn 0.000000 -1.000000 0.000000
vn 0.000000 -1.000000 0.000000
vn 0.000000 -1.000000 0.000000
vn 0.000000 -1.000000 0.000000
vn 0.000000 -1.000000 0.000000
vn 0.000000 -1.000000 0.000000
vn 0.000000 -1.000000 0.000000
vn 0.000000 -1.000000 0.000000
vn 0.000000 0.000000 1.000000
vn 0.000000 0.000000 1.000000
vn 0.000000 0.000000 1.000000
vn 0.000000 0.000000 1.000000
vn 0.000000 0.000000 1.000000
vn 0.000000 0.000000 1.000000
vn 0.000000 0.000000 1.000000
vn 0.000000 0.000000 1.000000
vn 0.000000 1.000000 0.000000
vn 0.000000 1.000000 0.000000
vn 0.000000 1.000000 0.000000
vn 0.000000 1.000000 0.000000
vn 0.000000 1.000000 0.000000
vn 0.000000 1.000000 0.000000
vn 0.000000 1.000000 0.000000
vn 0.000000 1.000000 0.000000
vn 0.000000 1.000000 0.000000
vn 0.000000 1.000000 0.000000
vn 0.000000 1.000000 0.000000
vn 0.000000 1.000000 0.000000
vn 0.000000 0.000000 1.000000
vn 0.000000 0.000000 1.000000
vn 0.000000 0.000000 1.000000
vn 0.000000 0.000000 1.000000
vn 0.000000 0.000000 1.000000
vn 0.000000 0.000000 1.000000
vn 0.000000 0.000000 1.000000
vn 0.000000 0.000000 1.000000
vn 0.000000 0.000000 1.000000
vn 0.000000 0.000000 1.000000
vn 0.000000 0.000000 1.000000
vn 0.000000 0.000000 1.000000
vn 0.000000 -1.000000 0.000000
vn 0.000000 -1.000000 0.000000
vn 0.000000 -1.000000 0.000000
vn 0.000000 -1.000000 0.000000
vn 0.000000 -1.000000 0.000000
vn 0.000000 -1.000000 0.000000
vn 0.000000 -1.000000 0.000000
vn 0.000000 -1.000000 0.000000
vn 0.000000 -1.000000 0.000000
vn 0.000000 -1.000000 0.000000
vn 0.000000 -1.000000 0.000000
vn 0.000000 -1.000000 0.000000
vn 0.000000 0.000000 -1.000000
vn 0.000000 0.000000 -1.000000
vn 0.000000 0.000000 -1.000000
vn 0.000000 0.000000 -1.000000
vn 0.000000 0.000000 -1.000000
vn 0.000000 0.000000 -1.000000
vn 0.000000 0.000000 -1.000000
vn 0.000000 0.000000 -1.000000
vn 0.000000 0.000000 -1.000000
vn 0.000000 0.000000 -1.000000
vn 0.000000 0.000000 -1.000000
vn 0.000000 0.000000 -1.000000
vn 1.000000 0.000000 0.000000
vn 1.000000 0.000000 0.000000
vn 1.000000 0.000000 0.000000
vn 1.000000 0.000000 0.000000
vn -1.000000 0.000000 0.000000
vn -1.000000 0.000000 0.000000
vn -1.000000 0.000000 0.000000
vn -1.000000 0.000000 0.000000
vn 0.000000 0.000000 1.000000
vn 0.000000 0.000000 1.000000
vn 0.000000 0.000000 1.000000
vn 0.000000 0.000000 1.000000
vn 0.000000 0.000000 1.000000
vn 0.000000 0.000000 1.000000
vn 0.000000 0.000000 1.000000
vn 0.000000 0.000000 1.000000
vn -1.000000 0.000000 0.000000
vn -1.000000 0.000000 0.000000
vn -1.000000 0.000000 0.000000
vn -1.000000 0.000000 0.000000
vn 0.000000 0.000000 -1.000000
vn 0.000000 0.000000 -1.000000
vn 0.000000 0.000000 -1.000000
vn 0.000000 0.000000 -1.000000
vn 0.000000 0.000000 -1.000000
vn 0.000000 0.000000 -1.000000
vn 0.000000 0.000000 -1.000000
vn 0.000000 0.000000 -1.000000
vn 1.000000 0.000000 0.000000
vn 1.000000 0.000000 0.000000
vn 1.000000 0.000000 0.000000
vn 1.000000 0.000000 0.000000
vn 1.000000 0.000000 0.000000
vn 1.000000 0.000000 0.000000
vn 1.000000 0.000000 0.000000
vn 1.000000 0.000000 0.000000
vn 0.000000 0.000000 -1.000000
vn 0.000000 0.000000 -1.000000
vn 0.000000 0.000000 -1.000000
vn 0.000000 0.000000 -1.000000
vn 0.000000 0.000000 -1.000000
vn 0.000000 0.000000 -1.000000
vn 0.000000 0.000000 -1.000000
vn 0.000000 0.000000 -1.000000
vn -1.000000 0.000000 0.000000
vn -1.000000 0.000000 0.000000
vn -1.000000 0.000000 0.000000
vn -1.000000 0.000000 0.000000
vn 0.000000 0.000000 1.000000
vn 0.000000 0.000000 1.000000
vn 0.000000 0.000000 1.000000
vn 0.000000 0.000000 1.000000
vn 0.000000 0.000000 1.000000
vn 0.000000 0.000000 1.000000
vn 0.000000 0.000000 1.000000
vn 0.000000 0.000000 1.000000
vn 1.000000 0.000000 0.000000
vn 1.000000 0.000000 0.000000
vn 1.000000 0.000000 0.000000
vn 1.000000 0.000000 0.000000
vn 0.000000 1.000000 0.000000
vn 0.000000 1.000000 0.000000
vn 0.000000 1.000000 0.000000
vn 0.000000 1.000000 0.000000
vn 0.000000 1.000000 0.000000
vn 0.000000 1.000000 0.000000
vn 0.000000 1.000000 0.000000
vn 0.000000 1.000000 0.000000
vn -1.000000 0.000000 0.000000
vn -1.000000 0.000000 0.000000
vn -1.000000 0.000000 0.000000
vn -1.000000 0.000000 0.000000
vn 0.000000 -1.000000 0.000000
vn 0.000000 -1.000000 0.000000
vn 0.000000 -1.000000 0.000000
vn 0.000000 -1.000000 0.000000
vn 0.000000 -1.000000 0.000000
vn 0.000000 -1.000000 0.000000
vn 0.000000 -1.000000 0.000000
vn 0.000000 -1.000000 0.000000
vn 1.000000 0.000000 0.000000
vn 1.000000 0.000000 0.000000
vn 1.000000 0.000000 0.000000
vn 1.000000 0.000000 0.000000
vn 0.000000 -1.000000 0.000000
vn 0.000000 -1.000000 0.000000
vn 0.000000 -1.000000 0.000000
vn 0.000000 -1.000000 0.000000
vn 0.000000 -1.000000 0.000000
vn 0.000000 -1.000000 0.000000
vn 0.000000 -1.000000 0.000000
vn 0.000000 -1.000000 0.000000
vn -1.000000 0.000000 0.000000
vn -1.000000 0.000000 0.000000
vn -1.000000 0.000000 0.000000
vn -1.000000 0.000000 0.000000
vn 0.000000 1.000000 0.000000
vn 0.000000 1.000000 0.000000
vn 0.000000 1.000000 0.000000
vn 0.000000 1.000000 0.000000
vn 0.000000 1.000000 0.000000
vn 0.000000 1.000000 0.000000
vn 0.000000 1.000000 0.000000
vn 0.000000 1.000000 0.000000
vn 0.000000 0.000000 1.000000
vn 0.000000 0.000000 1.000000
vn 0.000000 0.000000 1.000000
vn 0.000000 0.000000 1.000000
s off
g Window:pCube1
usemtl Window:initialShadingGroup
f 36/126/1 33/127/2 37/128/3 38/129/4
f 24/142/5 21/143/6 17/144/7 18/145/8
f 48/134/9 45/135/10 41/136/11 42/137/12
f 47/1/13 48/2/14 42/3/15 43/4/16
f 23/5/17 24/6/18 18/7/19 19/8/20
f 35/9/21 36/10/22 38/11/23 39/12/24
f 31/13/25 32/14/26 26/15/27 27/16/28
f 45/17/29 46/18/30 44/19/31 41/20/32
f 29/21/33 30/22/34 28/23/35 25/24/36
f 33/25/37 34/26/38 40/27/39 37/28/40
f 21/29/41 22/30/42 20/31/43 17/32/44
f 5/131/45 6/130/46 18/145/47 17/144/48
f 19/8/49 18/7/50 6/33/51 11/34/52
f 71/35/53 72/36/54 54/37/55 55/38/56
f 5/39/57 17/32/58 20/31/59 16/40/60
f 22/30/61 21/29/62 7/41/63 13/42/64
f 52/43/65 53/44/66 61/45/67 62/46/68
f 8/47/69 24/6/70 23/5/71 9/48/72
f 21/143/73 24/142/74 8/141/75 7/140/76
f 1/139/77 2/138/78 26/146/79 25/147/80
f 27/16/81 26/15/82 2/49/83 10/50/84
f 65/51/85 66/52/86 60/53/87 49/54/88
f 1/55/89 25/24/90 28/23/91 14/56/92
f 30/22/93 29/21/94 3/57/95 15/58/96
f 58/59/97 59/60/98 67/61/99 68/62/100
f 4/63/101 32/14/102 31/13/103 12/64/104
f 29/148/105 32/149/106 4/150/107 3/151/108
f 34/26/109 33/25/110 5/39/111 16/40/112
f 55/38/113 56/65/114 70/66/115 71/35/116
f 6/33/117 36/10/118 35/9/119 11/34/120
f 33/127/121 36/126/122 6/130/123 5/131/124
f 3/132/125 4/133/126 38/129/127 37/128/128
f 39/12/129 38/11/130 4/63/131 12/64/132
f 68/62/133 69/67/134 57/68/135 58/59/136
f 3/57/137 37/28/138 40/27/139 15/58/140
f 7/140/141 8/141/142 42/137/143 41/136/144
f 43/4/145 42/3/146 8/47/147 9/48/148
f 62/69/149 63/70/150 51/71/151 52/72/152
f 7/41/153 41/20/154 44/19/155 13/42/156
f 46/18/157 45/17/158 1/55/159 14/56/160
f 49/54/161 50/73/162 64/74/163 65/51/164
f 2/49/165 48/2/166 47/1/167 10/50/168
f 45/135/169 48/134/170 2/138/171 1/139/172
f 73/75/173 74/76/174 50/73/175 49/54/176
f 52/72/177 51/71/178 75/77/179 76/78/180
f 76/79/181 77/80/182 53/44/183 52/43/184
f 55/38/185 54/37/186 78/81/187 79/82/188
f 79/82/189 80/83/190 56/65/191 55/38/192
f 58/59/193 57/68/194 81/84/195 82/85/196
f 82/85/197 83/86/198 59/60/199 58/59/200
f 49/54/201 60/53/202 84/87/203 73/75/204
f 62/46/205 61/45/206 22/88/207 13/89/208
f 44/90/209 63/70/210 62/69/211 13/91/212
f 46/92/213 64/74/214 63/70/215 44/90/216
f 65/51/217 64/74/218 46/92/219 14/93/220
f 28/94/221 66/52/222 65/51/223 14/93/224
f 30/95/225 67/61/226 66/52/227 28/94/228
f 68/62/229 67/61/230 30/95/231 15/96/232
f 40/97/233 69/67/234 68/62/235 15/96/236
f 34/98/237 70/66/238 69/67/239 40/97/240
f 71/35/241 70/66/242 34/98/243 16/99/244
f 20/100/245 72/36/246 71/35/247 16/99/248
f 22/88/249 61/45/250 72/36/251 20/100/252
f 10/101/253 47/102/254 74/76/255 73/75/256
f 74/76/257 47/102/258 43/103/259 75/77/260
f 76/78/261 75/77/262 43/103/263 9/104/264
f 9/105/265 23/106/266 77/80/267 76/79/268
f 77/80/269 23/106/270 19/107/271 78/81/272
f 79/82/273 78/81/274 19/107/275 11/108/276
f 11/108/277 35/109/278 80/83/279 79/82/280
f 80/83/281 35/109/282 39/110/283 81/84/284
f 82/85/285 81/84/286 39/110/287 12/111/288
f 12/111/289 31/112/290 83/86/291 82/85/292
f 83/86/293 31/112/294 27/113/295 84/87/296
f 73/75/297 84/87/298 27/113/299 10/101/300
f 85/156/301 91/114/302 92/158/303 90/115/304
f 88/163/305 94/116/306 95/153/307 87/117/308
f 86/184/309 85/187/310 81/188/311 57/189/312
f 87/185/313 86/184/314 57/189/315 69/190/316
f 88/163/317 87/117/318 69/118/319 70/162/320
f 89/166/321 88/169/322 70/191/323 56/192/324
f 90/167/325 89/166/326 56/192/327 80/193/328
f 85/156/329 90/115/330 80/119/331 81/161/332
f 74/120/333 75/160/334 92/158/335 91/114/336
f 75/194/337 51/195/338 93/172/339 92/175/340
f 51/195/341 63/196/342 94/173/343 93/172/344
f 63/121/345 64/155/346 95/153/347 94/116/348
f 64/197/349 50/198/350 96/178/351 95/181/352
f 50/198/353 74/199/354 91/179/355 96/178/356
f 77/122/357 78/159/358 90/115/359 92/158/360
f 78/164/361 54/165/362 89/166/363 90/167/364
f 54/165/365 72/168/366 88/169/367 89/166/368
f 72/123/369 61/154/370 94/116/371 88/163/372
f 61/170/373 53/171/374 93/172/375 94/173/376
f 53/171/377 77/174/378 92/175/379 93/172/380
f 83/124/381 84/157/382 91/114/383 85/156/384
f 84/176/385 60/177/386 96/178/387 91/179/388
f 60/177/389 66/180/390 95/181/391 96/178/392
f 66/125/393 67/152/394 87/117/395 95/153/396
f 67/182/397 59/183/398 86/184/399 87/185/400
f 59/183/401 83/186/402 85/187/403 86/184/404
f 29/148/405 25/147/406 26/146/407 32/149/408
