# This file uses centimeters as units for non-parametric coordinates.

mtllib MicrowaveNew.mtl
g default
v 0.627890 0.860690 0.554299
v 0.876408 0.860690 0.554299
v 0.627890 0.948635 0.554299
v 0.876408 0.948635 0.554299
v 0.627890 0.948635 0.459591
v 0.876408 0.948635 0.459591
v 0.627890 0.860690 0.459591
v 0.876408 0.860690 0.459591
v 0.627890 0.095902 0.554299
v 0.876408 0.095902 0.554299
v 0.627890 0.183846 0.554299
v 0.876408 0.183846 0.554299
v 0.627890 0.183846 0.459591
v 0.876408 0.183846 0.459591
v 0.627890 0.095902 0.459591
v 0.876408 0.095902 0.459591
v 0.699798 0.137815 0.550308
v 0.709000 0.137815 0.575224
v 0.733090 0.137815 0.590622
v 0.762867 0.137815 0.590622
v 0.786957 0.137815 0.575224
v 0.796159 0.137815 0.550308
v 0.699798 0.905742 0.550308
v 0.709000 0.905742 0.575224
v 0.733090 0.905742 0.590622
v 0.762867 0.905742 0.590622
v 0.786957 0.905742 0.575224
v 0.796159 0.905742 0.550308
v 0.747979 0.137815 0.550308
v 0.747979 0.905742 0.550308
v -1.000000 0.000000 0.500000
v 1.000000 0.000000 0.500000
v -1.000000 1.000000 0.500000
v 1.000000 1.000000 0.500000
v -1.000000 1.000000 -0.500000
v 1.000000 1.000000 -0.500000
v -1.000000 0.000000 -0.500000
v 1.000000 0.000000 -0.500000
v -0.926113 0.266845 0.500000
v 0.573887 0.266845 0.500000
v 0.573887 0.930457 0.500000
v -0.926113 0.930457 0.500000
v -0.926113 0.266845 0.447484
v 0.573887 0.266845 0.447484
v 0.573887 0.930457 0.447484
v -0.926113 0.930457 0.447484
vt 0.183027 0.101277
vt 0.183056 0.314853
vt 0.107476 0.314863
vt 0.107448 0.101287
vt 0.026085 0.314874
vt 0.026056 0.101298
vt 0.264419 0.101266
vt 0.264448 0.314842
vt 0.183067 0.396245
vt 0.107487 0.396255
vt 0.183017 0.019885
vt 0.107437 0.019895
vt 0.385670 0.310658
vt 0.386532 0.099001
vt 0.461432 0.099306
vt 0.460570 0.310963
vt 0.542093 0.099634
vt 0.541231 0.311291
vt 0.305009 0.310330
vt 0.305871 0.098673
vt 0.386860 0.018340
vt 0.461760 0.018645
vt 0.385342 0.391319
vt 0.460242 0.391623
vt 0.058006 0.453086
vt 0.074231 0.457545
vt 0.073282 0.947644
vt 0.056044 0.947454
vt 0.092131 0.458882
vt 0.091101 0.943166
vt 0.110917 0.457389
vt 0.109886 0.941672
vt 0.128735 0.452911
vt 0.127786 0.943008
vt 0.145974 0.453101
vt 0.144012 0.947468
vt 0.095674 0.433456
vt 0.132977 0.436027
vt 0.069041 0.964528
vt 0.106344 0.967098
vt 0.560739 0.016313
vt 0.982148 0.016313
vt 0.982148 0.202747
vt 0.560739 0.202747
vt 0.600800 0.802083
vt 0.599795 0.425375
vt 0.787815 0.425510
vt 0.788460 0.801777
vt 0.975731 0.425508
vt 0.976227 0.801580
vt 0.214267 0.801565
vt 0.215428 0.424495
vt 0.403878 0.423510
vt 0.401498 0.801276
vt 0.599755 0.237612
vt 0.787656 0.237590
vt 0.788598 0.989692
vt 0.600811 0.989850
vt 0.453323 0.505484
vt 0.452199 0.787690
vt 0.587077 0.506122
vt 0.587809 0.788363
vt 0.460606 0.511145
vt 0.459237 0.781621
vt 0.580341 0.512342
vt 0.580391 0.782763
vn 0.000000 0.000000 1.000000
vn 0.000000 0.000000 1.000000
vn 0.000000 0.000000 1.000000
vn 0.000000 0.000000 1.000000
vn 0.000000 1.000000 0.000000
vn 0.000000 1.000000 0.000000
vn 0.000000 1.000000 0.000000
vn 0.000000 1.000000 0.000000
vn 0.000000 -1.000000 0.000000
vn 0.000000 -1.000000 0.000000
vn 0.000000 -1.000000 0.000000
vn 0.000000 -1.000000 0.000000
vn 1.000000 0.000000 0.000000
vn 1.000000 0.000000 0.000000
vn 1.000000 0.000000 0.000000
vn 1.000000 0.000000 0.000000
vn -1.000000 0.000000 0.000000
vn -1.000000 0.000000 0.000000
vn -1.000000 0.000000 0.000000
vn -1.000000 0.000000 0.000000
vn 0.000000 0.000000 1.000000
vn 0.000000 0.000000 1.000000
vn 0.000000 0.000000 1.000000
vn 0.000000 0.000000 1.000000
vn 0.000000 1.000000 0.000000
vn 0.000000 1.000000 0.000000
vn 0.000000 1.000000 0.000000
vn 0.000000 1.000000 0.000000
vn 0.000000 -1.000000 0.000000
vn 0.000000 -1.000000 0.000000
vn 0.000000 -1.000000 0.000000
vn 0.000000 -1.000000 0.000000
vn 1.000000 0.000000 0.000000
vn 1.000000 0.000000 0.000000
vn 1.000000 0.000000 0.000000
vn 1.000000 0.000000 0.000000
vn -1.000000 0.000000 0.000000
vn -1.000000 0.000000 0.000000
vn -1.000000 0.000000 0.000000
vn -1.000000 0.000000 0.000000
vn -0.938073 0.000000 0.346439
vn -0.771070 0.000000 0.636751
vn -0.771070 0.000000 0.636751
vn -0.938073 0.000000 0.346439
vn -0.771070 0.000000 0.636751
vn -0.274856 0.000000 0.961486
vn -0.274856 0.000000 0.961486
vn -0.771070 0.000000 0.636751
vn -0.274856 0.000000 0.961486
vn 0.274856 0.000000 0.961486
vn 0.274856 0.000000 0.961486
vn -0.274856 0.000000 0.961486
vn 0.274856 0.000000 0.961486
vn 0.771070 0.000000 0.636751
vn 0.771070 0.000000 0.636751
vn 0.274856 0.000000 0.961486
vn 0.771070 0.000000 0.636751
vn 0.938073 0.000000 0.346439
vn 0.938073 0.000000 0.346439
vn 0.771070 0.000000 0.636751
vn 0.000000 -1.000000 0.000000
vn 0.000000 -1.000000 0.000000
vn 0.000000 -1.000000 0.000000
vn 0.000000 -1.000000 0.000000
vn 0.000000 -1.000000 0.000000
vn 0.000000 -1.000000 0.000000
vn 0.000000 -1.000000 0.000000
vn 0.000000 -1.000000 0.000000
vn 0.000000 -1.000000 0.000000
vn 0.000000 -1.000000 0.000000
vn 0.000000 -1.000000 0.000000
vn 0.000000 -1.000000 0.000000
vn 0.000000 -1.000000 0.000000
vn 0.000000 -1.000000 0.000000
vn 0.000000 -1.000000 0.000000
vn 0.000000 1.000000 0.000000
vn 0.000000 1.000000 0.000000
vn 0.000000 1.000000 -0.000001
vn 0.000000 1.000000 0.000000
vn 0.000000 1.000000 0.000000
vn 0.000000 1.000000 -0.000001
vn 0.000000 1.000000 0.000000
vn 0.000000 1.000000 -0.000002
vn 0.000000 1.000000 -0.000001
vn 0.000000 1.000000 -0.000002
vn 0.000000 1.000000 -0.000001
vn 0.000000 1.000000 -0.000001
vn 0.000000 1.000000 -0.000001
vn 0.000000 1.000000 0.000000
vn 0.000000 1.000000 -0.000001
vn 0.000000 0.000000 1.000000
vn 0.000000 0.000000 1.000000
vn 0.000000 0.000000 1.000000
vn 0.000000 0.000000 1.000000
vn 0.000000 1.000000 0.000000
vn 0.000000 1.000000 0.000000
vn 0.000000 1.000000 0.000000
vn 0.000000 1.000000 0.000000
vn 0.000000 0.000000 -1.000000
vn 0.000000 0.000000 -1.000000
vn 0.000000 0.000000 -1.000000
vn 0.000000 0.000000 -1.000000
vn 0.000000 -1.000000 0.000000
vn 0.000000 -1.000000 0.000000
vn 0.000000 -1.000000 0.000000
vn 0.000000 -1.000000 0.000000
vn 1.000000 0.000000 0.000000
vn 1.000000 0.000000 0.000000
vn 1.000000 0.000000 0.000000
vn 1.000000 0.000000 0.000000
vn -1.000000 0.000000 0.000000
vn -1.000000 0.000000 0.000000
vn -1.000000 0.000000 0.000000
vn -1.000000 0.000000 0.000000
vn 0.000000 0.000000 1.000000
vn 0.000000 0.000000 1.000000
vn 0.000000 0.000000 1.000000
vn 0.000000 0.000000 1.000000
vn 0.000000 0.000000 1.000000
vn 0.000000 0.000000 1.000000
vn 0.000000 0.000000 1.000000
vn 0.000000 0.000000 1.000000
vn 0.000000 0.000000 1.000000
vn 0.000000 0.000000 1.000000
vn 0.000000 0.000000 1.000000
vn 0.000000 0.000000 1.000000
vn 0.000000 0.000000 1.000000
vn 0.000000 0.000000 1.000000
vn 0.000000 0.000000 1.000000
vn 0.000000 0.000000 1.000000
vn 0.000000 1.000000 0.000000
vn 0.000000 1.000000 0.000000
vn 0.000000 1.000000 0.000000
vn 0.000000 1.000000 0.000000
vn -1.000000 0.000000 0.000000
vn -1.000000 0.000000 0.000000
vn -1.000000 0.000000 0.000000
vn -1.000000 0.000000 0.000000
vn 0.000000 -1.000000 0.000000
vn 0.000000 -1.000000 0.000000
vn 0.000000 -1.000000 0.000000
vn 0.000000 -1.000000 0.000000
vn 1.000000 0.000000 0.000000
vn 1.000000 0.000000 0.000000
vn 1.000000 0.000000 0.000000
vn 1.000000 0.000000 0.000000
s off
g MicrowaveNew:pCube4
usemtl MicrowaveNew:initialShadingGroup
f 1/1/1 2/2/2 4/3/3 3/4/4
f 3/4/5 4/3/6 6/5/7 5/6/8
f 7/7/9 8/8/10 2/2/11 1/1/12
f 2/2/13 8/9/14 6/10/15 4/3/16
f 7/11/17 1/1/18 3/4/19 5/12/20
f 9/13/21 10/14/22 12/15/23 11/16/24
f 11/16/25 12/15/26 14/17/27 13/18/28
f 15/19/29 16/20/30 10/14/31 9/13/32
f 10/14/33 16/21/34 14/22/35 12/15/36
f 15/23/37 9/13/38 11/16/39 13/24/40
f 17/25/41 18/26/42 24/27/43 23/28/44
f 18/26/45 19/29/46 25/30/47 24/27/48
f 19/29/49 20/31/50 26/32/51 25/30/52
f 20/31/53 21/33/54 27/34/55 26/32/56
f 21/33/57 22/35/58 28/36/59 27/34/60
f 18/26/61 17/25/62 29/37/63
f 19/29/64 18/26/65 29/37/66
f 20/31/67 19/29/68 29/37/69
f 21/33/70 20/31/71 29/37/72
f 22/38/73 21/33/74 29/37/75
f 23/39/76 24/27/77 30/40/78
f 24/27/79 25/30/80 30/40/81
f 25/30/82 26/32/83 30/40/84
f 26/32/85 27/34/86 30/40/87
f 27/34/88 28/36/89 30/40/90
f 43/41/91 44/42/92 45/43/93 46/44/94
f 33/45/95 34/46/96 36/47/97 35/48/98
f 35/48/99 36/47/100 38/49/101 37/50/102
f 37/51/103 38/52/104 32/53/105 31/54/106
f 32/55/107 38/56/108 36/47/109 34/46/110
f 37/57/111 31/58/112 33/45/113 35/48/114
f 31/54/115 32/53/116 40/59/117 39/60/118
f 32/53/119 34/46/120 41/61/121 40/59/122
f 34/46/123 33/45/124 42/62/125 41/61/126
f 33/45/127 31/54/128 39/60/129 42/62/130
f 39/60/131 40/59/132 44/63/133 43/64/134
f 40/59/135 41/61/136 45/65/137 44/63/138
f 41/61/139 42/62/140 46/66/141 45/65/142
f 42/62/143 39/60/144 43/64/145 46/66/146
