# This file uses centimeters as units for non-parametric coordinates.

mtllib MicrowaveOld.mtl
g default
v 0.783221 0.244783 0.480826
v 0.725320 0.286851 0.480826
v 0.653750 0.286851 0.480826
v 0.595849 0.244783 0.480826
v 0.573733 0.176716 0.480826
v 0.595849 0.108649 0.480826
v 0.653750 0.066581 0.480826
v 0.725320 0.066581 0.480826
v 0.783221 0.108649 0.480826
v 0.805338 0.176716 0.480826
v 0.783221 0.244783 0.550476
v 0.725320 0.286851 0.550476
v 0.653750 0.286851 0.550476
v 0.595849 0.244783 0.550476
v 0.573733 0.176716 0.550476
v 0.595849 0.108649 0.550476
v 0.653750 0.066581 0.550476
v 0.725320 0.066581 0.550476
v 0.783221 0.108649 0.550476
v 0.805338 0.176716 0.550476
v 0.689535 0.176716 0.550476
v -0.928582 0.980864 0.500000
v -0.980864 0.928582 0.500000
v -1.000000 0.857164 0.500000
v -0.857164 1.000000 0.500000
v -1.000000 0.857164 -0.500000
v -0.980864 0.928582 -0.500000
v -0.928582 0.980864 -0.500000
v -0.857164 1.000000 -0.500000
v 0.980864 0.928582 0.500000
v 0.928582 0.980864 0.500000
v 0.857164 1.000000 0.500000
v 1.000000 0.857164 0.500000
v 1.000000 0.857164 -0.500000
v 0.857164 1.000000 -0.500000
v 0.928582 0.980864 -0.500000
v 0.980864 0.928582 -0.500000
v -0.980864 0.071418 0.500000
v -0.928582 0.019136 0.500000
v -0.857164 0.000000 0.500000
v -1.000000 0.142836 0.500000
v -0.928582 0.019136 -0.500000
v -0.980864 0.071418 -0.500000
v -1.000000 0.142836 -0.500000
v -0.857164 0.000000 -0.500000
v 0.928582 0.019136 0.500000
v 0.980864 0.071418 0.500000
v 1.000000 0.142836 0.500000
v 0.857164 0.000000 0.500000
v 0.980864 0.071418 -0.500000
v 0.928582 0.019136 -0.500000
v 0.857164 0.000000 -0.500000
v 1.000000 0.142836 -0.500000
v 0.188709 0.164277 0.500000
v 0.159691 0.123323 0.500000
v 0.199330 0.220221 0.500000
v 0.199330 0.779779 0.500000
v 0.188709 0.835723 0.500000
v 0.159691 0.876676 0.500000
v 0.120051 0.891667 0.500000
v -0.831465 0.891667 0.500000
v -0.871104 0.876676 0.500000
v -0.900123 0.835723 0.500000
v -0.910744 0.779779 0.500000
v -0.910744 0.220221 0.500000
v -0.900123 0.164277 0.500000
v -0.871104 0.123323 0.500000
v -0.831465 0.108333 0.500000
v 0.120051 0.108333 0.500000
v 0.188709 0.164277 0.452358
v 0.159691 0.123323 0.452358
v 0.199330 0.220221 0.452358
v 0.199330 0.779779 0.452358
v 0.188709 0.835723 0.452358
v 0.159691 0.876676 0.452358
v 0.120051 0.891667 0.452358
v -0.831465 0.891667 0.452358
v -0.871104 0.876676 0.452358
v -0.900123 0.835723 0.452358
v -0.910744 0.779779 0.452358
v -0.910744 0.220221 0.452358
v -0.900123 0.164277 0.452358
v -0.871104 0.123323 0.452358
v -0.831465 0.108333 0.452358
v 0.120051 0.108333 0.452358
v 0.783221 0.874625 0.480826
v 0.725320 0.916693 0.480826
v 0.653750 0.916693 0.480826
v 0.595849 0.874625 0.480826
v 0.573733 0.806558 0.480826
v 0.595849 0.738491 0.480826
v 0.653750 0.696424 0.480826
v 0.725320 0.696424 0.480826
v 0.783221 0.738491 0.480826
v 0.805338 0.806558 0.480826
v 0.783221 0.874625 0.550476
v 0.725320 0.916693 0.550476
v 0.653750 0.916693 0.550476
v 0.595849 0.874625 0.550476
v 0.573733 0.806558 0.550476
v 0.595849 0.738491 0.550476
v 0.653750 0.696424 0.550476
v 0.725320 0.696424 0.550476
v 0.783221 0.738491 0.550476
v 0.805338 0.806558 0.550476
v 0.689535 0.806558 0.550476
v 0.239538 0.076843 0.583825
v 0.358548 0.076843 0.583825
v 0.239538 0.920733 0.583825
v 0.358548 0.920733 0.583825
v 0.239538 0.920733 0.490366
v 0.358548 0.920733 0.490366
v 0.239538 0.076843 0.490366
v 0.358548 0.076843 0.490366
v 0.239538 0.920733 0.537096
v 0.358548 0.920733 0.537096
v 0.358548 0.076843 0.537096
v 0.239538 0.076843 0.537096
v 0.239538 0.498788 0.583825
v 0.358548 0.498788 0.583825
v 0.358548 0.498788 0.537096
v 0.239538 0.498788 0.537096
v 0.239538 0.878539 0.490366
v 0.358548 0.878539 0.490366
v 0.358548 0.878539 0.537096
v 0.358548 0.878539 0.583825
v 0.239538 0.878539 0.583825
v 0.239538 0.878539 0.537096
v 0.239538 0.119037 0.583825
v 0.358548 0.119037 0.583825
v 0.358548 0.119037 0.537096
v 0.358548 0.119037 0.490366
v 0.239538 0.119037 0.490366
v 0.239538 0.119037 0.537096
vt 0.104045 0.782826
vt 0.052309 0.773569
vt 0.015918 0.735666
vt 0.008763 0.683626
vt 0.033554 0.637332
vt 0.080806 0.614448
vt 0.132483 0.623697
vt 0.168864 0.661545
vt 0.176063 0.713555
vt 0.151317 0.759880
vt 0.098806 0.752074
vt 0.066171 0.745624
vt 0.043563 0.721218
vt 0.039625 0.688193
vt 0.055843 0.659165
vt 0.086019 0.645212
vt 0.118633 0.651657
vt 0.141234 0.676039
vt 0.145192 0.709053
vt 0.128989 0.738097
vt 0.092402 0.698648
vt 0.189931 0.233232
vt 0.352172 0.233537
vt 0.353914 0.515666
vt 0.189882 0.514064
vt 0.528049 0.233737
vt 0.190687 0.044066
vt 0.026435 0.512886
vt 0.518045 0.516040
vt 0.494674 0.539320
vt 0.189364 0.667060
vt 0.166432 0.537221
vt 0.377323 0.539178
vt 0.050440 0.209264
vt 0.501638 0.206387
vt 0.379123 0.206057
vt 0.189971 0.196920
vt 0.366197 0.210972
vt 0.189950 0.209019
vt 0.356663 0.220682
vt 0.189937 0.221123
vt 0.357156 0.527554
vt 0.189879 0.526175
vt 0.365685 0.536093
vt 0.189867 0.538280
vt 0.523541 0.221166
vt 0.190618 0.056129
vt 0.514212 0.211543
vt 0.190550 0.068193
vt 0.506158 0.536314
vt 0.189306 0.679132
vt 0.514649 0.527852
vt 0.189247 0.691202
vt 0.791544 0.689830
vt 0.490714 0.398243
vt 0.482150 0.400079
vt 0.392546 0.399681
vt 0.384465 0.397674
vt 0.378720 0.393115
vt 0.376570 0.387417
vt 0.377150 0.239173
vt 0.379685 0.233566
vt 0.385886 0.229527
vt 0.394656 0.227455
vt 0.485547 0.227694
vt 0.493952 0.229884
vt 0.500124 0.234570
vt 0.502631 0.240324
vt 0.498636 0.388855
vt 0.494346 0.403947
vt 0.502183 0.397748
vt 0.483961 0.407069
vt 0.390496 0.406372
vt 0.380366 0.403036
vt 0.372794 0.396717
vt 0.369815 0.389330
vt 0.369786 0.237611
vt 0.374129 0.229663
vt 0.382473 0.223232
vt 0.393303 0.220106
vt 0.487129 0.220441
vt 0.497708 0.223812
vt 0.505781 0.230408
vt 0.510014 0.238414
vt 0.505411 0.390475
vt 0.150512 0.820245
vt 0.177598 0.866737
vt 0.146609 0.874454
vt 0.130000 0.844722
vt 0.172166 0.920255
vt 0.142564 0.908272
vt 0.136319 0.960344
vt 0.119417 0.933244
vt 0.083771 0.971705
vt 0.086020 0.939842
vt 0.034588 0.950023
vt 0.055127 0.925557
vt 0.007535 0.903583
vt 0.038527 0.895845
vt 0.012932 0.850108
vt 0.042559 0.862048
vt 0.048726 0.810004
vt 0.065685 0.837069
vt 0.101269 0.798588
vt 0.099084 0.830448
vt 0.092574 0.885144
vt 0.787331 0.348542
vt 0.861280 0.349047
vt 0.859668 0.585014
vt 0.785719 0.584509
vt 0.785341 0.639764
vt 0.859291 0.640269
vt 0.859092 0.669306
vt 0.785143 0.668801
vt 0.789518 0.028283
vt 0.863468 0.028789
vt 0.863270 0.057825
vt 0.789320 0.057320
vt 0.785540 0.610728
vt 0.859489 0.611233
vt 0.643116 0.345299
vt 0.645119 0.059516
vt 0.863071 0.086862
vt 0.789122 0.086356
vt 0.555557 0.058888
vt 0.553555 0.344672
vt 0.788942 0.112575
vt 0.862892 0.113080
vt 0.641114 0.631083
vt 0.551552 0.630455
vt 0.888526 0.611431
vt 0.645365 0.024349
vt 0.917562 0.611630
vt 0.756503 0.610529
vt 0.727646 0.584113
vt 0.727467 0.610331
vt 0.892108 0.087060
vt 0.920965 0.113477
vt 0.921144 0.087258
vt 0.731049 0.085960
vt 0.760085 0.086158
vt 0.551306 0.665622
vt 0.730870 0.112178
vt 0.759906 0.112377
vt 0.891929 0.113279
vt 0.640868 0.666249
vt 0.758294 0.348344
vt 0.756682 0.584311
vt 0.555804 0.023722
vt 0.917741 0.585411
vt 0.888705 0.585213
vt 0.890317 0.349246
vt 0.189186 0.703272
vt 0.029517 0.524577
vt 0.352478 0.692223
vt 0.352397 0.704277
vt 0.038025 0.533177
vt 0.352560 0.680169
vt 0.049686 0.536387
vt 0.352643 0.668116
vt 0.190484 0.080259
vt 0.038785 0.212328
vt 0.353490 0.069006
vt 0.353414 0.081064
vt 0.030242 0.220834
vt 0.353564 0.056946
vt 0.187578 0.982972
vt 0.027102 0.232503
vt 0.350729 0.983934
vt 0.353636 0.044884
vt 0.189848 0.550379
vt 0.178127 0.534187
vt 0.353647 0.539699
vt 0.353524 0.551723
vt 0.186711 0.525710
vt 0.353776 0.527679
vt 0.186890 0.221572
vt 0.352309 0.221523
vt 0.178424 0.213003
vt 0.352437 0.209502
vt 0.166804 0.209822
vt 0.352558 0.197476
vt 0.496530 0.394249
vt 0.776168 0.684189
vt 0.408443 0.687839
vt 0.393181 0.693784
vt 0.382124 0.709723
vt 0.378234 0.731384
vt 0.380380 0.947632
vt 0.384700 0.969211
vt 0.396071 0.984927
vt 0.411448 0.990568
vt 0.779173 0.986917
vt 0.794435 0.980972
vt 0.805492 0.965034
vt 0.809382 0.943373
vt 0.807235 0.727125
vt 0.802916 0.705546
vn 0.809017 0.587785 0.000000
vn 0.309017 0.951057 0.000000
vn 0.309017 0.951057 0.000000
vn 0.809017 0.587785 0.000000
vn -0.309017 0.951056 0.000000
vn -0.309017 0.951056 0.000000
vn -0.809017 0.587785 0.000000
vn -0.809017 0.587785 0.000000
vn -1.000000 0.000000 0.000000
vn -1.000000 0.000000 0.000000
vn -0.809017 -0.587785 0.000000
vn -0.809017 -0.587785 0.000000
vn -0.309017 -0.951057 0.000000
vn -0.309017 -0.951057 0.000000
vn 0.309017 -0.951057 0.000000
vn 0.309017 -0.951057 0.000000
vn 0.809017 -0.587786 0.000000
vn 0.809017 -0.587786 0.000000
vn 1.000000 0.000000 0.000000
vn 1.000000 0.000000 0.000000
vn 0.000000 0.000000 1.000000
vn -0.000000 0.000000 1.000000
vn -0.000000 0.000000 1.000000
vn -0.000000 0.000000 1.000000
vn 0.000000 0.000000 1.000000
vn 0.000000 0.000000 1.000000
vn 0.000000 0.000000 1.000000
vn 0.000000 0.000000 1.000000
vn 0.000000 0.000000 1.000000
vn 0.000000 0.000000 1.000000
vn 0.000000 0.000000 1.000000
vn -0.010716 0.999943 0.000000
vn -0.010716 0.999943 0.000000
vn 0.010716 0.999943 0.000000
vn 0.010716 0.999943 0.000000
vn -0.010716 -0.999943 0.000000
vn -0.010716 -0.999943 0.000000
vn 0.010716 -0.999943 0.000000
vn 0.010716 -0.999943 0.000000
vn 0.999704 -0.024347 0.000000
vn 0.999704 -0.024347 0.000000
vn 0.999704 0.024347 0.000000
vn 0.999704 0.024347 0.000000
vn -0.999704 -0.024347 0.000000
vn -0.999704 -0.024347 0.000000
vn -0.999704 0.024347 0.000000
vn -0.999704 0.024347 0.000000
vn -0.866025 0.500000 0.000000
vn -0.866025 0.500000 0.000000
vn -0.500000 0.866025 0.000000
vn -0.500000 0.866025 0.000000
vn 0.500000 0.866025 0.000000
vn 0.500000 0.866025 0.000000
vn 0.866025 0.500000 0.000000
vn 0.866025 0.500000 0.000000
vn -0.500000 -0.866025 0.000000
vn -0.500000 -0.866025 0.000000
vn -0.866025 -0.500000 0.000000
vn -0.866025 -0.500000 0.000000
vn 0.866025 -0.500000 0.000000
vn 0.866025 -0.500000 0.000000
vn 0.500000 -0.866025 0.000000
vn 0.500000 -0.866025 0.000000
vn -0.000000 0.000000 1.000000
vn -0.000000 0.000000 1.000000
vn -0.000000 0.000000 1.000000
vn -0.000000 0.000000 1.000000
vn -0.000000 0.000000 1.000000
vn -0.000000 0.000000 1.000000
vn -0.000000 0.000000 1.000000
vn -0.000000 0.000000 1.000000
vn -0.000000 0.000000 1.000000
vn -0.000000 0.000000 1.000000
vn -0.000000 0.000000 1.000000
vn -0.000000 0.000000 1.000000
vn -0.000000 0.000000 1.000000
vn -0.000000 0.000000 1.000000
vn -0.000000 0.000000 1.000000
vn -0.000000 0.000000 1.000000
vn 0.000000 0.000000 -1.000000
vn 0.000000 0.000000 -1.000000
vn 0.000000 0.000000 -1.000000
vn 0.000000 0.000000 -1.000000
vn 0.000000 0.000000 -1.000000
vn 0.000000 0.000000 -1.000000
vn 0.000000 0.000000 -1.000000
vn 0.000000 0.000000 -1.000000
vn 0.000000 0.000000 -1.000000
vn 0.000000 0.000000 -1.000000
vn 0.000000 0.000000 -1.000000
vn 0.000000 0.000000 -1.000000
vn 0.000000 0.000000 -1.000000
vn 0.000000 0.000000 -1.000000
vn 0.000000 0.000000 -1.000000
vn 0.000000 0.000000 -1.000000
vn 0.000000 0.000000 1.000000
vn -0.000000 0.000000 1.000000
vn -0.000000 0.000000 1.000000
vn 0.000000 0.000000 1.000000
vn -0.000000 0.000000 1.000000
vn -0.000000 0.000000 1.000000
vn 0.000000 0.000000 1.000000
vn 0.000000 0.000000 1.000000
vn 0.000000 0.000000 1.000000
vn 0.000000 0.000000 1.000000
vn 0.000000 0.000000 1.000000
vn 0.000000 0.000000 1.000000
vn 0.000000 0.000000 1.000000
vn 0.000000 0.000000 1.000000
vn 0.000000 0.000000 1.000000
vn 0.000000 0.000000 1.000000
vn 0.000000 0.000000 1.000000
vn 0.000000 0.000000 1.000000
vn 0.000000 0.000000 1.000000
vn 0.000000 0.000000 1.000000
vn 0.000000 0.000000 1.000000
vn 0.000000 0.000000 1.000000
vn 0.000000 0.000000 1.000000
vn 0.000000 0.000000 1.000000
vn -0.000000 0.000000 1.000000
vn -0.000000 0.000000 1.000000
vn 0.000000 0.000000 1.000000
vn -0.000000 0.000000 1.000000
vn 0.000000 0.000000 1.000000
vn 0.000000 0.000000 1.000000
vn 0.000000 0.000000 1.000000
vn 0.000000 0.000000 1.000000
vn -0.815938 0.578139 0.000000
vn -0.925549 0.378629 0.000000
vn -0.925549 0.378629 0.000000
vn -0.815938 0.578139 0.000000
vn -0.999851 0.017254 0.000000
vn -0.999851 0.017254 0.000000
vn -0.999851 -0.017254 0.000000
vn -0.999851 -0.017254 0.000000
vn -0.925549 -0.378629 0.000000
vn -0.925549 -0.378629 0.000000
vn -0.815938 -0.578139 0.000000
vn -0.815938 -0.578139 0.000000
vn -0.353715 -0.935353 0.000000
vn -0.015122 -0.999886 0.000000
vn -0.015122 -0.999886 0.000000
vn -0.353715 -0.935353 0.000000
vn 0.015122 -0.999886 0.000000
vn 0.015122 -0.999886 0.000000
vn 0.353715 -0.935353 0.000000
vn 0.353715 -0.935353 0.000000
vn 0.815938 -0.578139 0.000000
vn 0.925548 -0.378629 0.000000
vn 0.925548 -0.378629 0.000000
vn 0.815938 -0.578139 0.000000
vn 0.999851 -0.017254 0.000000
vn 0.999851 -0.017254 0.000000
vn 0.999851 0.017254 0.000000
vn 0.999851 0.017254 0.000000
vn 0.925548 0.378629 0.000000
vn 0.925548 0.378629 0.000000
vn 0.815938 0.578139 0.000000
vn 0.815938 0.578139 0.000000
vn 0.353715 0.935353 0.000000
vn 0.015122 0.999886 0.000000
vn 0.015122 0.999886 0.000000
vn 0.353715 0.935353 0.000000
vn -0.015122 0.999886 0.000000
vn -0.015122 0.999886 0.000000
vn -0.353715 0.935353 0.000000
vn -0.353715 0.935353 0.000000
vn 0.809017 0.587786 0.000000
vn 0.309017 0.951057 0.000000
vn 0.309017 0.951057 0.000000
vn 0.809017 0.587786 0.000000
vn -0.309017 0.951057 0.000000
vn -0.309017 0.951057 0.000000
vn -0.809017 0.587785 0.000000
vn -0.809017 0.587785 0.000000
vn -1.000000 0.000000 0.000000
vn -1.000000 0.000000 0.000000
vn -0.809017 -0.587786 0.000000
vn -0.809017 -0.587786 0.000000
vn -0.309017 -0.951057 0.000000
vn -0.309017 -0.951057 0.000000
vn 0.309017 -0.951057 0.000000
vn 0.309017 -0.951057 0.000000
vn 0.809017 -0.587786 0.000000
vn 0.809017 -0.587786 0.000000
vn 1.000000 0.000000 0.000000
vn 1.000000 0.000000 0.000000
vn 0.000000 0.000000 1.000000
vn 0.000000 0.000000 1.000000
vn 0.000000 0.000000 1.000000
vn 0.000000 0.000000 1.000000
vn 0.000000 0.000000 1.000000
vn 0.000000 0.000000 1.000000
vn 0.000000 0.000000 1.000000
vn 0.000000 0.000000 1.000000
vn 0.000000 0.000000 1.000000
vn 0.000000 0.000000 1.000000
vn 0.000000 0.000000 1.000000
vn 0.000000 0.000000 1.000000
vn 0.000000 0.000000 1.000000
vn 0.000000 0.000000 1.000000
vn 0.000000 0.000000 1.000000
vn 0.000000 1.000000 0.000000
vn 0.000000 1.000000 0.000000
vn 0.000000 1.000000 0.000000
vn 0.000000 1.000000 0.000000
vn 0.000000 -1.000000 0.000000
vn 0.000000 -1.000000 0.000000
vn 0.000000 -1.000000 0.000000
vn 0.000000 -1.000000 0.000000
vn 0.000000 1.000000 0.000000
vn 0.000000 1.000000 0.000000
vn 1.000000 0.000000 0.000000
vn 1.000000 0.000000 0.000000
vn 1.000000 0.000000 0.000000
vn 1.000000 0.000000 0.000000
vn 0.000000 -1.000000 0.000000
vn 0.000000 -1.000000 0.000000
vn -1.000000 0.000000 0.000000
vn -1.000000 0.000000 0.000000
vn -1.000000 0.000000 0.000000
vn -1.000000 0.000000 0.000000
vn 0.000000 0.000000 1.000000
vn 0.000000 0.000000 1.000000
vn 1.000000 0.000000 0.000000
vn 1.000000 0.000000 0.000000
vn -1.000000 0.000000 0.000000
vn -1.000000 0.000000 0.000000
vn 1.000000 0.000000 0.000000
vn 1.000000 0.000000 0.000000
vn 1.000000 0.000000 0.000000
vn 1.000000 0.000000 0.000000
vn 0.000000 0.000000 1.000000
vn 0.000000 0.000000 1.000000
vn -1.000000 0.000000 0.000000
vn -1.000000 0.000000 0.000000
vn -1.000000 0.000000 0.000000
vn -1.000000 0.000000 0.000000
vn 0.000000 0.000000 1.000000
vn 0.000000 0.000000 1.000000
vn 1.000000 0.000000 0.000000
vn 1.000000 0.000000 0.000000
vn 1.000000 0.000000 0.000000
vn 1.000000 0.000000 0.000000
vn -1.000000 0.000000 0.000000
vn -1.000000 0.000000 0.000000
vn -1.000000 0.000000 0.000000
vn -1.000000 0.000000 0.000000
vn 0.000000 1.000000 0.000000
vn 0.000000 1.000000 0.000000
vn 0.000000 1.000000 0.000000
vn 0.000000 1.000000 0.000000
vn 0.000000 -1.000000 0.000000
vn 0.000000 -1.000000 0.000000
vn 0.000000 -1.000000 0.000000
vn 0.000000 -1.000000 0.000000
vn 0.000000 0.000000 -1.000000
vn 0.000000 0.000000 -1.000000
vn 0.000000 0.000000 -1.000000
vn 0.000000 0.000000 -1.000000
vn 0.000000 0.000000 -1.000000
vn 0.000000 0.000000 -1.000000
vn 0.000000 0.000000 -1.000000
vn 0.000000 0.000000 -1.000000
s 1
g pCylinder3
usemtl initialShadingGroup
f 1/1/1 2/2/2 12/12/3 11/11/4
f 2/2/2 3/3/5 13/13/6 12/12/3
f 3/3/5 4/4/7 14/14/8 13/13/6
f 4/4/7 5/5/9 15/15/10 14/14/8
f 5/5/9 6/6/11 16/16/12 15/15/10
f 6/6/11 7/7/13 17/17/14 16/16/12
f 7/7/13 8/8/15 18/18/16 17/17/14
f 8/8/15 9/9/17 19/19/18 18/18/16
f 9/9/17 10/10/19 20/20/20 19/19/18
f 10/10/19 1/1/1 11/11/4 20/20/20
s 2
f 11/11/21 12/12/22 21/21/23
f 12/12/22 13/13/24 21/21/23
f 13/13/24 14/14/25 21/21/23
f 14/14/25 15/15/26 21/21/23
f 15/15/26 16/16/27 21/21/23
f 16/16/27 17/17/28 21/21/23
f 17/17/28 18/18/29 21/21/23
f 18/18/29 19/19/30 21/21/23
f 19/19/30 20/20/31 21/21/23
f 20/20/31 11/11/21 21/21/23
s 3
f 29/22/32 25/23/33 32/24/34 35/25/35
f 40/169/36 45/167/37 52/153/38 49/156/39
f 48/160/40 53/31/41 34/171/42 33/174/43
f 44/161/44 41/164/45 24/182/46 26/37/47
f 24/182/46 23/180/48 27/39/49 26/37/47
f 23/180/48 22/178/50 28/41/51 27/39/49
f 22/178/50 25/23/33 29/22/32 28/41/51
f 32/24/34 31/176/52 36/43/53 35/25/35
f 31/176/52 30/173/54 37/45/55 36/43/53
f 30/173/54 33/174/43 34/171/42 37/45/55
f 40/170/36 39/166/56 42/47/57 45/27/37
f 39/166/56 38/163/58 43/49/59 42/47/57
f 38/163/58 41/164/45 44/161/44 43/49/59
f 48/160/40 47/158/60 50/51/61 53/31/41
f 47/158/60 46/155/62 51/53/63 50/51/61
f 46/155/62 49/156/39 52/153/38 51/53/63
s off
f 71/54/64 70/198/65 72/197/66 73/196/67 74/195/68 75/194/69 76/193/70 77/192/71 78/191/72 79/190/73 80/189/74 81/188/75 82/187/76 83/186/77 84/185/78 85/184/79
f 50/157/80 51/154/81 52/28/82 45/168/83 42/165/84 43/162/85 44/34/86 26/181/87 27/179/88 28/177/89 29/22/90 35/25/91 36/175/92 37/172/93 34/32/94 53/159/95
s 7
f 46/52/96 47/50/97 54/70/98 55/71/99
f 47/50/97 48/30/100 56/72/101 54/70/98
f 48/30/100 33/33/102 57/73/103 56/72/101
f 33/33/102 30/44/104 58/74/105 57/73/103
f 30/44/104 31/42/106 59/75/107 58/74/105
f 31/42/106 32/24/108 60/76/109 59/75/107
f 32/24/108 25/23/110 61/77/111 60/76/109
f 25/23/110 22/40/112 62/78/113 61/77/111
f 22/40/112 23/38/114 63/79/115 62/78/113
f 23/38/114 24/36/116 64/80/117 63/79/115
f 24/36/116 41/35/118 65/81/119 64/80/117
f 41/35/118 38/48/120 66/82/121 65/81/119
f 38/48/120 39/46/122 67/83/123 66/82/121
f 39/46/122 40/26/124 68/84/125 67/83/123
f 40/26/124 49/29/126 69/85/127 68/84/125
f 49/29/126 46/52/96 55/71/99 69/85/127
s 8
f 55/71/128 54/70/129 70/55/130 71/183/131
f 54/70/129 56/72/132 72/56/133 70/55/130
f 56/72/132 57/73/134 73/57/135 72/56/133
f 57/73/134 58/74/136 74/58/137 73/57/135
f 58/74/136 59/75/138 75/59/139 74/58/137
s 9
f 59/75/140 60/76/141 76/60/142 75/59/143
f 60/76/141 61/77/144 77/61/145 76/60/142
f 61/77/144 62/78/146 78/62/147 77/61/145
s 10
f 62/78/148 63/79/149 79/63/150 78/62/151
f 63/79/149 64/80/152 80/64/153 79/63/150
f 64/80/152 65/81/154 81/65/155 80/64/153
f 65/81/154 66/82/156 82/66/157 81/65/155
f 66/82/156 67/83/158 83/67/159 82/66/157
s 11
f 67/83/160 68/84/161 84/68/162 83/67/163
f 68/84/161 69/85/164 85/69/165 84/68/162
f 69/85/164 55/71/166 71/183/167 85/69/165
s 12
f 86/86/168 87/87/169 97/88/170 96/89/171
f 87/87/169 88/90/172 98/91/173 97/88/170
f 88/90/172 89/92/174 99/93/175 98/91/173
f 89/92/174 90/94/176 100/95/177 99/93/175
f 90/94/176 91/96/178 101/97/179 100/95/177
f 91/96/178 92/98/180 102/99/181 101/97/179
f 92/98/180 93/100/182 103/101/183 102/99/181
f 93/100/182 94/102/184 104/103/185 103/101/183
f 94/102/184 95/104/186 105/105/187 104/103/185
f 95/104/186 86/86/168 96/89/171 105/105/187
s 13
f 96/89/188 97/88/189 106/106/190
f 97/88/189 98/91/191 106/106/190
f 98/91/191 99/93/192 106/106/190
f 99/93/192 100/95/193 106/106/190
f 100/95/193 101/97/194 106/106/190
f 101/97/194 102/99/195 106/106/190
f 102/99/195 103/101/196 106/106/190
f 103/101/196 104/103/197 106/106/190
f 104/103/197 105/105/198 106/106/190
f 105/105/198 96/89/188 106/106/190
s 14
f 119/107/199 120/108/200 126/109/201 127/110/202
s 15
f 115/111/203 116/112/204 112/113/205 111/114/206
s 16
f 113/115/207 114/116/208 117/117/209 118/118/210
s 15
f 109/119/211 110/120/212 116/112/204 115/111/203
s 17
f 120/108/213 121/152/214 125/151/215 126/109/216
s 16
f 118/118/210 117/117/209 108/123/217 107/124/218
s 18
f 127/110/219 128/148/220 122/147/221 119/107/222
s 14
f 129/127/223 130/128/224 120/108/200 119/107/199
s 17
f 130/128/225 131/145/226 121/152/214 120/108/213
s 18
f 119/107/222 122/147/221 134/144/227 129/127/228
s 17
f 116/131/229 125/151/215 124/150/230 112/133/231
f 126/109/216 125/151/215 116/131/229 110/120/232
s 14
f 127/110/202 126/109/201 110/120/233 109/119/234
s 18
f 115/134/235 128/148/220 127/110/219 109/119/236
f 123/135/237 128/148/220 115/134/235 111/136/238
s 14
f 107/124/239 108/123/240 130/128/224 129/127/223
s 17
f 108/123/241 117/137/242 131/145/226 130/128/225
f 132/138/243 131/145/226 117/137/242 114/139/244
s 18
f 113/140/245 118/141/246 134/144/227 133/143/247
f 129/127/228 134/144/227 118/141/246 107/124/248
s off
f 131/129/249 132/146/250 133/142/251 134/130/252
f 124/132/253 125/122/254 128/125/255 123/149/256
f 122/126/257 128/125/258 125/122/259 121/121/260
f 121/121/261 131/129/262 134/130/263 122/126/264
